G75*
%MOIN*%
%OFA0B0*%
%FSLAX26Y26*%
%IPPOS*%
%LPD*%
%AMOC8*
5,1,8,0,0,1.08239X$1,22.5*
%
%ADD10R,0.083000X0.058000*%
%ADD11R,0.118000X0.102000*%
%ADD12R,0.108000X0.058000*%
%ADD13OC8,0.068000*%
%ADD14R,0.058000X0.108000*%
%ADD15R,0.058000X0.083000*%
%ADD16OC8,0.108000*%
%ADD17R,0.056000X0.096000*%
%ADD18R,0.149732X0.094614*%
D10*
X01850000Y00385000D03*
X01850000Y00515000D03*
X02450000Y00515000D03*
X02450000Y00385000D03*
X03550000Y00385000D03*
X03550000Y00515000D03*
X03850000Y00785000D03*
X03850000Y00915000D03*
X04400000Y00865000D03*
X04550000Y00865000D03*
X04700000Y00865000D03*
X04700000Y00735000D03*
X04550000Y00735000D03*
X04400000Y00735000D03*
D11*
X04955000Y00578000D03*
X05195000Y00578000D03*
X05195000Y01027000D03*
X04955000Y01027000D03*
D12*
X03314961Y01050000D03*
X03100000Y01050000D03*
X03100000Y01150000D03*
X03314961Y01150000D03*
X03314961Y01250000D03*
X03100000Y01250000D03*
D13*
X04000000Y01250000D03*
X04550000Y01250000D03*
X04550000Y00550000D03*
X04000000Y00550000D03*
X04250000Y00250000D03*
D14*
X03400000Y00800000D03*
X03300000Y00800000D03*
X03200000Y00800000D03*
X03100000Y00800000D03*
X03000000Y00800000D03*
X02900000Y00800000D03*
X02550000Y01035039D03*
X02450000Y01035039D03*
X02350000Y01035039D03*
X01950000Y01035039D03*
X01850000Y01035039D03*
X01750000Y01035039D03*
X01750000Y01250000D03*
X01850000Y01250000D03*
X01950000Y01250000D03*
X02350000Y01250000D03*
X02450000Y01250000D03*
X02550000Y01250000D03*
D15*
X03635000Y00900000D03*
X03765000Y00900000D03*
X03765000Y00800000D03*
X03635000Y00800000D03*
D16*
X00500000Y00650000D03*
X00500000Y00950000D03*
D17*
X04009000Y00728000D03*
X04100000Y00728000D03*
X04191000Y00728000D03*
D18*
X04100000Y00972008D03*
M02*
