G75*
%MOIN*%
%OFA0B0*%
%FSLAX26Y26*%
%IPPOS*%
%LPD*%
%AMOC8*
5,1,8,0,0,1.08239X$1,22.5*
%
%ADD10C,0.003000*%
%ADD11C,0.005000*%
%ADD12C,0.006000*%
%ADD13C,0.024000*%
%ADD14C,0.004000*%
%ADD15C,0.010000*%
%ADD16C,0.008000*%
%ADD17C,0.001000*%
D10*
X00400000Y00400000D02*
X01850000Y00050000D01*
X05450000Y00050000D01*
X05400000Y-00050000D02*
X05400000Y01650000D01*
X05500000Y01550000D02*
X01850000Y01550000D01*
X00400000Y01200000D01*
X00390300Y01197450D01*
X00380664Y01194664D01*
X00371100Y01191644D01*
X00361611Y01188393D01*
X00352205Y01184912D01*
X00342886Y01181203D01*
X00333660Y01177268D01*
X00324532Y01173110D01*
X00315508Y01168732D01*
X00306593Y01164135D01*
X00297793Y01159323D01*
X00289113Y01154298D01*
X00280557Y01149063D01*
X00272131Y01143622D01*
X00263840Y01137978D01*
X00255689Y01132133D01*
X00247682Y01126092D01*
X00239825Y01119858D01*
X00232121Y01113435D01*
X00224576Y01106826D01*
X00217195Y01100036D01*
X00209980Y01093068D01*
X00202937Y01085927D01*
X00196070Y01078616D01*
X00189383Y01071141D01*
X00182879Y01063505D01*
X00176563Y01055713D01*
X00170439Y01047770D01*
X00164510Y01039680D01*
X00158779Y01031449D01*
X00153250Y01023080D01*
X00147926Y01014580D01*
X00142811Y01005952D01*
X00137907Y00997203D01*
X00133217Y00988337D01*
X00128744Y00979359D01*
X00124491Y00970275D01*
X00120461Y00961091D01*
X00116655Y00951811D01*
X00113075Y00942441D01*
X00109725Y00932988D01*
X00106605Y00923455D01*
X00103719Y00913849D01*
X00101067Y00904176D01*
X00098651Y00894442D01*
X00096472Y00884651D01*
X00094533Y00874810D01*
X00092833Y00864925D01*
X00091374Y00855002D01*
X00090157Y00845046D01*
X00089183Y00835064D01*
X00088451Y00825060D01*
X00087963Y00815042D01*
X00087720Y00805015D01*
X00087720Y00794985D01*
X00087963Y00784958D01*
X00088451Y00774940D01*
X00089183Y00764936D01*
X00090157Y00754954D01*
X00091374Y00744998D01*
X00092833Y00735075D01*
X00094533Y00725190D01*
X00096472Y00715349D01*
X00098651Y00705558D01*
X00101067Y00695824D01*
X00103719Y00686151D01*
X00106605Y00676545D01*
X00109725Y00667012D01*
X00113075Y00657559D01*
X00116655Y00648189D01*
X00120461Y00638909D01*
X00124491Y00629725D01*
X00128744Y00620641D01*
X00133217Y00611663D01*
X00137907Y00602797D01*
X00142811Y00594048D01*
X00147926Y00585420D01*
X00153250Y00576920D01*
X00158779Y00568551D01*
X00164510Y00560320D01*
X00170439Y00552230D01*
X00176563Y00544287D01*
X00182879Y00536495D01*
X00189383Y00528859D01*
X00196070Y00521384D01*
X00202937Y00514073D01*
X00209980Y00506932D01*
X00217195Y00499964D01*
X00224576Y00493174D01*
X00232121Y00486565D01*
X00239825Y00480142D01*
X00247682Y00473908D01*
X00255689Y00467867D01*
X00263840Y00462022D01*
X00272131Y00456378D01*
X00280557Y00450937D01*
X00289113Y00445702D01*
X00297793Y00440677D01*
X00306593Y00435865D01*
X00315508Y00431268D01*
X00324532Y00426890D01*
X00333660Y00422732D01*
X00342886Y00418797D01*
X00352205Y00415088D01*
X00361611Y00411607D01*
X00371100Y00408356D01*
X00380664Y00405336D01*
X00390300Y00402550D01*
X00400000Y00400000D01*
D11*
X00777462Y00304724D02*
X00777462Y00282205D01*
X00822500Y00282205D01*
X00807487Y00282205D02*
X00807487Y00304724D01*
X00799981Y00312231D01*
X00784968Y00312231D01*
X00777462Y00304724D01*
X00807487Y00297218D02*
X00822500Y00312231D01*
X00822500Y00328244D02*
X00822500Y00335751D01*
X00814994Y00335751D01*
X00814994Y00328244D01*
X00822500Y00328244D01*
X00822500Y00351264D02*
X00777462Y00351264D01*
X00777462Y00373783D01*
X00784968Y00381289D01*
X00792474Y00381289D01*
X00799981Y00373783D01*
X00799981Y00351264D01*
X00822500Y00351264D02*
X00822500Y00373783D01*
X00814994Y00381289D01*
X00807487Y00381289D01*
X00799981Y00373783D01*
X00814994Y00397303D02*
X00777462Y00397303D01*
X00814994Y00397303D02*
X00822500Y00404809D01*
X00822500Y00419822D01*
X00814994Y00427329D01*
X00777462Y00427329D01*
X00777462Y00443342D02*
X00777462Y00473368D01*
X00784968Y00473368D01*
X00814994Y00443342D01*
X00822500Y00443342D01*
X00822500Y00473368D01*
X00822500Y00489382D02*
X00822500Y00519407D01*
X00822500Y00535421D02*
X00777462Y00535421D01*
X00777462Y00565446D01*
X00777462Y00581460D02*
X00777462Y00603979D01*
X00784968Y00611486D01*
X00799981Y00611486D01*
X00807487Y00603979D01*
X00807487Y00581460D01*
X00807487Y00596473D02*
X00822500Y00611486D01*
X00822500Y00581460D02*
X00777462Y00581460D01*
X00822500Y00565446D02*
X00822500Y00535421D01*
X00799981Y00535421D02*
X00799981Y00550434D01*
X00784968Y00519407D02*
X00777462Y00519407D01*
X00777462Y00489382D01*
X00784968Y00519407D02*
X00814994Y00489382D01*
X00822500Y00489382D01*
X01810000Y00530000D02*
X01810000Y00370000D01*
X01890000Y00370000D01*
X01890000Y00530000D01*
X01810000Y00530000D01*
X02410000Y00530000D02*
X02410000Y00370000D01*
X02490000Y00370000D01*
X02490000Y00530000D01*
X02410000Y00530000D01*
X03510000Y00530000D02*
X03510000Y00370000D01*
X03590000Y00370000D01*
X03590000Y00530000D01*
X03510000Y00530000D01*
X03949500Y00632006D02*
X03957006Y00624500D01*
X03972019Y00624500D01*
X03979526Y00632006D01*
X03979526Y00647019D01*
X03964513Y00647019D01*
X03949500Y00662032D02*
X03949500Y00632006D01*
X03949500Y00662032D02*
X03957006Y00669538D01*
X03972019Y00669538D01*
X03979526Y00662032D01*
X03995539Y00669538D02*
X04025565Y00624500D01*
X04025565Y00669538D01*
X04041578Y00669538D02*
X04064098Y00669538D01*
X04071604Y00662032D01*
X04071604Y00632006D01*
X04064098Y00624500D01*
X04041578Y00624500D01*
X04041578Y00669538D01*
X03995539Y00669538D02*
X03995539Y00624500D01*
X04087618Y00632006D02*
X04095124Y00624500D01*
X04110137Y00624500D01*
X04117643Y00632006D01*
X04117643Y00639513D01*
X04110137Y00647019D01*
X04102631Y00647019D01*
X04110137Y00647019D02*
X04117643Y00654526D01*
X04117643Y00662032D01*
X04110137Y00669538D01*
X04095124Y00669538D01*
X04087618Y00662032D01*
X04360000Y00720000D02*
X04440000Y00720000D01*
X04440000Y00880000D01*
X04360000Y00880000D01*
X04360000Y00720000D01*
X04510000Y00720000D02*
X04590000Y00720000D01*
X04590000Y00880000D01*
X04510000Y00880000D01*
X04510000Y00720000D01*
X04507006Y00669538D02*
X04499500Y00662032D01*
X04499500Y00632006D01*
X04507006Y00624500D01*
X04522019Y00624500D01*
X04529526Y00632006D01*
X04529526Y00647019D01*
X04514513Y00647019D01*
X04529526Y00662032D02*
X04522019Y00669538D01*
X04507006Y00669538D01*
X04545539Y00669538D02*
X04575565Y00624500D01*
X04575565Y00669538D01*
X04591578Y00669538D02*
X04614098Y00669538D01*
X04621604Y00662032D01*
X04621604Y00632006D01*
X04614098Y00624500D01*
X04591578Y00624500D01*
X04591578Y00669538D01*
X04545539Y00669538D02*
X04545539Y00624500D01*
X04812000Y00625000D02*
X04812000Y00979000D01*
X05395000Y00979000D01*
X05395000Y00625000D01*
X04812000Y00625000D01*
X04740000Y00720000D02*
X04660000Y00720000D01*
X04660000Y00880000D01*
X04740000Y00880000D01*
X04740000Y00720000D01*
X03890000Y00770000D02*
X03810000Y00770000D01*
X03810000Y00930000D01*
X03890000Y00930000D01*
X03890000Y00770000D01*
X03780000Y00760000D02*
X03620000Y00760000D01*
X03620000Y00840000D01*
X03780000Y00840000D01*
X03780000Y00760000D01*
X03780000Y00860000D02*
X03620000Y00860000D01*
X03620000Y00940000D01*
X03780000Y00940000D01*
X03780000Y00860000D01*
X03964513Y01324500D02*
X03979526Y01339513D01*
X03979526Y01369538D01*
X03995539Y01362032D02*
X03995539Y01332006D01*
X04003046Y01324500D01*
X04018058Y01324500D01*
X04025565Y01332006D01*
X04041578Y01332006D02*
X04049085Y01324500D01*
X04064098Y01324500D01*
X04071604Y01332006D01*
X04041578Y01332006D02*
X04041578Y01362032D01*
X04049085Y01369538D01*
X04064098Y01369538D01*
X04071604Y01362032D01*
X04025565Y01362032D02*
X04018058Y01369538D01*
X04003046Y01369538D01*
X03995539Y01362032D01*
X03949500Y01369538D02*
X03949500Y01339513D01*
X03964513Y01324500D01*
X04499500Y01324500D02*
X04529526Y01324500D01*
X04514513Y01324500D02*
X04514513Y01369538D01*
X04499500Y01354526D01*
X04545539Y01362032D02*
X04553046Y01369538D01*
X04568058Y01369538D01*
X04575565Y01362032D01*
X04575565Y01354526D01*
X04545539Y01324500D01*
X04575565Y01324500D01*
X04591578Y01339513D02*
X04606591Y01324500D01*
X04621604Y01339513D01*
X04621604Y01369538D01*
X04591578Y01369538D02*
X04591578Y01339513D01*
X04452215Y00369538D02*
X04459722Y00362032D01*
X04459722Y00347019D01*
X04452215Y00339513D01*
X04429696Y00339513D01*
X04444709Y00339513D02*
X04459722Y00324500D01*
X04429696Y00324500D02*
X04429696Y00369538D01*
X04452215Y00369538D01*
X04413683Y00369538D02*
X04383657Y00369538D01*
X04383657Y00324500D01*
X04413683Y00324500D01*
X04398670Y00347019D02*
X04383657Y00347019D01*
X04367643Y00362032D02*
X04337618Y00332006D01*
X04337618Y00324500D01*
X04367643Y00324500D01*
X04321604Y00324500D02*
X04291578Y00324500D01*
X04291578Y00332006D01*
X04321604Y00362032D01*
X04321604Y00369538D01*
X04291578Y00369538D01*
X04275565Y00369538D02*
X04275565Y00332006D01*
X04268058Y00324500D01*
X04253046Y00324500D01*
X04245539Y00332006D01*
X04245539Y00369538D01*
X04229526Y00362032D02*
X04222019Y00369538D01*
X04199500Y00369538D01*
X04199500Y00324500D01*
X04222019Y00324500D01*
X04229526Y00332006D01*
X04229526Y00339513D01*
X04222019Y00347019D01*
X04199500Y00347019D01*
X04222019Y00347019D02*
X04229526Y00354526D01*
X04229526Y00362032D01*
X04337618Y00369538D02*
X04367643Y00369538D01*
X04367643Y00362032D01*
D12*
X04300000Y00275000D02*
X04275000Y00300000D01*
X04225000Y00300000D01*
X04200000Y00275000D01*
X04200000Y00225000D01*
X04225000Y00200000D01*
X04275000Y00200000D01*
X04300000Y00225000D01*
X04300000Y00275000D01*
X04525000Y00500000D02*
X04575000Y00500000D01*
X04600000Y00525000D01*
X04600000Y00575000D01*
X04575000Y00600000D01*
X04525000Y00600000D01*
X04500000Y00575000D01*
X04500000Y00525000D01*
X04525000Y00500000D01*
X04050000Y00525000D02*
X04025000Y00500000D01*
X03975000Y00500000D01*
X03950000Y00525000D01*
X03950000Y00575000D01*
X03975000Y00600000D01*
X04025000Y00600000D01*
X04050000Y00575000D01*
X04050000Y00525000D01*
X03497000Y00442517D02*
X03497000Y00419831D01*
X03474314Y00442517D01*
X03468642Y00442517D01*
X03462971Y00436846D01*
X03462971Y00425503D01*
X03468642Y00419831D01*
X03468642Y00405686D02*
X03479985Y00405686D01*
X03485657Y00400015D01*
X03485657Y00383000D01*
X03497000Y00383000D02*
X03462971Y00383000D01*
X03462971Y00400015D01*
X03468642Y00405686D01*
X03485657Y00394343D02*
X03497000Y00405686D01*
X04312971Y00738672D02*
X04318642Y00733000D01*
X04341328Y00733000D01*
X04347000Y00738672D01*
X04347000Y00750015D01*
X04341328Y00755686D01*
X04341328Y00769831D02*
X04347000Y00775503D01*
X04347000Y00786846D01*
X04341328Y00792517D01*
X04335657Y00792517D01*
X04329985Y00786846D01*
X04329985Y00781174D01*
X04329985Y00786846D02*
X04324314Y00792517D01*
X04318642Y00792517D01*
X04312971Y00786846D01*
X04312971Y00775503D01*
X04318642Y00769831D01*
X04318642Y00755686D02*
X04312971Y00750015D01*
X04312971Y00738672D01*
X04462971Y00738672D02*
X04468642Y00733000D01*
X04491328Y00733000D01*
X04497000Y00738672D01*
X04497000Y00750015D01*
X04491328Y00755686D01*
X04497000Y00769831D02*
X04474314Y00792517D01*
X04468642Y00792517D01*
X04462971Y00786846D01*
X04462971Y00775503D01*
X04468642Y00769831D01*
X04468642Y00755686D02*
X04462971Y00750015D01*
X04462971Y00738672D01*
X04497000Y00769831D02*
X04497000Y00792517D01*
X04612971Y00781174D02*
X04647000Y00781174D01*
X04647000Y00769831D02*
X04647000Y00792517D01*
X04624314Y00769831D02*
X04612971Y00781174D01*
X04618642Y00755686D02*
X04612971Y00750015D01*
X04612971Y00738672D01*
X04618642Y00733000D01*
X04641328Y00733000D01*
X04647000Y00738672D01*
X04647000Y00750015D01*
X04641328Y00755686D01*
X03797000Y00788672D02*
X03797000Y00800015D01*
X03791328Y00805686D01*
X03797000Y00788672D02*
X03791328Y00783000D01*
X03768642Y00783000D01*
X03762971Y00788672D01*
X03762971Y00800015D01*
X03768642Y00805686D01*
X03758855Y00813000D02*
X03736169Y00813000D01*
X03758855Y00835686D01*
X03758855Y00841358D01*
X03753183Y00847029D01*
X03741840Y00847029D01*
X03736169Y00841358D01*
X03722023Y00841358D02*
X03716352Y00847029D01*
X03705009Y00847029D01*
X03699337Y00841358D01*
X03699337Y00835686D01*
X03705009Y00830015D01*
X03716352Y00830015D01*
X03722023Y00824343D01*
X03722023Y00818672D01*
X03716352Y00813000D01*
X03705009Y00813000D01*
X03699337Y00818672D01*
X03685192Y00818672D02*
X03685192Y00847029D01*
X03681174Y00853000D02*
X03681174Y00887029D01*
X03669831Y00875686D01*
X03655686Y00870015D02*
X03650015Y00864343D01*
X03633000Y00864343D01*
X03644343Y00864343D02*
X03655686Y00853000D01*
X03662506Y00847029D02*
X03662506Y00818672D01*
X03668177Y00813000D01*
X03679520Y00813000D01*
X03685192Y00818672D01*
X03710680Y00807328D02*
X03710680Y00852701D01*
X03692517Y00853000D02*
X03669831Y00853000D01*
X03655686Y00870015D02*
X03655686Y00881358D01*
X03650015Y00887029D01*
X03633000Y00887029D01*
X03633000Y00853000D01*
X03762971Y00836846D02*
X03779985Y00819831D01*
X03779985Y00842517D01*
X03762971Y00836846D02*
X03797000Y00836846D01*
X03975000Y01200000D02*
X04025000Y01200000D01*
X04050000Y01225000D01*
X04050000Y01275000D01*
X04025000Y01300000D01*
X03975000Y01300000D01*
X03950000Y01275000D01*
X03950000Y01225000D01*
X03975000Y01200000D01*
X04500000Y01225000D02*
X04525000Y01200000D01*
X04575000Y01200000D01*
X04600000Y01225000D01*
X04600000Y01275000D01*
X04575000Y01300000D01*
X04525000Y01300000D01*
X04500000Y01275000D01*
X04500000Y01225000D01*
X02397000Y00436846D02*
X02391328Y00442517D01*
X02385657Y00442517D01*
X02379985Y00436846D01*
X02379985Y00431174D01*
X02379985Y00436846D02*
X02374314Y00442517D01*
X02368642Y00442517D01*
X02362971Y00436846D01*
X02362971Y00425503D01*
X02368642Y00419831D01*
X02368642Y00405686D02*
X02379985Y00405686D01*
X02385657Y00400015D01*
X02385657Y00383000D01*
X02397000Y00383000D02*
X02362971Y00383000D01*
X02362971Y00400015D01*
X02368642Y00405686D01*
X02385657Y00394343D02*
X02397000Y00405686D01*
X02391328Y00419831D02*
X02397000Y00425503D01*
X02397000Y00436846D01*
X01797000Y00436846D02*
X01762971Y00436846D01*
X01779985Y00419831D01*
X01779985Y00442517D01*
X01779985Y00405686D02*
X01785657Y00400015D01*
X01785657Y00383000D01*
X01797000Y00383000D02*
X01762971Y00383000D01*
X01762971Y00400015D01*
X01768642Y00405686D01*
X01779985Y00405686D01*
X01785657Y00394343D02*
X01797000Y00405686D01*
X00575000Y00650000D02*
X00575015Y00651227D01*
X00575060Y00652453D01*
X00575135Y00653678D01*
X00575241Y00654901D01*
X00575376Y00656121D01*
X00575541Y00657337D01*
X00575736Y00658548D01*
X00575961Y00659755D01*
X00576215Y00660955D01*
X00576498Y00662149D01*
X00576811Y00663336D01*
X00577153Y00664514D01*
X00577524Y00665684D01*
X00577923Y00666844D01*
X00578350Y00667995D01*
X00578806Y00669134D01*
X00579290Y00670262D01*
X00579801Y00671378D01*
X00580339Y00672481D01*
X00580904Y00673570D01*
X00581496Y00674645D01*
X00582114Y00675705D01*
X00582757Y00676750D01*
X00583427Y00677779D01*
X00584121Y00678790D01*
X00584840Y00679785D01*
X00585583Y00680762D01*
X00586349Y00681720D01*
X00587140Y00682659D01*
X00587952Y00683578D01*
X00588788Y00684477D01*
X00589645Y00685355D01*
X00590523Y00686212D01*
X00591422Y00687048D01*
X00592341Y00687860D01*
X00593280Y00688651D01*
X00594238Y00689417D01*
X00595215Y00690160D01*
X00596210Y00690879D01*
X00597221Y00691573D01*
X00598250Y00692243D01*
X00599295Y00692886D01*
X00600355Y00693504D01*
X00601430Y00694096D01*
X00602519Y00694661D01*
X00603622Y00695199D01*
X00604738Y00695710D01*
X00605866Y00696194D01*
X00607005Y00696650D01*
X00608156Y00697077D01*
X00609316Y00697476D01*
X00610486Y00697847D01*
X00611664Y00698189D01*
X00612851Y00698502D01*
X00614045Y00698785D01*
X00615245Y00699039D01*
X00616452Y00699264D01*
X00617663Y00699459D01*
X00618879Y00699624D01*
X00620099Y00699759D01*
X00621322Y00699865D01*
X00622547Y00699940D01*
X00623773Y00699985D01*
X00625000Y00700000D01*
X00626227Y00699985D01*
X00627453Y00699940D01*
X00628678Y00699865D01*
X00629901Y00699759D01*
X00631121Y00699624D01*
X00632337Y00699459D01*
X00633548Y00699264D01*
X00634755Y00699039D01*
X00635955Y00698785D01*
X00637149Y00698502D01*
X00638336Y00698189D01*
X00639514Y00697847D01*
X00640684Y00697476D01*
X00641844Y00697077D01*
X00642995Y00696650D01*
X00644134Y00696194D01*
X00645262Y00695710D01*
X00646378Y00695199D01*
X00647481Y00694661D01*
X00648570Y00694096D01*
X00649645Y00693504D01*
X00650705Y00692886D01*
X00651750Y00692243D01*
X00652779Y00691573D01*
X00653790Y00690879D01*
X00654785Y00690160D01*
X00655762Y00689417D01*
X00656720Y00688651D01*
X00657659Y00687860D01*
X00658578Y00687048D01*
X00659477Y00686212D01*
X00660355Y00685355D01*
X00661212Y00684477D01*
X00662048Y00683578D01*
X00662860Y00682659D01*
X00663651Y00681720D01*
X00664417Y00680762D01*
X00665160Y00679785D01*
X00665879Y00678790D01*
X00666573Y00677779D01*
X00667243Y00676750D01*
X00667886Y00675705D01*
X00668504Y00674645D01*
X00669096Y00673570D01*
X00669661Y00672481D01*
X00670199Y00671378D01*
X00670710Y00670262D01*
X00671194Y00669134D01*
X00671650Y00667995D01*
X00672077Y00666844D01*
X00672476Y00665684D01*
X00672847Y00664514D01*
X00673189Y00663336D01*
X00673502Y00662149D01*
X00673785Y00660955D01*
X00674039Y00659755D01*
X00674264Y00658548D01*
X00674459Y00657337D01*
X00674624Y00656121D01*
X00674759Y00654901D01*
X00674865Y00653678D01*
X00674940Y00652453D01*
X00674985Y00651227D01*
X00675000Y00650000D01*
X00674985Y00648773D01*
X00674940Y00647547D01*
X00674865Y00646322D01*
X00674759Y00645099D01*
X00674624Y00643879D01*
X00674459Y00642663D01*
X00674264Y00641452D01*
X00674039Y00640245D01*
X00673785Y00639045D01*
X00673502Y00637851D01*
X00673189Y00636664D01*
X00672847Y00635486D01*
X00672476Y00634316D01*
X00672077Y00633156D01*
X00671650Y00632005D01*
X00671194Y00630866D01*
X00670710Y00629738D01*
X00670199Y00628622D01*
X00669661Y00627519D01*
X00669096Y00626430D01*
X00668504Y00625355D01*
X00667886Y00624295D01*
X00667243Y00623250D01*
X00666573Y00622221D01*
X00665879Y00621210D01*
X00665160Y00620215D01*
X00664417Y00619238D01*
X00663651Y00618280D01*
X00662860Y00617341D01*
X00662048Y00616422D01*
X00661212Y00615523D01*
X00660355Y00614645D01*
X00659477Y00613788D01*
X00658578Y00612952D01*
X00657659Y00612140D01*
X00656720Y00611349D01*
X00655762Y00610583D01*
X00654785Y00609840D01*
X00653790Y00609121D01*
X00652779Y00608427D01*
X00651750Y00607757D01*
X00650705Y00607114D01*
X00649645Y00606496D01*
X00648570Y00605904D01*
X00647481Y00605339D01*
X00646378Y00604801D01*
X00645262Y00604290D01*
X00644134Y00603806D01*
X00642995Y00603350D01*
X00641844Y00602923D01*
X00640684Y00602524D01*
X00639514Y00602153D01*
X00638336Y00601811D01*
X00637149Y00601498D01*
X00635955Y00601215D01*
X00634755Y00600961D01*
X00633548Y00600736D01*
X00632337Y00600541D01*
X00631121Y00600376D01*
X00629901Y00600241D01*
X00628678Y00600135D01*
X00627453Y00600060D01*
X00626227Y00600015D01*
X00625000Y00600000D01*
X00623773Y00600015D01*
X00622547Y00600060D01*
X00621322Y00600135D01*
X00620099Y00600241D01*
X00618879Y00600376D01*
X00617663Y00600541D01*
X00616452Y00600736D01*
X00615245Y00600961D01*
X00614045Y00601215D01*
X00612851Y00601498D01*
X00611664Y00601811D01*
X00610486Y00602153D01*
X00609316Y00602524D01*
X00608156Y00602923D01*
X00607005Y00603350D01*
X00605866Y00603806D01*
X00604738Y00604290D01*
X00603622Y00604801D01*
X00602519Y00605339D01*
X00601430Y00605904D01*
X00600355Y00606496D01*
X00599295Y00607114D01*
X00598250Y00607757D01*
X00597221Y00608427D01*
X00596210Y00609121D01*
X00595215Y00609840D01*
X00594238Y00610583D01*
X00593280Y00611349D01*
X00592341Y00612140D01*
X00591422Y00612952D01*
X00590523Y00613788D01*
X00589645Y00614645D01*
X00588788Y00615523D01*
X00587952Y00616422D01*
X00587140Y00617341D01*
X00586349Y00618280D01*
X00585583Y00619238D01*
X00584840Y00620215D01*
X00584121Y00621210D01*
X00583427Y00622221D01*
X00582757Y00623250D01*
X00582114Y00624295D01*
X00581496Y00625355D01*
X00580904Y00626430D01*
X00580339Y00627519D01*
X00579801Y00628622D01*
X00579290Y00629738D01*
X00578806Y00630866D01*
X00578350Y00632005D01*
X00577923Y00633156D01*
X00577524Y00634316D01*
X00577153Y00635486D01*
X00576811Y00636664D01*
X00576498Y00637851D01*
X00576215Y00639045D01*
X00575961Y00640245D01*
X00575736Y00641452D01*
X00575541Y00642663D01*
X00575376Y00643879D01*
X00575241Y00645099D01*
X00575135Y00646322D01*
X00575060Y00647547D01*
X00575015Y00648773D01*
X00575000Y00650000D01*
X00450000Y00800000D02*
X00450015Y00801227D01*
X00450060Y00802453D01*
X00450135Y00803678D01*
X00450241Y00804901D01*
X00450376Y00806121D01*
X00450541Y00807337D01*
X00450736Y00808548D01*
X00450961Y00809755D01*
X00451215Y00810955D01*
X00451498Y00812149D01*
X00451811Y00813336D01*
X00452153Y00814514D01*
X00452524Y00815684D01*
X00452923Y00816844D01*
X00453350Y00817995D01*
X00453806Y00819134D01*
X00454290Y00820262D01*
X00454801Y00821378D01*
X00455339Y00822481D01*
X00455904Y00823570D01*
X00456496Y00824645D01*
X00457114Y00825705D01*
X00457757Y00826750D01*
X00458427Y00827779D01*
X00459121Y00828790D01*
X00459840Y00829785D01*
X00460583Y00830762D01*
X00461349Y00831720D01*
X00462140Y00832659D01*
X00462952Y00833578D01*
X00463788Y00834477D01*
X00464645Y00835355D01*
X00465523Y00836212D01*
X00466422Y00837048D01*
X00467341Y00837860D01*
X00468280Y00838651D01*
X00469238Y00839417D01*
X00470215Y00840160D01*
X00471210Y00840879D01*
X00472221Y00841573D01*
X00473250Y00842243D01*
X00474295Y00842886D01*
X00475355Y00843504D01*
X00476430Y00844096D01*
X00477519Y00844661D01*
X00478622Y00845199D01*
X00479738Y00845710D01*
X00480866Y00846194D01*
X00482005Y00846650D01*
X00483156Y00847077D01*
X00484316Y00847476D01*
X00485486Y00847847D01*
X00486664Y00848189D01*
X00487851Y00848502D01*
X00489045Y00848785D01*
X00490245Y00849039D01*
X00491452Y00849264D01*
X00492663Y00849459D01*
X00493879Y00849624D01*
X00495099Y00849759D01*
X00496322Y00849865D01*
X00497547Y00849940D01*
X00498773Y00849985D01*
X00500000Y00850000D01*
X00501227Y00849985D01*
X00502453Y00849940D01*
X00503678Y00849865D01*
X00504901Y00849759D01*
X00506121Y00849624D01*
X00507337Y00849459D01*
X00508548Y00849264D01*
X00509755Y00849039D01*
X00510955Y00848785D01*
X00512149Y00848502D01*
X00513336Y00848189D01*
X00514514Y00847847D01*
X00515684Y00847476D01*
X00516844Y00847077D01*
X00517995Y00846650D01*
X00519134Y00846194D01*
X00520262Y00845710D01*
X00521378Y00845199D01*
X00522481Y00844661D01*
X00523570Y00844096D01*
X00524645Y00843504D01*
X00525705Y00842886D01*
X00526750Y00842243D01*
X00527779Y00841573D01*
X00528790Y00840879D01*
X00529785Y00840160D01*
X00530762Y00839417D01*
X00531720Y00838651D01*
X00532659Y00837860D01*
X00533578Y00837048D01*
X00534477Y00836212D01*
X00535355Y00835355D01*
X00536212Y00834477D01*
X00537048Y00833578D01*
X00537860Y00832659D01*
X00538651Y00831720D01*
X00539417Y00830762D01*
X00540160Y00829785D01*
X00540879Y00828790D01*
X00541573Y00827779D01*
X00542243Y00826750D01*
X00542886Y00825705D01*
X00543504Y00824645D01*
X00544096Y00823570D01*
X00544661Y00822481D01*
X00545199Y00821378D01*
X00545710Y00820262D01*
X00546194Y00819134D01*
X00546650Y00817995D01*
X00547077Y00816844D01*
X00547476Y00815684D01*
X00547847Y00814514D01*
X00548189Y00813336D01*
X00548502Y00812149D01*
X00548785Y00810955D01*
X00549039Y00809755D01*
X00549264Y00808548D01*
X00549459Y00807337D01*
X00549624Y00806121D01*
X00549759Y00804901D01*
X00549865Y00803678D01*
X00549940Y00802453D01*
X00549985Y00801227D01*
X00550000Y00800000D01*
X00549985Y00798773D01*
X00549940Y00797547D01*
X00549865Y00796322D01*
X00549759Y00795099D01*
X00549624Y00793879D01*
X00549459Y00792663D01*
X00549264Y00791452D01*
X00549039Y00790245D01*
X00548785Y00789045D01*
X00548502Y00787851D01*
X00548189Y00786664D01*
X00547847Y00785486D01*
X00547476Y00784316D01*
X00547077Y00783156D01*
X00546650Y00782005D01*
X00546194Y00780866D01*
X00545710Y00779738D01*
X00545199Y00778622D01*
X00544661Y00777519D01*
X00544096Y00776430D01*
X00543504Y00775355D01*
X00542886Y00774295D01*
X00542243Y00773250D01*
X00541573Y00772221D01*
X00540879Y00771210D01*
X00540160Y00770215D01*
X00539417Y00769238D01*
X00538651Y00768280D01*
X00537860Y00767341D01*
X00537048Y00766422D01*
X00536212Y00765523D01*
X00535355Y00764645D01*
X00534477Y00763788D01*
X00533578Y00762952D01*
X00532659Y00762140D01*
X00531720Y00761349D01*
X00530762Y00760583D01*
X00529785Y00759840D01*
X00528790Y00759121D01*
X00527779Y00758427D01*
X00526750Y00757757D01*
X00525705Y00757114D01*
X00524645Y00756496D01*
X00523570Y00755904D01*
X00522481Y00755339D01*
X00521378Y00754801D01*
X00520262Y00754290D01*
X00519134Y00753806D01*
X00517995Y00753350D01*
X00516844Y00752923D01*
X00515684Y00752524D01*
X00514514Y00752153D01*
X00513336Y00751811D01*
X00512149Y00751498D01*
X00510955Y00751215D01*
X00509755Y00750961D01*
X00508548Y00750736D01*
X00507337Y00750541D01*
X00506121Y00750376D01*
X00504901Y00750241D01*
X00503678Y00750135D01*
X00502453Y00750060D01*
X00501227Y00750015D01*
X00500000Y00750000D01*
X00498773Y00750015D01*
X00497547Y00750060D01*
X00496322Y00750135D01*
X00495099Y00750241D01*
X00493879Y00750376D01*
X00492663Y00750541D01*
X00491452Y00750736D01*
X00490245Y00750961D01*
X00489045Y00751215D01*
X00487851Y00751498D01*
X00486664Y00751811D01*
X00485486Y00752153D01*
X00484316Y00752524D01*
X00483156Y00752923D01*
X00482005Y00753350D01*
X00480866Y00753806D01*
X00479738Y00754290D01*
X00478622Y00754801D01*
X00477519Y00755339D01*
X00476430Y00755904D01*
X00475355Y00756496D01*
X00474295Y00757114D01*
X00473250Y00757757D01*
X00472221Y00758427D01*
X00471210Y00759121D01*
X00470215Y00759840D01*
X00469238Y00760583D01*
X00468280Y00761349D01*
X00467341Y00762140D01*
X00466422Y00762952D01*
X00465523Y00763788D01*
X00464645Y00764645D01*
X00463788Y00765523D01*
X00462952Y00766422D01*
X00462140Y00767341D01*
X00461349Y00768280D01*
X00460583Y00769238D01*
X00459840Y00770215D01*
X00459121Y00771210D01*
X00458427Y00772221D01*
X00457757Y00773250D01*
X00457114Y00774295D01*
X00456496Y00775355D01*
X00455904Y00776430D01*
X00455339Y00777519D01*
X00454801Y00778622D01*
X00454290Y00779738D01*
X00453806Y00780866D01*
X00453350Y00782005D01*
X00452923Y00783156D01*
X00452524Y00784316D01*
X00452153Y00785486D01*
X00451811Y00786664D01*
X00451498Y00787851D01*
X00451215Y00789045D01*
X00450961Y00790245D01*
X00450736Y00791452D01*
X00450541Y00792663D01*
X00450376Y00793879D01*
X00450241Y00795099D01*
X00450135Y00796322D01*
X00450060Y00797547D01*
X00450015Y00798773D01*
X00450000Y00800000D01*
X00185000Y00800000D02*
X00185095Y00807730D01*
X00185379Y00815456D01*
X00185854Y00823173D01*
X00186517Y00830875D01*
X00187369Y00838559D01*
X00188409Y00846220D01*
X00189638Y00853853D01*
X00191053Y00861453D01*
X00192654Y00869017D01*
X00194440Y00876539D01*
X00196411Y00884015D01*
X00198564Y00891440D01*
X00200899Y00898810D01*
X00203414Y00906120D01*
X00206107Y00913367D01*
X00208978Y00920545D01*
X00212024Y00927651D01*
X00215243Y00934680D01*
X00218634Y00941628D01*
X00222195Y00948490D01*
X00225923Y00955263D01*
X00229815Y00961942D01*
X00233871Y00968524D01*
X00238087Y00975005D01*
X00242461Y00981380D01*
X00246990Y00987645D01*
X00251671Y00993798D01*
X00256502Y00999834D01*
X00261479Y01005749D01*
X00266600Y01011541D01*
X00271862Y01017205D01*
X00277261Y01022739D01*
X00282795Y01028138D01*
X00288459Y01033400D01*
X00294251Y01038521D01*
X00300166Y01043498D01*
X00306202Y01048329D01*
X00312355Y01053010D01*
X00318620Y01057539D01*
X00324995Y01061913D01*
X00331476Y01066129D01*
X00338058Y01070185D01*
X00344737Y01074077D01*
X00351510Y01077805D01*
X00358372Y01081366D01*
X00365320Y01084757D01*
X00372349Y01087976D01*
X00379455Y01091022D01*
X00386633Y01093893D01*
X00393880Y01096586D01*
X00401190Y01099101D01*
X00408560Y01101436D01*
X00415985Y01103589D01*
X00423461Y01105560D01*
X00430983Y01107346D01*
X00438547Y01108947D01*
X00446147Y01110362D01*
X00453780Y01111591D01*
X00461441Y01112631D01*
X00469125Y01113483D01*
X00476827Y01114146D01*
X00484544Y01114621D01*
X00492270Y01114905D01*
X00500000Y01115000D01*
X00507730Y01114905D01*
X00515456Y01114621D01*
X00523173Y01114146D01*
X00530875Y01113483D01*
X00538559Y01112631D01*
X00546220Y01111591D01*
X00553853Y01110362D01*
X00561453Y01108947D01*
X00569017Y01107346D01*
X00576539Y01105560D01*
X00584015Y01103589D01*
X00591440Y01101436D01*
X00598810Y01099101D01*
X00606120Y01096586D01*
X00613367Y01093893D01*
X00620545Y01091022D01*
X00627651Y01087976D01*
X00634680Y01084757D01*
X00641628Y01081366D01*
X00648490Y01077805D01*
X00655263Y01074077D01*
X00661942Y01070185D01*
X00668524Y01066129D01*
X00675005Y01061913D01*
X00681380Y01057539D01*
X00687645Y01053010D01*
X00693798Y01048329D01*
X00699834Y01043498D01*
X00705749Y01038521D01*
X00711541Y01033400D01*
X00717205Y01028138D01*
X00722739Y01022739D01*
X00728138Y01017205D01*
X00733400Y01011541D01*
X00738521Y01005749D01*
X00743498Y00999834D01*
X00748329Y00993798D01*
X00753010Y00987645D01*
X00757539Y00981380D01*
X00761913Y00975005D01*
X00766129Y00968524D01*
X00770185Y00961942D01*
X00774077Y00955263D01*
X00777805Y00948490D01*
X00781366Y00941628D01*
X00784757Y00934680D01*
X00787976Y00927651D01*
X00791022Y00920545D01*
X00793893Y00913367D01*
X00796586Y00906120D01*
X00799101Y00898810D01*
X00801436Y00891440D01*
X00803589Y00884015D01*
X00805560Y00876539D01*
X00807346Y00869017D01*
X00808947Y00861453D01*
X00810362Y00853853D01*
X00811591Y00846220D01*
X00812631Y00838559D01*
X00813483Y00830875D01*
X00814146Y00823173D01*
X00814621Y00815456D01*
X00814905Y00807730D01*
X00815000Y00800000D01*
X00814905Y00792270D01*
X00814621Y00784544D01*
X00814146Y00776827D01*
X00813483Y00769125D01*
X00812631Y00761441D01*
X00811591Y00753780D01*
X00810362Y00746147D01*
X00808947Y00738547D01*
X00807346Y00730983D01*
X00805560Y00723461D01*
X00803589Y00715985D01*
X00801436Y00708560D01*
X00799101Y00701190D01*
X00796586Y00693880D01*
X00793893Y00686633D01*
X00791022Y00679455D01*
X00787976Y00672349D01*
X00784757Y00665320D01*
X00781366Y00658372D01*
X00777805Y00651510D01*
X00774077Y00644737D01*
X00770185Y00638058D01*
X00766129Y00631476D01*
X00761913Y00624995D01*
X00757539Y00618620D01*
X00753010Y00612355D01*
X00748329Y00606202D01*
X00743498Y00600166D01*
X00738521Y00594251D01*
X00733400Y00588459D01*
X00728138Y00582795D01*
X00722739Y00577261D01*
X00717205Y00571862D01*
X00711541Y00566600D01*
X00705749Y00561479D01*
X00699834Y00556502D01*
X00693798Y00551671D01*
X00687645Y00546990D01*
X00681380Y00542461D01*
X00675005Y00538087D01*
X00668524Y00533871D01*
X00661942Y00529815D01*
X00655263Y00525923D01*
X00648490Y00522195D01*
X00641628Y00518634D01*
X00634680Y00515243D01*
X00627651Y00512024D01*
X00620545Y00508978D01*
X00613367Y00506107D01*
X00606120Y00503414D01*
X00598810Y00500899D01*
X00591440Y00498564D01*
X00584015Y00496411D01*
X00576539Y00494440D01*
X00569017Y00492654D01*
X00561453Y00491053D01*
X00553853Y00489638D01*
X00546220Y00488409D01*
X00538559Y00487369D01*
X00530875Y00486517D01*
X00523173Y00485854D01*
X00515456Y00485379D01*
X00507730Y00485095D01*
X00500000Y00485000D01*
X00492270Y00485095D01*
X00484544Y00485379D01*
X00476827Y00485854D01*
X00469125Y00486517D01*
X00461441Y00487369D01*
X00453780Y00488409D01*
X00446147Y00489638D01*
X00438547Y00491053D01*
X00430983Y00492654D01*
X00423461Y00494440D01*
X00415985Y00496411D01*
X00408560Y00498564D01*
X00401190Y00500899D01*
X00393880Y00503414D01*
X00386633Y00506107D01*
X00379455Y00508978D01*
X00372349Y00512024D01*
X00365320Y00515243D01*
X00358372Y00518634D01*
X00351510Y00522195D01*
X00344737Y00525923D01*
X00338058Y00529815D01*
X00331476Y00533871D01*
X00324995Y00538087D01*
X00318620Y00542461D01*
X00312355Y00546990D01*
X00306202Y00551671D01*
X00300166Y00556502D01*
X00294251Y00561479D01*
X00288459Y00566600D01*
X00282795Y00571862D01*
X00277261Y00577261D01*
X00271862Y00582795D01*
X00266600Y00588459D01*
X00261479Y00594251D01*
X00256502Y00600166D01*
X00251671Y00606202D01*
X00246990Y00612355D01*
X00242461Y00618620D01*
X00238087Y00624995D01*
X00233871Y00631476D01*
X00229815Y00638058D01*
X00225923Y00644737D01*
X00222195Y00651510D01*
X00218634Y00658372D01*
X00215243Y00665320D01*
X00212024Y00672349D01*
X00208978Y00679455D01*
X00206107Y00686633D01*
X00203414Y00693880D01*
X00200899Y00701190D01*
X00198564Y00708560D01*
X00196411Y00715985D01*
X00194440Y00723461D01*
X00192654Y00730983D01*
X00191053Y00738547D01*
X00189638Y00746147D01*
X00188409Y00753780D01*
X00187369Y00761441D01*
X00186517Y00769125D01*
X00185854Y00776827D01*
X00185379Y00784544D01*
X00185095Y00792270D01*
X00185000Y00800000D01*
X00224000Y00800000D02*
X00224083Y00806773D01*
X00224332Y00813543D01*
X00224748Y00820304D01*
X00225329Y00827053D01*
X00226076Y00833785D01*
X00226987Y00840498D01*
X00228063Y00847185D01*
X00229303Y00853845D01*
X00230706Y00860472D01*
X00232271Y00867063D01*
X00233998Y00873613D01*
X00235884Y00880119D01*
X00237930Y00886576D01*
X00240134Y00892982D01*
X00242494Y00899331D01*
X00245009Y00905621D01*
X00247678Y00911847D01*
X00250499Y00918005D01*
X00253470Y00924093D01*
X00256590Y00930105D01*
X00259856Y00936040D01*
X00263267Y00941892D01*
X00266820Y00947659D01*
X00270514Y00953337D01*
X00274347Y00958923D01*
X00278315Y00964413D01*
X00282416Y00969804D01*
X00286649Y00975093D01*
X00291010Y00980276D01*
X00295497Y00985350D01*
X00300108Y00990313D01*
X00304839Y00995161D01*
X00309687Y00999892D01*
X00314650Y01004503D01*
X00319724Y01008990D01*
X00324907Y01013351D01*
X00330196Y01017584D01*
X00335587Y01021685D01*
X00341077Y01025653D01*
X00346663Y01029486D01*
X00352341Y01033180D01*
X00358108Y01036733D01*
X00363960Y01040144D01*
X00369895Y01043410D01*
X00375907Y01046530D01*
X00381995Y01049501D01*
X00388153Y01052322D01*
X00394379Y01054991D01*
X00400669Y01057506D01*
X00407018Y01059866D01*
X00413424Y01062070D01*
X00419881Y01064116D01*
X00426387Y01066002D01*
X00432937Y01067729D01*
X00439528Y01069294D01*
X00446155Y01070697D01*
X00452815Y01071937D01*
X00459502Y01073013D01*
X00466215Y01073924D01*
X00472947Y01074671D01*
X00479696Y01075252D01*
X00486457Y01075668D01*
X00493227Y01075917D01*
X00500000Y01076000D01*
X00506773Y01075917D01*
X00513543Y01075668D01*
X00520304Y01075252D01*
X00527053Y01074671D01*
X00533785Y01073924D01*
X00540498Y01073013D01*
X00547185Y01071937D01*
X00553845Y01070697D01*
X00560472Y01069294D01*
X00567063Y01067729D01*
X00573613Y01066002D01*
X00580119Y01064116D01*
X00586576Y01062070D01*
X00592982Y01059866D01*
X00599331Y01057506D01*
X00605621Y01054991D01*
X00611847Y01052322D01*
X00618005Y01049501D01*
X00624093Y01046530D01*
X00630105Y01043410D01*
X00636040Y01040144D01*
X00641892Y01036733D01*
X00647659Y01033180D01*
X00653337Y01029486D01*
X00658923Y01025653D01*
X00664413Y01021685D01*
X00669804Y01017584D01*
X00675093Y01013351D01*
X00680276Y01008990D01*
X00685350Y01004503D01*
X00690313Y00999892D01*
X00695161Y00995161D01*
X00699892Y00990313D01*
X00704503Y00985350D01*
X00708990Y00980276D01*
X00713351Y00975093D01*
X00717584Y00969804D01*
X00721685Y00964413D01*
X00725653Y00958923D01*
X00729486Y00953337D01*
X00733180Y00947659D01*
X00736733Y00941892D01*
X00740144Y00936040D01*
X00743410Y00930105D01*
X00746530Y00924093D01*
X00749501Y00918005D01*
X00752322Y00911847D01*
X00754991Y00905621D01*
X00757506Y00899331D01*
X00759866Y00892982D01*
X00762070Y00886576D01*
X00764116Y00880119D01*
X00766002Y00873613D01*
X00767729Y00867063D01*
X00769294Y00860472D01*
X00770697Y00853845D01*
X00771937Y00847185D01*
X00773013Y00840498D01*
X00773924Y00833785D01*
X00774671Y00827053D01*
X00775252Y00820304D01*
X00775668Y00813543D01*
X00775917Y00806773D01*
X00776000Y00800000D01*
X00775917Y00793227D01*
X00775668Y00786457D01*
X00775252Y00779696D01*
X00774671Y00772947D01*
X00773924Y00766215D01*
X00773013Y00759502D01*
X00771937Y00752815D01*
X00770697Y00746155D01*
X00769294Y00739528D01*
X00767729Y00732937D01*
X00766002Y00726387D01*
X00764116Y00719881D01*
X00762070Y00713424D01*
X00759866Y00707018D01*
X00757506Y00700669D01*
X00754991Y00694379D01*
X00752322Y00688153D01*
X00749501Y00681995D01*
X00746530Y00675907D01*
X00743410Y00669895D01*
X00740144Y00663960D01*
X00736733Y00658108D01*
X00733180Y00652341D01*
X00729486Y00646663D01*
X00725653Y00641077D01*
X00721685Y00635587D01*
X00717584Y00630196D01*
X00713351Y00624907D01*
X00708990Y00619724D01*
X00704503Y00614650D01*
X00699892Y00609687D01*
X00695161Y00604839D01*
X00690313Y00600108D01*
X00685350Y00595497D01*
X00680276Y00591010D01*
X00675093Y00586649D01*
X00669804Y00582416D01*
X00664413Y00578315D01*
X00658923Y00574347D01*
X00653337Y00570514D01*
X00647659Y00566820D01*
X00641892Y00563267D01*
X00636040Y00559856D01*
X00630105Y00556590D01*
X00624093Y00553470D01*
X00618005Y00550499D01*
X00611847Y00547678D01*
X00605621Y00545009D01*
X00599331Y00542494D01*
X00592982Y00540134D01*
X00586576Y00537930D01*
X00580119Y00535884D01*
X00573613Y00533998D01*
X00567063Y00532271D01*
X00560472Y00530706D01*
X00553845Y00529303D01*
X00547185Y00528063D01*
X00540498Y00526987D01*
X00533785Y00526076D01*
X00527053Y00525329D01*
X00520304Y00524748D01*
X00513543Y00524332D01*
X00506773Y00524083D01*
X00500000Y00524000D01*
X00493227Y00524083D01*
X00486457Y00524332D01*
X00479696Y00524748D01*
X00472947Y00525329D01*
X00466215Y00526076D01*
X00459502Y00526987D01*
X00452815Y00528063D01*
X00446155Y00529303D01*
X00439528Y00530706D01*
X00432937Y00532271D01*
X00426387Y00533998D01*
X00419881Y00535884D01*
X00413424Y00537930D01*
X00407018Y00540134D01*
X00400669Y00542494D01*
X00394379Y00545009D01*
X00388153Y00547678D01*
X00381995Y00550499D01*
X00375907Y00553470D01*
X00369895Y00556590D01*
X00363960Y00559856D01*
X00358108Y00563267D01*
X00352341Y00566820D01*
X00346663Y00570514D01*
X00341077Y00574347D01*
X00335587Y00578315D01*
X00330196Y00582416D01*
X00324907Y00586649D01*
X00319724Y00591010D01*
X00314650Y00595497D01*
X00309687Y00600108D01*
X00304839Y00604839D01*
X00300108Y00609687D01*
X00295497Y00614650D01*
X00291010Y00619724D01*
X00286649Y00624907D01*
X00282416Y00630196D01*
X00278315Y00635587D01*
X00274347Y00641077D01*
X00270514Y00646663D01*
X00266820Y00652341D01*
X00263267Y00658108D01*
X00259856Y00663960D01*
X00256590Y00669895D01*
X00253470Y00675907D01*
X00250499Y00681995D01*
X00247678Y00688153D01*
X00245009Y00694379D01*
X00242494Y00700669D01*
X00240134Y00707018D01*
X00237930Y00713424D01*
X00235884Y00719881D01*
X00233998Y00726387D01*
X00232271Y00732937D01*
X00230706Y00739528D01*
X00229303Y00746155D01*
X00228063Y00752815D01*
X00226987Y00759502D01*
X00226076Y00766215D01*
X00225329Y00772947D01*
X00224748Y00779696D01*
X00224332Y00786457D01*
X00224083Y00793227D01*
X00224000Y00800000D01*
D13*
X04910000Y00800000D02*
X04950000Y00800000D01*
X05200000Y00800000D01*
X05390000Y00800000D01*
D14*
X03635164Y01302000D02*
X03604471Y01302000D01*
X03604471Y01348039D01*
X03589125Y01348039D02*
X03558432Y01348039D01*
X03558432Y01302000D01*
X03589125Y01302000D01*
X03573778Y01325020D02*
X03558432Y01325020D01*
X03543085Y01348039D02*
X03543085Y01302000D01*
X03512392Y01348039D01*
X03512392Y01302000D01*
X03497046Y01302000D02*
X03497046Y01332693D01*
X03481700Y01348039D01*
X03466353Y01332693D01*
X03466353Y01302000D01*
X03466353Y01325020D02*
X03497046Y01325020D01*
X03451007Y01325020D02*
X03443334Y01317346D01*
X03420314Y01317346D01*
X03420314Y01302000D02*
X03420314Y01348039D01*
X03443334Y01348039D01*
X03451007Y01340366D01*
X03451007Y01325020D01*
X03404968Y01294327D02*
X03374275Y01294327D01*
X03358928Y01302000D02*
X03328235Y01302000D01*
X03328235Y01348039D01*
X03312889Y01340366D02*
X03305216Y01348039D01*
X03289869Y01348039D01*
X03282196Y01340366D01*
X03282196Y01309673D01*
X03289869Y01302000D01*
X03305216Y01302000D01*
X03312889Y01309673D01*
X03312889Y01340366D01*
X03266850Y01340366D02*
X03266850Y01325020D01*
X03259177Y01317346D01*
X03236157Y01317346D01*
X03236157Y01302000D02*
X03236157Y01348039D01*
X03259177Y01348039D01*
X03266850Y01340366D01*
X03251503Y01317346D02*
X03266850Y01302000D01*
X03205464Y01302000D02*
X03205464Y01348039D01*
X03190118Y01348039D02*
X03220811Y01348039D01*
X03174771Y01348039D02*
X03174771Y01302000D01*
X03144078Y01348039D01*
X03144078Y01302000D01*
X03128732Y01309673D02*
X03128732Y01340366D01*
X03121059Y01348039D01*
X03105712Y01348039D01*
X03098039Y01340366D01*
X03098039Y01309673D01*
X03105712Y01302000D01*
X03121059Y01302000D01*
X03128732Y01309673D01*
X03082693Y01309673D02*
X03075020Y01302000D01*
X03059673Y01302000D01*
X03052000Y01309673D01*
X03052000Y01340366D01*
X03059673Y01348039D01*
X03075020Y01348039D01*
X03082693Y01340366D01*
X02648000Y01286653D02*
X02648000Y01255960D01*
X02648000Y01271306D02*
X02601961Y01271306D01*
X02617307Y01255960D01*
X02655673Y01240614D02*
X02655673Y01209921D01*
X02648000Y01194574D02*
X02632654Y01179228D01*
X02632654Y01186901D02*
X02632654Y01163882D01*
X02648000Y01163882D02*
X02601961Y01163882D01*
X02601961Y01186901D01*
X02609634Y01194574D01*
X02624980Y01194574D01*
X02632654Y01186901D01*
X02648000Y01148535D02*
X02648000Y01117842D01*
X02601961Y01117842D01*
X02601961Y01148535D01*
X02624980Y01133189D02*
X02624980Y01117842D01*
X02624980Y01102496D02*
X02632654Y01094823D01*
X02632654Y01071803D01*
X02648000Y01071803D02*
X02601961Y01071803D01*
X02601961Y01094823D01*
X02609634Y01102496D01*
X02624980Y01102496D01*
X02624980Y01056457D02*
X02632654Y01048783D01*
X02632654Y01025764D01*
X02648000Y01025764D02*
X02601961Y01025764D01*
X02601961Y01048783D01*
X02609634Y01056457D01*
X02624980Y01056457D01*
X02609634Y01010417D02*
X02601961Y01002744D01*
X02601961Y00987398D01*
X02609634Y00979725D01*
X02640327Y00979725D01*
X02648000Y00987398D01*
X02648000Y01002744D01*
X02640327Y01010417D01*
X02609634Y01010417D01*
X02601961Y00964378D02*
X02648000Y00964378D01*
X02624980Y00964378D02*
X02624980Y00933685D01*
X02601961Y00933685D02*
X02648000Y00933685D01*
X03027000Y00923039D02*
X03027000Y00884673D01*
X03034673Y00877000D01*
X03050020Y00877000D01*
X03057693Y00884673D01*
X03057693Y00923039D01*
X03073039Y00915366D02*
X03080712Y00923039D01*
X03096059Y00923039D01*
X03103732Y00915366D01*
X03119078Y00907693D02*
X03134425Y00923039D01*
X03134425Y00877000D01*
X03149771Y00877000D02*
X03119078Y00877000D01*
X03103732Y00884673D02*
X03103732Y00892346D01*
X03096059Y00900020D01*
X03080712Y00900020D01*
X03073039Y00907693D01*
X03073039Y00915366D01*
X03088386Y00930712D02*
X03088386Y00869327D01*
X03096059Y00877000D02*
X03103732Y00884673D01*
X03096059Y00877000D02*
X03080712Y00877000D01*
X03073039Y00884673D01*
X02048000Y00933685D02*
X02001961Y00933685D01*
X02024980Y00933685D02*
X02024980Y00964378D01*
X02009634Y00979725D02*
X02040327Y00979725D01*
X02048000Y00987398D01*
X02048000Y01002744D01*
X02040327Y01010417D01*
X02009634Y01010417D01*
X02001961Y01002744D01*
X02001961Y00987398D01*
X02009634Y00979725D01*
X02001961Y00964378D02*
X02048000Y00964378D01*
X02048000Y01025764D02*
X02001961Y01025764D01*
X02001961Y01048783D01*
X02009634Y01056457D01*
X02024980Y01056457D01*
X02032654Y01048783D01*
X02032654Y01025764D01*
X02032654Y01071803D02*
X02032654Y01094823D01*
X02024980Y01102496D01*
X02009634Y01102496D01*
X02001961Y01094823D01*
X02001961Y01071803D01*
X02048000Y01071803D01*
X02048000Y01117842D02*
X02001961Y01117842D01*
X02001961Y01148535D01*
X02001961Y01163882D02*
X02001961Y01186901D01*
X02009634Y01194574D01*
X02024980Y01194574D01*
X02032654Y01186901D01*
X02032654Y01163882D01*
X02032654Y01179228D02*
X02048000Y01194574D01*
X02055673Y01209921D02*
X02055673Y01240614D01*
X02048000Y01255960D02*
X02017307Y01286653D01*
X02009634Y01286653D01*
X02001961Y01278980D01*
X02001961Y01263633D01*
X02009634Y01255960D01*
X02048000Y01255960D02*
X02048000Y01286653D01*
X02048000Y01163882D02*
X02001961Y01163882D01*
X02048000Y01148535D02*
X02048000Y01117842D01*
X02024980Y01117842D02*
X02024980Y01133189D01*
D15*
X00625000Y00675000D02*
X00625000Y00625000D01*
X00600000Y00650000D02*
X00650000Y00650000D01*
D16*
X03971000Y00785000D02*
X03971000Y00915000D01*
X04229000Y00915000D01*
X04229000Y00785000D01*
X03971000Y00785000D01*
D17*
X04070502Y01028000D02*
X04075506Y01028000D01*
X04078008Y01030502D01*
X04078008Y01043013D01*
X04082733Y01038008D02*
X04087737Y01043013D01*
X04087737Y01028000D01*
X04082733Y01028000D02*
X04092741Y01028000D01*
X04070502Y01028000D02*
X04068000Y01030502D01*
X04068000Y01043013D01*
M02*
