G75*
%MOIN*%
%OFA0B0*%
%FSLAX26Y26*%
%IPPOS*%
%LPD*%
%AMOC8*
5,1,8,0,0,1.08239X$1,22.5*
%
%ADD10R,0.040000X0.016000*%
%ADD11R,0.060000X0.014000*%
%ADD12R,0.016000X0.040000*%
%ADD13R,0.014000X0.060000*%
%ADD14R,0.070866X0.062992*%
%ADD15R,0.062992X0.070866*%
%ADD16R,0.100000X0.050000*%
%ADD17R,0.050000X0.100000*%
%ADD18R,0.075000X0.050000*%
%ADD19R,0.050000X0.075000*%
%ADD20R,0.216535X0.078740*%
%ADD21R,0.044000X0.071000*%
%ADD22R,0.212598X0.244094*%
%ADD23R,0.039370X0.062992*%
D10*
X01338800Y01735964D03*
X01338800Y01956436D03*
X01686800Y01956436D03*
X01686800Y01735964D03*
D11*
X01676800Y01767460D03*
X01676800Y01798956D03*
X01676800Y01830452D03*
X01676800Y01861948D03*
X01676800Y01893444D03*
X01676800Y01924940D03*
X01348800Y01924940D03*
X01348800Y01893444D03*
X01348800Y01861948D03*
X01348800Y01830452D03*
X01348800Y01798956D03*
X01348800Y01767460D03*
D12*
X01402564Y01672200D03*
X01623036Y01672200D03*
X01623036Y02020200D03*
X01402564Y02020200D03*
D13*
X01434060Y02010200D03*
X01465556Y02010200D03*
X01497052Y02010200D03*
X01528548Y02010200D03*
X01560044Y02010200D03*
X01591540Y02010200D03*
X01591540Y01682200D03*
X01560044Y01682200D03*
X01528548Y01682200D03*
X01497052Y01682200D03*
X01465556Y01682200D03*
X01434060Y01682200D03*
D14*
X00691200Y01862382D03*
X00691200Y01972618D03*
X02584400Y01278118D03*
X02693800Y01278718D03*
X02800100Y01278718D03*
X02800100Y01168482D03*
X02693800Y01168482D03*
X02584400Y01167882D03*
D15*
X02409718Y01609000D03*
X02408018Y01708100D03*
X02406318Y01804700D03*
X02296082Y01804700D03*
X02297781Y01708100D03*
X02299482Y01609000D03*
D16*
X00574100Y01608900D03*
X00574100Y01708900D03*
X00574100Y01508900D03*
X00359139Y01508900D03*
X00359139Y01608900D03*
X00359139Y01708900D03*
D17*
X01991600Y01399861D03*
X02091600Y01399861D03*
X02191600Y01399861D03*
X02191600Y01184900D03*
X02091600Y01184900D03*
X01991600Y01184900D03*
D18*
X01397400Y01460500D03*
X01397400Y01590500D03*
X02512600Y01805500D03*
X02512600Y01935500D03*
D19*
X02415900Y01913300D03*
X02285900Y01913300D03*
X01304500Y01512400D03*
X01174500Y01512400D03*
D20*
X01174008Y01711900D03*
X00799992Y01711900D03*
D21*
X00772200Y01557900D03*
X00890200Y01557900D03*
X00980300Y01557900D03*
X01098300Y01557900D03*
D22*
X00513500Y00989175D03*
X00833400Y00989375D03*
X01151900Y00989175D03*
X01471400Y00988875D03*
X01730200Y02503925D03*
X02052000Y02504025D03*
X02376300Y02504225D03*
X02698700Y02504225D03*
D23*
X02608936Y02216824D03*
X02466064Y02216824D03*
X02286536Y02216824D03*
X02141764Y02216623D03*
X01962236Y02216623D03*
X01819964Y02216523D03*
X01640436Y02216523D03*
X01561164Y01276276D03*
X01381636Y01276276D03*
X01241664Y01276576D03*
X01062136Y01276576D03*
X00923164Y01276776D03*
X00743636Y01276776D03*
X00603264Y01276576D03*
X00423736Y01276576D03*
X02788464Y02216824D03*
M02*
