G75*
%MOIN*%
%OFA0B0*%
%FSLAX26Y26*%
%IPPOS*%
%LPD*%
%AMOC8*
5,1,8,0,0,1.08239X$1,22.5*
%
%ADD10C,0.000000*%
%ADD11C,0.012000*%
%ADD12C,0.006000*%
%ADD13C,0.003000*%
%ADD14C,0.001000*%
%ADD15C,0.004000*%
%ADD16C,0.005000*%
%ADD17C,0.008000*%
%ADD18R,0.034000X0.030000*%
D10*
X00101800Y00156700D02*
X00102400Y03095406D01*
X03023408Y03095006D01*
X03017108Y00158800D01*
X00101800Y00156700D01*
D11*
X00029300Y00446700D02*
X00029300Y01531400D01*
X00048100Y01533200D01*
X00248992Y02872600D02*
X00249017Y02874608D01*
X00249091Y02876614D01*
X00249214Y02878618D01*
X00249386Y02880619D01*
X00249607Y02882614D01*
X00249877Y02884604D01*
X00250196Y02886586D01*
X00250564Y02888560D01*
X00250980Y02890524D01*
X00251444Y02892478D01*
X00251955Y02894419D01*
X00252515Y02896348D01*
X00253121Y02898262D01*
X00253774Y02900160D01*
X00254474Y02902042D01*
X00255219Y02903907D01*
X00256010Y02905752D01*
X00256846Y02907577D01*
X00257727Y02909382D01*
X00258652Y02911164D01*
X00259620Y02912923D01*
X00260631Y02914658D01*
X00261684Y02916367D01*
X00262779Y02918050D01*
X00263915Y02919706D01*
X00265091Y02921333D01*
X00266307Y02922931D01*
X00267562Y02924498D01*
X00268854Y02926035D01*
X00270184Y02927539D01*
X00271551Y02929010D01*
X00272953Y02930447D01*
X00274390Y02931849D01*
X00275861Y02933216D01*
X00277365Y02934546D01*
X00278902Y02935838D01*
X00280469Y02937093D01*
X00282067Y02938309D01*
X00283694Y02939485D01*
X00285350Y02940621D01*
X00287033Y02941716D01*
X00288742Y02942769D01*
X00290477Y02943780D01*
X00292236Y02944748D01*
X00294018Y02945673D01*
X00295823Y02946554D01*
X00297648Y02947390D01*
X00299493Y02948181D01*
X00301358Y02948926D01*
X00303240Y02949626D01*
X00305138Y02950279D01*
X00307052Y02950885D01*
X00308981Y02951445D01*
X00310922Y02951956D01*
X00312876Y02952420D01*
X00314840Y02952836D01*
X00316814Y02953204D01*
X00318796Y02953523D01*
X00320786Y02953793D01*
X00322781Y02954014D01*
X00324782Y02954186D01*
X00326786Y02954309D01*
X00328792Y02954383D01*
X00330800Y02954408D01*
X00332808Y02954383D01*
X00334814Y02954309D01*
X00336818Y02954186D01*
X00338819Y02954014D01*
X00340814Y02953793D01*
X00342804Y02953523D01*
X00344786Y02953204D01*
X00346760Y02952836D01*
X00348724Y02952420D01*
X00350678Y02951956D01*
X00352619Y02951445D01*
X00354548Y02950885D01*
X00356462Y02950279D01*
X00358360Y02949626D01*
X00360242Y02948926D01*
X00362107Y02948181D01*
X00363952Y02947390D01*
X00365777Y02946554D01*
X00367582Y02945673D01*
X00369364Y02944748D01*
X00371123Y02943780D01*
X00372858Y02942769D01*
X00374567Y02941716D01*
X00376250Y02940621D01*
X00377906Y02939485D01*
X00379533Y02938309D01*
X00381131Y02937093D01*
X00382698Y02935838D01*
X00384235Y02934546D01*
X00385739Y02933216D01*
X00387210Y02931849D01*
X00388647Y02930447D01*
X00390049Y02929010D01*
X00391416Y02927539D01*
X00392746Y02926035D01*
X00394038Y02924498D01*
X00395293Y02922931D01*
X00396509Y02921333D01*
X00397685Y02919706D01*
X00398821Y02918050D01*
X00399916Y02916367D01*
X00400969Y02914658D01*
X00401980Y02912923D01*
X00402948Y02911164D01*
X00403873Y02909382D01*
X00404754Y02907577D01*
X00405590Y02905752D01*
X00406381Y02903907D01*
X00407126Y02902042D01*
X00407826Y02900160D01*
X00408479Y02898262D01*
X00409085Y02896348D01*
X00409645Y02894419D01*
X00410156Y02892478D01*
X00410620Y02890524D01*
X00411036Y02888560D01*
X00411404Y02886586D01*
X00411723Y02884604D01*
X00411993Y02882614D01*
X00412214Y02880619D01*
X00412386Y02878618D01*
X00412509Y02876614D01*
X00412583Y02874608D01*
X00412608Y02872600D01*
X00412583Y02870592D01*
X00412509Y02868586D01*
X00412386Y02866582D01*
X00412214Y02864581D01*
X00411993Y02862586D01*
X00411723Y02860596D01*
X00411404Y02858614D01*
X00411036Y02856640D01*
X00410620Y02854676D01*
X00410156Y02852722D01*
X00409645Y02850781D01*
X00409085Y02848852D01*
X00408479Y02846938D01*
X00407826Y02845040D01*
X00407126Y02843158D01*
X00406381Y02841293D01*
X00405590Y02839448D01*
X00404754Y02837623D01*
X00403873Y02835818D01*
X00402948Y02834036D01*
X00401980Y02832277D01*
X00400969Y02830542D01*
X00399916Y02828833D01*
X00398821Y02827150D01*
X00397685Y02825494D01*
X00396509Y02823867D01*
X00395293Y02822269D01*
X00394038Y02820702D01*
X00392746Y02819165D01*
X00391416Y02817661D01*
X00390049Y02816190D01*
X00388647Y02814753D01*
X00387210Y02813351D01*
X00385739Y02811984D01*
X00384235Y02810654D01*
X00382698Y02809362D01*
X00381131Y02808107D01*
X00379533Y02806891D01*
X00377906Y02805715D01*
X00376250Y02804579D01*
X00374567Y02803484D01*
X00372858Y02802431D01*
X00371123Y02801420D01*
X00369364Y02800452D01*
X00367582Y02799527D01*
X00365777Y02798646D01*
X00363952Y02797810D01*
X00362107Y02797019D01*
X00360242Y02796274D01*
X00358360Y02795574D01*
X00356462Y02794921D01*
X00354548Y02794315D01*
X00352619Y02793755D01*
X00350678Y02793244D01*
X00348724Y02792780D01*
X00346760Y02792364D01*
X00344786Y02791996D01*
X00342804Y02791677D01*
X00340814Y02791407D01*
X00338819Y02791186D01*
X00336818Y02791014D01*
X00334814Y02790891D01*
X00332808Y02790817D01*
X00330800Y02790792D01*
X00328792Y02790817D01*
X00326786Y02790891D01*
X00324782Y02791014D01*
X00322781Y02791186D01*
X00320786Y02791407D01*
X00318796Y02791677D01*
X00316814Y02791996D01*
X00314840Y02792364D01*
X00312876Y02792780D01*
X00310922Y02793244D01*
X00308981Y02793755D01*
X00307052Y02794315D01*
X00305138Y02794921D01*
X00303240Y02795574D01*
X00301358Y02796274D01*
X00299493Y02797019D01*
X00297648Y02797810D01*
X00295823Y02798646D01*
X00294018Y02799527D01*
X00292236Y02800452D01*
X00290477Y02801420D01*
X00288742Y02802431D01*
X00287033Y02803484D01*
X00285350Y02804579D01*
X00283694Y02805715D01*
X00282067Y02806891D01*
X00280469Y02808107D01*
X00278902Y02809362D01*
X00277365Y02810654D01*
X00275861Y02811984D01*
X00274390Y02813351D01*
X00272953Y02814753D01*
X00271551Y02816190D01*
X00270184Y02817661D01*
X00268854Y02819165D01*
X00267562Y02820702D01*
X00266307Y02822269D01*
X00265091Y02823867D01*
X00263915Y02825494D01*
X00262779Y02827150D01*
X00261684Y02828833D01*
X00260631Y02830542D01*
X00259620Y02832277D01*
X00258652Y02834036D01*
X00257727Y02835818D01*
X00256846Y02837623D01*
X00256010Y02839448D01*
X00255219Y02841293D01*
X00254474Y02843158D01*
X00253774Y02845040D01*
X00253121Y02846938D01*
X00252515Y02848852D01*
X00251955Y02850781D01*
X00251444Y02852722D01*
X00250980Y02854676D01*
X00250564Y02856640D01*
X00250196Y02858614D01*
X00249877Y02860596D01*
X00249607Y02862586D01*
X00249386Y02864581D01*
X00249214Y02866582D01*
X00249091Y02868586D01*
X00249017Y02870592D01*
X00248992Y02872600D01*
X00956200Y03163500D02*
X02077900Y03163500D01*
X03073900Y01553300D02*
X03073900Y00580200D01*
X03084300Y00569800D01*
X02683792Y00460700D02*
X02683817Y00462708D01*
X02683891Y00464714D01*
X02684014Y00466718D01*
X02684186Y00468719D01*
X02684407Y00470714D01*
X02684677Y00472704D01*
X02684996Y00474686D01*
X02685364Y00476660D01*
X02685780Y00478624D01*
X02686244Y00480578D01*
X02686755Y00482519D01*
X02687315Y00484448D01*
X02687921Y00486362D01*
X02688574Y00488260D01*
X02689274Y00490142D01*
X02690019Y00492007D01*
X02690810Y00493852D01*
X02691646Y00495677D01*
X02692527Y00497482D01*
X02693452Y00499264D01*
X02694420Y00501023D01*
X02695431Y00502758D01*
X02696484Y00504467D01*
X02697579Y00506150D01*
X02698715Y00507806D01*
X02699891Y00509433D01*
X02701107Y00511031D01*
X02702362Y00512598D01*
X02703654Y00514135D01*
X02704984Y00515639D01*
X02706351Y00517110D01*
X02707753Y00518547D01*
X02709190Y00519949D01*
X02710661Y00521316D01*
X02712165Y00522646D01*
X02713702Y00523938D01*
X02715269Y00525193D01*
X02716867Y00526409D01*
X02718494Y00527585D01*
X02720150Y00528721D01*
X02721833Y00529816D01*
X02723542Y00530869D01*
X02725277Y00531880D01*
X02727036Y00532848D01*
X02728818Y00533773D01*
X02730623Y00534654D01*
X02732448Y00535490D01*
X02734293Y00536281D01*
X02736158Y00537026D01*
X02738040Y00537726D01*
X02739938Y00538379D01*
X02741852Y00538985D01*
X02743781Y00539545D01*
X02745722Y00540056D01*
X02747676Y00540520D01*
X02749640Y00540936D01*
X02751614Y00541304D01*
X02753596Y00541623D01*
X02755586Y00541893D01*
X02757581Y00542114D01*
X02759582Y00542286D01*
X02761586Y00542409D01*
X02763592Y00542483D01*
X02765600Y00542508D01*
X02767608Y00542483D01*
X02769614Y00542409D01*
X02771618Y00542286D01*
X02773619Y00542114D01*
X02775614Y00541893D01*
X02777604Y00541623D01*
X02779586Y00541304D01*
X02781560Y00540936D01*
X02783524Y00540520D01*
X02785478Y00540056D01*
X02787419Y00539545D01*
X02789348Y00538985D01*
X02791262Y00538379D01*
X02793160Y00537726D01*
X02795042Y00537026D01*
X02796907Y00536281D01*
X02798752Y00535490D01*
X02800577Y00534654D01*
X02802382Y00533773D01*
X02804164Y00532848D01*
X02805923Y00531880D01*
X02807658Y00530869D01*
X02809367Y00529816D01*
X02811050Y00528721D01*
X02812706Y00527585D01*
X02814333Y00526409D01*
X02815931Y00525193D01*
X02817498Y00523938D01*
X02819035Y00522646D01*
X02820539Y00521316D01*
X02822010Y00519949D01*
X02823447Y00518547D01*
X02824849Y00517110D01*
X02826216Y00515639D01*
X02827546Y00514135D01*
X02828838Y00512598D01*
X02830093Y00511031D01*
X02831309Y00509433D01*
X02832485Y00507806D01*
X02833621Y00506150D01*
X02834716Y00504467D01*
X02835769Y00502758D01*
X02836780Y00501023D01*
X02837748Y00499264D01*
X02838673Y00497482D01*
X02839554Y00495677D01*
X02840390Y00493852D01*
X02841181Y00492007D01*
X02841926Y00490142D01*
X02842626Y00488260D01*
X02843279Y00486362D01*
X02843885Y00484448D01*
X02844445Y00482519D01*
X02844956Y00480578D01*
X02845420Y00478624D01*
X02845836Y00476660D01*
X02846204Y00474686D01*
X02846523Y00472704D01*
X02846793Y00470714D01*
X02847014Y00468719D01*
X02847186Y00466718D01*
X02847309Y00464714D01*
X02847383Y00462708D01*
X02847408Y00460700D01*
X02847383Y00458692D01*
X02847309Y00456686D01*
X02847186Y00454682D01*
X02847014Y00452681D01*
X02846793Y00450686D01*
X02846523Y00448696D01*
X02846204Y00446714D01*
X02845836Y00444740D01*
X02845420Y00442776D01*
X02844956Y00440822D01*
X02844445Y00438881D01*
X02843885Y00436952D01*
X02843279Y00435038D01*
X02842626Y00433140D01*
X02841926Y00431258D01*
X02841181Y00429393D01*
X02840390Y00427548D01*
X02839554Y00425723D01*
X02838673Y00423918D01*
X02837748Y00422136D01*
X02836780Y00420377D01*
X02835769Y00418642D01*
X02834716Y00416933D01*
X02833621Y00415250D01*
X02832485Y00413594D01*
X02831309Y00411967D01*
X02830093Y00410369D01*
X02828838Y00408802D01*
X02827546Y00407265D01*
X02826216Y00405761D01*
X02824849Y00404290D01*
X02823447Y00402853D01*
X02822010Y00401451D01*
X02820539Y00400084D01*
X02819035Y00398754D01*
X02817498Y00397462D01*
X02815931Y00396207D01*
X02814333Y00394991D01*
X02812706Y00393815D01*
X02811050Y00392679D01*
X02809367Y00391584D01*
X02807658Y00390531D01*
X02805923Y00389520D01*
X02804164Y00388552D01*
X02802382Y00387627D01*
X02800577Y00386746D01*
X02798752Y00385910D01*
X02796907Y00385119D01*
X02795042Y00384374D01*
X02793160Y00383674D01*
X02791262Y00383021D01*
X02789348Y00382415D01*
X02787419Y00381855D01*
X02785478Y00381344D01*
X02783524Y00380880D01*
X02781560Y00380464D01*
X02779586Y00380096D01*
X02777604Y00379777D01*
X02775614Y00379507D01*
X02773619Y00379286D01*
X02771618Y00379114D01*
X02769614Y00378991D01*
X02767608Y00378917D01*
X02765600Y00378892D01*
X02763592Y00378917D01*
X02761586Y00378991D01*
X02759582Y00379114D01*
X02757581Y00379286D01*
X02755586Y00379507D01*
X02753596Y00379777D01*
X02751614Y00380096D01*
X02749640Y00380464D01*
X02747676Y00380880D01*
X02745722Y00381344D01*
X02743781Y00381855D01*
X02741852Y00382415D01*
X02739938Y00383021D01*
X02738040Y00383674D01*
X02736158Y00384374D01*
X02734293Y00385119D01*
X02732448Y00385910D01*
X02730623Y00386746D01*
X02728818Y00387627D01*
X02727036Y00388552D01*
X02725277Y00389520D01*
X02723542Y00390531D01*
X02721833Y00391584D01*
X02720150Y00392679D01*
X02718494Y00393815D01*
X02716867Y00394991D01*
X02715269Y00396207D01*
X02713702Y00397462D01*
X02712165Y00398754D01*
X02710661Y00400084D01*
X02709190Y00401451D01*
X02707753Y00402853D01*
X02706351Y00404290D01*
X02704984Y00405761D01*
X02703654Y00407265D01*
X02702362Y00408802D01*
X02701107Y00410369D01*
X02699891Y00411967D01*
X02698715Y00413594D01*
X02697579Y00415250D01*
X02696484Y00416933D01*
X02695431Y00418642D01*
X02694420Y00420377D01*
X02693452Y00422136D01*
X02692527Y00423918D01*
X02691646Y00425723D01*
X02690810Y00427548D01*
X02690019Y00429393D01*
X02689274Y00431258D01*
X02688574Y00433140D01*
X02687921Y00435038D01*
X02687315Y00436952D01*
X02686755Y00438881D01*
X02686244Y00440822D01*
X02685780Y00442776D01*
X02685364Y00444740D01*
X02684996Y00446714D01*
X02684677Y00448696D01*
X02684407Y00450686D01*
X02684186Y00452681D01*
X02684014Y00454682D01*
X02683891Y00456686D01*
X02683817Y00458692D01*
X02683792Y00460700D01*
X02462600Y00052200D02*
X00842800Y00052200D01*
D12*
X00833600Y00557200D02*
X00783600Y00557200D01*
X00758600Y00582200D01*
X00758600Y00632200D01*
X00783600Y00657200D01*
X00833600Y00657200D01*
X00858600Y00632200D01*
X00883600Y00657200D01*
X00933600Y00657200D01*
X00958600Y00632200D01*
X00958600Y00582200D01*
X00933600Y00557200D01*
X00883600Y00557200D01*
X00858600Y00582200D01*
X00833600Y00557200D01*
X00858600Y00582200D02*
X00858600Y00632200D01*
X00958600Y00632200D02*
X00983600Y00657200D01*
X01033600Y00657200D01*
X01058600Y00632200D01*
X01083600Y00657200D01*
X01133600Y00657200D01*
X01158600Y00632200D01*
X01183600Y00657200D01*
X01233600Y00657200D01*
X01258600Y00632200D01*
X01258600Y00582200D01*
X01233600Y00557200D01*
X01183600Y00557200D01*
X01158600Y00582200D01*
X01133600Y00557200D01*
X01083600Y00557200D01*
X01058600Y00582200D01*
X01033600Y00557200D01*
X00983600Y00557200D01*
X00958600Y00582200D01*
X01058600Y00582200D02*
X01058600Y00632200D01*
X01158600Y00632200D02*
X01158600Y00582200D01*
X01238837Y01425400D02*
X01238837Y01459429D01*
X01255852Y01459429D01*
X01261523Y01453758D01*
X01261523Y01442415D01*
X01255852Y01436743D01*
X01238837Y01436743D01*
X01250180Y01436743D02*
X01261523Y01425400D01*
X01275669Y01425400D02*
X01298355Y01448086D01*
X01298355Y01453758D01*
X01292683Y01459429D01*
X01281340Y01459429D01*
X01275669Y01453758D01*
X01275669Y01425400D02*
X01298355Y01425400D01*
X01450371Y01488006D02*
X01478728Y01488006D01*
X01484400Y01493677D01*
X01484400Y01505020D01*
X01478728Y01510692D01*
X01450371Y01510692D01*
X01456042Y01524837D02*
X01450371Y01530509D01*
X01450371Y01541852D01*
X01456042Y01547523D01*
X01467385Y01541852D02*
X01467385Y01530509D01*
X01461714Y01524837D01*
X01456042Y01524837D01*
X01444699Y01536180D02*
X01490071Y01536180D01*
X01484400Y01530509D02*
X01484400Y01541852D01*
X01478728Y01547523D01*
X01473057Y01547523D01*
X01467385Y01541852D01*
X01478728Y01524837D02*
X01484400Y01530509D01*
X01484400Y01561669D02*
X01484400Y01584355D01*
X01484400Y01573012D02*
X01450371Y01573012D01*
X01461714Y01561669D01*
X01374808Y01708208D02*
X01374808Y01970216D01*
X01388784Y01984192D01*
X01650792Y01984192D01*
X01650792Y01708208D01*
X01374808Y01708208D01*
X01390658Y01954200D02*
X01390662Y01954547D01*
X01390675Y01954894D01*
X01390696Y01955240D01*
X01390726Y01955586D01*
X01390764Y01955931D01*
X01390811Y01956275D01*
X01390866Y01956618D01*
X01390930Y01956959D01*
X01391002Y01957299D01*
X01391082Y01957636D01*
X01391170Y01957972D01*
X01391267Y01958305D01*
X01391372Y01958636D01*
X01391485Y01958964D01*
X01391606Y01959290D01*
X01391734Y01959612D01*
X01391871Y01959931D01*
X01392016Y01960246D01*
X01392168Y01960558D01*
X01392328Y01960866D01*
X01392495Y01961171D01*
X01392670Y01961470D01*
X01392852Y01961766D01*
X01393041Y01962057D01*
X01393238Y01962343D01*
X01393441Y01962624D01*
X01393651Y01962901D01*
X01393868Y01963172D01*
X01394092Y01963437D01*
X01394321Y01963697D01*
X01394558Y01963951D01*
X01394800Y01964200D01*
X01395049Y01964442D01*
X01395303Y01964679D01*
X01395563Y01964908D01*
X01395828Y01965132D01*
X01396099Y01965349D01*
X01396376Y01965559D01*
X01396657Y01965762D01*
X01396943Y01965959D01*
X01397234Y01966148D01*
X01397530Y01966330D01*
X01397829Y01966505D01*
X01398134Y01966672D01*
X01398442Y01966832D01*
X01398754Y01966984D01*
X01399069Y01967129D01*
X01399388Y01967266D01*
X01399710Y01967394D01*
X01400036Y01967515D01*
X01400364Y01967628D01*
X01400695Y01967733D01*
X01401028Y01967830D01*
X01401364Y01967918D01*
X01401701Y01967998D01*
X01402041Y01968070D01*
X01402382Y01968134D01*
X01402725Y01968189D01*
X01403069Y01968236D01*
X01403414Y01968274D01*
X01403760Y01968304D01*
X01404106Y01968325D01*
X01404453Y01968338D01*
X01404800Y01968342D01*
X01405147Y01968338D01*
X01405494Y01968325D01*
X01405840Y01968304D01*
X01406186Y01968274D01*
X01406531Y01968236D01*
X01406875Y01968189D01*
X01407218Y01968134D01*
X01407559Y01968070D01*
X01407899Y01967998D01*
X01408236Y01967918D01*
X01408572Y01967830D01*
X01408905Y01967733D01*
X01409236Y01967628D01*
X01409564Y01967515D01*
X01409890Y01967394D01*
X01410212Y01967266D01*
X01410531Y01967129D01*
X01410846Y01966984D01*
X01411158Y01966832D01*
X01411466Y01966672D01*
X01411771Y01966505D01*
X01412070Y01966330D01*
X01412366Y01966148D01*
X01412657Y01965959D01*
X01412943Y01965762D01*
X01413224Y01965559D01*
X01413501Y01965349D01*
X01413772Y01965132D01*
X01414037Y01964908D01*
X01414297Y01964679D01*
X01414551Y01964442D01*
X01414800Y01964200D01*
X01415042Y01963951D01*
X01415279Y01963697D01*
X01415508Y01963437D01*
X01415732Y01963172D01*
X01415949Y01962901D01*
X01416159Y01962624D01*
X01416362Y01962343D01*
X01416559Y01962057D01*
X01416748Y01961766D01*
X01416930Y01961470D01*
X01417105Y01961171D01*
X01417272Y01960866D01*
X01417432Y01960558D01*
X01417584Y01960246D01*
X01417729Y01959931D01*
X01417866Y01959612D01*
X01417994Y01959290D01*
X01418115Y01958964D01*
X01418228Y01958636D01*
X01418333Y01958305D01*
X01418430Y01957972D01*
X01418518Y01957636D01*
X01418598Y01957299D01*
X01418670Y01956959D01*
X01418734Y01956618D01*
X01418789Y01956275D01*
X01418836Y01955931D01*
X01418874Y01955586D01*
X01418904Y01955240D01*
X01418925Y01954894D01*
X01418938Y01954547D01*
X01418942Y01954200D01*
X01418938Y01953853D01*
X01418925Y01953506D01*
X01418904Y01953160D01*
X01418874Y01952814D01*
X01418836Y01952469D01*
X01418789Y01952125D01*
X01418734Y01951782D01*
X01418670Y01951441D01*
X01418598Y01951101D01*
X01418518Y01950764D01*
X01418430Y01950428D01*
X01418333Y01950095D01*
X01418228Y01949764D01*
X01418115Y01949436D01*
X01417994Y01949110D01*
X01417866Y01948788D01*
X01417729Y01948469D01*
X01417584Y01948154D01*
X01417432Y01947842D01*
X01417272Y01947534D01*
X01417105Y01947229D01*
X01416930Y01946930D01*
X01416748Y01946634D01*
X01416559Y01946343D01*
X01416362Y01946057D01*
X01416159Y01945776D01*
X01415949Y01945499D01*
X01415732Y01945228D01*
X01415508Y01944963D01*
X01415279Y01944703D01*
X01415042Y01944449D01*
X01414800Y01944200D01*
X01414551Y01943958D01*
X01414297Y01943721D01*
X01414037Y01943492D01*
X01413772Y01943268D01*
X01413501Y01943051D01*
X01413224Y01942841D01*
X01412943Y01942638D01*
X01412657Y01942441D01*
X01412366Y01942252D01*
X01412070Y01942070D01*
X01411771Y01941895D01*
X01411466Y01941728D01*
X01411158Y01941568D01*
X01410846Y01941416D01*
X01410531Y01941271D01*
X01410212Y01941134D01*
X01409890Y01941006D01*
X01409564Y01940885D01*
X01409236Y01940772D01*
X01408905Y01940667D01*
X01408572Y01940570D01*
X01408236Y01940482D01*
X01407899Y01940402D01*
X01407559Y01940330D01*
X01407218Y01940266D01*
X01406875Y01940211D01*
X01406531Y01940164D01*
X01406186Y01940126D01*
X01405840Y01940096D01*
X01405494Y01940075D01*
X01405147Y01940062D01*
X01404800Y01940058D01*
X01404453Y01940062D01*
X01404106Y01940075D01*
X01403760Y01940096D01*
X01403414Y01940126D01*
X01403069Y01940164D01*
X01402725Y01940211D01*
X01402382Y01940266D01*
X01402041Y01940330D01*
X01401701Y01940402D01*
X01401364Y01940482D01*
X01401028Y01940570D01*
X01400695Y01940667D01*
X01400364Y01940772D01*
X01400036Y01940885D01*
X01399710Y01941006D01*
X01399388Y01941134D01*
X01399069Y01941271D01*
X01398754Y01941416D01*
X01398442Y01941568D01*
X01398134Y01941728D01*
X01397829Y01941895D01*
X01397530Y01942070D01*
X01397234Y01942252D01*
X01396943Y01942441D01*
X01396657Y01942638D01*
X01396376Y01942841D01*
X01396099Y01943051D01*
X01395828Y01943268D01*
X01395563Y01943492D01*
X01395303Y01943721D01*
X01395049Y01943958D01*
X01394800Y01944200D01*
X01394558Y01944449D01*
X01394321Y01944703D01*
X01394092Y01944963D01*
X01393868Y01945228D01*
X01393651Y01945499D01*
X01393441Y01945776D01*
X01393238Y01946057D01*
X01393041Y01946343D01*
X01392852Y01946634D01*
X01392670Y01946930D01*
X01392495Y01947229D01*
X01392328Y01947534D01*
X01392168Y01947842D01*
X01392016Y01948154D01*
X01391871Y01948469D01*
X01391734Y01948788D01*
X01391606Y01949110D01*
X01391485Y01949436D01*
X01391372Y01949764D01*
X01391267Y01950095D01*
X01391170Y01950428D01*
X01391082Y01950764D01*
X01391002Y01951101D01*
X01390930Y01951441D01*
X01390866Y01951782D01*
X01390811Y01952125D01*
X01390764Y01952469D01*
X01390726Y01952814D01*
X01390696Y01953160D01*
X01390675Y01953506D01*
X01390662Y01953853D01*
X01390658Y01954200D01*
X01324000Y02333900D02*
X01274000Y02333900D01*
X01249000Y02358900D01*
X01249000Y02408900D01*
X01274000Y02433900D01*
X01249000Y02458900D01*
X01249000Y02508900D01*
X01274000Y02533900D01*
X01324000Y02533900D01*
X01349000Y02508900D01*
X01349000Y02458900D01*
X01324000Y02433900D01*
X01349000Y02408900D01*
X01349000Y02358900D01*
X01324000Y02333900D01*
X01324000Y02433900D02*
X01274000Y02433900D01*
X01274000Y02533900D02*
X01249000Y02558900D01*
X01249000Y02608900D01*
X01274000Y02633900D01*
X01249000Y02658900D01*
X01249000Y02708900D01*
X01274000Y02733900D01*
X01249000Y02758900D01*
X01249000Y02808900D01*
X01274000Y02833900D01*
X01324000Y02833900D01*
X01349000Y02808900D01*
X01349000Y02758900D01*
X01324000Y02733900D01*
X01349000Y02708900D01*
X01349000Y02658900D01*
X01324000Y02633900D01*
X01349000Y02608900D01*
X01349000Y02558900D01*
X01324000Y02533900D01*
X01324000Y02633900D02*
X01274000Y02633900D01*
X01274000Y02733900D02*
X01324000Y02733900D01*
X00926400Y02086700D02*
X00876400Y02086700D01*
X00851400Y02061700D01*
X00826400Y02086700D01*
X00776400Y02086700D01*
X00751400Y02061700D01*
X00751400Y02011700D01*
X00776400Y01986700D01*
X00826400Y01986700D01*
X00851400Y02011700D01*
X00851400Y02061700D01*
X00851400Y02011700D02*
X00876400Y01986700D01*
X00926400Y01986700D01*
X00951400Y02011700D01*
X00951400Y02061700D01*
X00926400Y02086700D01*
X00855200Y01592900D02*
X00807200Y01592900D01*
X00807200Y01522900D02*
X00855200Y01522900D01*
X01015300Y01522900D02*
X01063300Y01522900D01*
X01063300Y01592900D02*
X01015300Y01592900D01*
X02038600Y01584200D02*
X02038600Y01634200D01*
X02063600Y01659200D01*
X02038600Y01684200D01*
X02038600Y01734200D01*
X02063600Y01759200D01*
X02038600Y01784200D01*
X02038600Y01834200D01*
X02063600Y01859200D01*
X02038600Y01884200D01*
X02038600Y01934200D01*
X02063600Y01959200D01*
X02038600Y01984200D01*
X02038600Y02034200D01*
X02063600Y02059200D01*
X02113600Y02059200D01*
X02138600Y02034200D01*
X02138600Y01984200D01*
X02113600Y01959200D01*
X02138600Y01934200D01*
X02138600Y01884200D01*
X02113600Y01859200D01*
X02063600Y01859200D01*
X02113600Y01859200D02*
X02138600Y01834200D01*
X02138600Y01784200D01*
X02113600Y01759200D01*
X02138600Y01734200D01*
X02138600Y01684200D01*
X02113600Y01659200D01*
X02138600Y01634200D01*
X02138600Y01584200D01*
X02113600Y01559200D01*
X02063600Y01559200D01*
X02038600Y01584200D01*
X02063600Y01659200D02*
X02113600Y01659200D01*
X02113600Y01759200D02*
X02063600Y01759200D01*
X02063600Y01959200D02*
X02113600Y01959200D01*
X02283900Y01971971D02*
X02289571Y01966300D01*
X02300914Y01966300D01*
X02306586Y01971971D01*
X02306586Y02000329D01*
X02320731Y01994657D02*
X02326403Y02000329D01*
X02337746Y02000329D01*
X02343417Y01994657D01*
X02337746Y01983314D02*
X02326403Y01983314D01*
X02320731Y01988986D01*
X02320731Y01994657D01*
X02332074Y02006000D02*
X02332074Y01960628D01*
X02326403Y01966300D02*
X02337746Y01966300D01*
X02343417Y01971971D01*
X02343417Y01977643D01*
X02337746Y01983314D01*
X02326403Y01966300D02*
X02320731Y01971971D01*
X02283900Y01971971D02*
X02283900Y02000329D01*
X02357563Y01994657D02*
X02363234Y02000329D01*
X02374577Y02000329D01*
X02380249Y01994657D01*
X02380249Y01988986D01*
X02374577Y01983314D01*
X02380249Y01977643D01*
X02380249Y01971971D01*
X02374577Y01966300D01*
X02363234Y01966300D01*
X02357563Y01971971D01*
X02368906Y01983314D02*
X02374577Y01983314D01*
X02565571Y01923683D02*
X02582585Y01906669D01*
X02582585Y01929355D01*
X02565571Y01923683D02*
X02599600Y01923683D01*
X02599600Y01892523D02*
X02588257Y01881180D01*
X02588257Y01886852D02*
X02588257Y01869837D01*
X02599600Y01869837D02*
X02565571Y01869837D01*
X02565571Y01886852D01*
X02571242Y01892523D01*
X02582585Y01892523D01*
X02588257Y01886852D01*
X02469700Y02796600D02*
X02419700Y02796600D01*
X02394700Y02821600D01*
X02369700Y02796600D01*
X02319700Y02796600D01*
X02294700Y02821600D01*
X02294700Y02871600D01*
X02319700Y02896600D01*
X02369700Y02896600D01*
X02394700Y02871600D01*
X02419700Y02896600D01*
X02469700Y02896600D01*
X02494700Y02871600D01*
X02494700Y02821600D01*
X02469700Y02796600D01*
X02394700Y02821600D02*
X02394700Y02871600D01*
X02294700Y02871600D02*
X02269700Y02896600D01*
X02219700Y02896600D01*
X02194700Y02871600D01*
X02169700Y02896600D01*
X02119700Y02896600D01*
X02094700Y02871600D01*
X02069700Y02896600D01*
X02019700Y02896600D01*
X01994700Y02871600D01*
X01994700Y02821600D01*
X02019700Y02796600D01*
X02069700Y02796600D01*
X02094700Y02821600D01*
X02094700Y02871600D01*
X02094700Y02821600D02*
X02119700Y02796600D01*
X02169700Y02796600D01*
X02194700Y02821600D01*
X02194700Y02871600D01*
X02194700Y02821600D02*
X02219700Y02796600D01*
X02269700Y02796600D01*
X02294700Y02821600D01*
D13*
X01532689Y02071887D02*
X01527851Y02076725D01*
X01518176Y02076725D01*
X01513339Y02071887D01*
X01513339Y02052537D01*
X01518176Y02047700D01*
X01527851Y02047700D01*
X01532689Y02052537D01*
X01532689Y02071887D01*
X01503223Y02071887D02*
X01503223Y02062212D01*
X01498386Y02057375D01*
X01483874Y02057375D01*
X01493548Y02057375D02*
X01503223Y02047700D01*
X01483874Y02047700D02*
X01483874Y02076725D01*
X01498386Y02076725D01*
X01503223Y02071887D01*
X01473758Y02071887D02*
X01468921Y02076725D01*
X01459246Y02076725D01*
X01454408Y02071887D01*
X01454408Y02052537D01*
X01459246Y02047700D01*
X01468921Y02047700D01*
X01473758Y02052537D01*
X01444440Y02047700D02*
X01434765Y02047700D01*
X01439602Y02047700D02*
X01439602Y02076725D01*
X01434765Y02076725D02*
X01444440Y02076725D01*
X01424650Y02076725D02*
X01424650Y02047700D01*
X01405300Y02047700D02*
X01405300Y02076725D01*
X01414975Y02067050D01*
X01424650Y02076725D01*
D14*
X00645700Y01892741D02*
X00645700Y01882732D01*
X00645700Y01878008D02*
X00640695Y01873004D01*
X00640695Y01875506D02*
X00640695Y01868000D01*
X00645700Y01868000D02*
X00630687Y01868000D01*
X00630687Y01875506D01*
X00633189Y01878008D01*
X00638193Y01878008D01*
X00640695Y01875506D01*
X00635691Y01882732D02*
X00630687Y01887737D01*
X00645700Y01887737D01*
X02301700Y01862711D02*
X02301700Y01852702D01*
X02304202Y01850200D01*
X02309206Y01850200D01*
X02311708Y01852702D01*
X02316432Y01857706D02*
X02326441Y01857706D01*
X02323939Y01850200D02*
X02323939Y01865213D01*
X02316432Y01857706D01*
X02311708Y01862711D02*
X02309206Y01865213D01*
X02304202Y01865213D01*
X02301700Y01862711D01*
X02305902Y01768613D02*
X02303400Y01766110D01*
X02303400Y01756102D01*
X02305902Y01753600D01*
X02310906Y01753600D01*
X02313408Y01756102D01*
X02318132Y01756102D02*
X02320634Y01753600D01*
X02325639Y01753600D01*
X02328141Y01756102D01*
X02328141Y01761106D01*
X02325639Y01763608D01*
X02323136Y01763608D01*
X02318132Y01761106D01*
X02318132Y01768613D01*
X02328141Y01768613D01*
X02313408Y01766110D02*
X02310906Y01768613D01*
X02305902Y01768613D01*
X02307602Y01669513D02*
X02305100Y01667010D01*
X02305100Y01657002D01*
X02307602Y01654500D01*
X02312606Y01654500D01*
X02315108Y01657002D01*
X02319832Y01657002D02*
X02322334Y01654500D01*
X02327339Y01654500D01*
X02329841Y01657002D01*
X02329841Y01659504D01*
X02327339Y01662006D01*
X02324836Y01662006D01*
X02327339Y01662006D02*
X02329841Y01664508D01*
X02329841Y01667010D01*
X02327339Y01669513D01*
X02322334Y01669513D01*
X02319832Y01667010D01*
X02315108Y01667010D02*
X02312606Y01669513D01*
X02307602Y01669513D01*
X02523887Y01193237D02*
X02538900Y01193237D01*
X02538900Y01188233D02*
X02538900Y01198241D01*
X02528892Y01188233D02*
X02523887Y01193237D01*
X02526390Y01183508D02*
X02523887Y01181006D01*
X02523887Y01176002D01*
X02526390Y01173500D01*
X02536398Y01173500D01*
X02538900Y01176002D01*
X02538900Y01181006D01*
X02536398Y01183508D01*
X02633287Y01181606D02*
X02633287Y01176602D01*
X02635789Y01174100D01*
X02645798Y01174100D01*
X02648300Y01176602D01*
X02648300Y01181606D01*
X02645798Y01184109D01*
X02645798Y01188833D02*
X02648300Y01188833D01*
X02645798Y01188833D02*
X02635789Y01198841D01*
X02633287Y01198841D01*
X02633287Y01188833D01*
X02635789Y01184109D02*
X02633287Y01181606D01*
X02739587Y01181606D02*
X02739587Y01176602D01*
X02742089Y01174100D01*
X02752098Y01174100D01*
X02754600Y01176602D01*
X02754600Y01181606D01*
X02752098Y01184109D01*
X02752098Y01188833D02*
X02749596Y01188833D01*
X02747094Y01191335D01*
X02747094Y01196339D01*
X02749596Y01198841D01*
X02752098Y01198841D01*
X02754600Y01196339D01*
X02754600Y01191335D01*
X02752098Y01188833D01*
X02747094Y01191335D02*
X02744592Y01188833D01*
X02742089Y01188833D01*
X02739587Y01191335D01*
X02739587Y01196339D01*
X02742089Y01198841D01*
X02744592Y01198841D01*
X02747094Y01196339D01*
X02742089Y01184109D02*
X02739587Y01181606D01*
D15*
X01939600Y01190612D02*
X01939600Y01205959D01*
X01931927Y01213632D01*
X01901234Y01213632D01*
X01893561Y01205959D01*
X01893561Y01190612D01*
X01901234Y01182939D01*
X01931927Y01182939D01*
X01939600Y01190612D01*
X01916580Y01167593D02*
X01924253Y01159920D01*
X01924253Y01136900D01*
X01939600Y01136900D02*
X01893561Y01136900D01*
X01893561Y01159920D01*
X01901234Y01167593D01*
X01916580Y01167593D01*
X01893561Y01228978D02*
X01939600Y01228978D01*
X01924253Y01244325D01*
X01939600Y01259671D01*
X01893561Y01259671D01*
X01893561Y01275018D02*
X01939600Y01275018D01*
X01939600Y01305711D01*
X01939600Y01321057D02*
X01893561Y01321057D01*
X01893561Y01344077D01*
X01901234Y01351750D01*
X01916580Y01351750D01*
X01924253Y01344077D01*
X01924253Y01321057D01*
X01924253Y01336403D02*
X01939600Y01351750D01*
X01893561Y01305711D02*
X01893561Y01275018D01*
X01916580Y01275018D02*
X01916580Y01290364D01*
X01669400Y01166280D02*
X01669400Y01150934D01*
X01661727Y01143261D01*
X01654054Y01143261D01*
X01646380Y01150934D01*
X01646380Y01166280D01*
X01654054Y01173953D01*
X01661727Y01173953D01*
X01669400Y01166280D01*
X01646380Y01166280D02*
X01638707Y01173953D01*
X01631034Y01173953D01*
X01623361Y01166280D01*
X01623361Y01150934D01*
X01631034Y01143261D01*
X01638707Y01143261D01*
X01646380Y01150934D01*
X01623361Y01127914D02*
X01623361Y01097221D01*
X01623361Y01112568D02*
X01669400Y01112568D01*
X01349900Y01112868D02*
X01303861Y01112868D01*
X01303861Y01128214D02*
X01303861Y01097521D01*
X01303861Y01143561D02*
X01303861Y01174253D01*
X01311534Y01174253D01*
X01342227Y01143561D01*
X01349900Y01143561D01*
X01031400Y01151434D02*
X01031400Y01166780D01*
X01023727Y01174453D01*
X01016054Y01174453D01*
X01008380Y01166780D01*
X01008380Y01143760D01*
X01023727Y01143760D01*
X01031400Y01151434D01*
X01008380Y01143760D02*
X00993034Y01159107D01*
X00985361Y01174453D01*
X00985361Y01128414D02*
X00985361Y01097721D01*
X00985361Y01113068D02*
X01031400Y01113068D01*
X00711500Y01112867D02*
X00665461Y01112867D01*
X00665461Y01097521D02*
X00665461Y01128214D01*
X00665461Y01143560D02*
X00688481Y01143560D01*
X00680807Y01158907D01*
X00680807Y01166580D01*
X00688481Y01174253D01*
X00703827Y01174253D01*
X00711500Y01166580D01*
X00711500Y01151234D01*
X00703827Y01143560D01*
X00665461Y01143560D02*
X00665461Y01174253D01*
X00610753Y01410900D02*
X00580061Y01410900D01*
X00610753Y01441593D01*
X00610753Y01449266D01*
X00603080Y01456939D01*
X00587734Y01456939D01*
X00580061Y01449266D01*
X00564714Y01449266D02*
X00557041Y01456939D01*
X00541694Y01456939D01*
X00534021Y01449266D01*
X00534021Y01441593D01*
X00541694Y01433920D01*
X00557041Y01433920D01*
X00564714Y01426246D01*
X00564714Y01418573D01*
X00557041Y01410900D01*
X00541694Y01410900D01*
X00534021Y01418573D01*
X00518675Y01418573D02*
X00518675Y01456939D01*
X00487982Y01456939D02*
X00487982Y01418573D01*
X00495655Y01410900D01*
X00511002Y01410900D01*
X00518675Y01418573D01*
X00549368Y01403227D02*
X00549368Y01464613D01*
X00967071Y01571833D02*
X00974744Y01564160D01*
X00990090Y01564160D01*
X00997764Y01571833D01*
X01013110Y01579506D02*
X01036130Y01579506D01*
X01043803Y01587179D01*
X01043803Y01602526D01*
X01036130Y01610199D01*
X01013110Y01610199D01*
X01013110Y01564160D01*
X01028456Y01579506D02*
X01043803Y01564160D01*
X01074496Y01564160D02*
X01074496Y01587179D01*
X01089842Y01602526D01*
X01089842Y01610199D01*
X01105189Y01602526D02*
X01105189Y01594853D01*
X01112862Y01587179D01*
X01128208Y01587179D01*
X01135881Y01579506D01*
X01135881Y01571833D01*
X01128208Y01564160D01*
X01112862Y01564160D01*
X01105189Y01571833D01*
X01105189Y01602526D02*
X01112862Y01610199D01*
X01128208Y01610199D01*
X01135881Y01602526D01*
X01151228Y01610199D02*
X01181921Y01610199D01*
X01166574Y01610199D02*
X01166574Y01564160D01*
X01197267Y01564160D02*
X01197267Y01594853D01*
X01212613Y01610199D01*
X01227960Y01594853D01*
X01227960Y01564160D01*
X01243306Y01564160D02*
X01273999Y01564160D01*
X01243306Y01564160D02*
X01243306Y01610199D01*
X01227960Y01587179D02*
X01197267Y01587179D01*
X01074496Y01587179D02*
X01059149Y01602526D01*
X01059149Y01610199D01*
X00997764Y01602526D02*
X00990090Y01610199D01*
X00974744Y01610199D01*
X00967071Y01602526D01*
X00967071Y01571833D01*
X01532161Y02307500D02*
X01532161Y02338193D01*
X01532161Y02322846D02*
X01578200Y02322846D01*
X01555180Y02353539D02*
X01555180Y02384232D01*
X01532161Y02376559D02*
X01555180Y02353539D01*
X01532161Y02376559D02*
X01578200Y02376559D01*
X01853961Y02376659D02*
X01853961Y02361312D01*
X01861634Y02353639D01*
X01853961Y02338293D02*
X01853961Y02307600D01*
X01853961Y02322946D02*
X01900000Y02322946D01*
X01892327Y02353639D02*
X01900000Y02361312D01*
X01900000Y02376659D01*
X01892327Y02384332D01*
X01884654Y02384332D01*
X01876980Y02376659D01*
X01876980Y02368985D01*
X01876980Y02376659D02*
X01869307Y02384332D01*
X01861634Y02384332D01*
X01853961Y02376659D01*
X02178261Y02376859D02*
X02178261Y02361512D01*
X02185934Y02353839D01*
X02178261Y02338493D02*
X02178261Y02307800D01*
X02178261Y02323146D02*
X02224300Y02323146D01*
X02224300Y02353839D02*
X02193607Y02384532D01*
X02185934Y02384532D01*
X02178261Y02376859D01*
X02224300Y02384532D02*
X02224300Y02353839D01*
X02500661Y02338493D02*
X02500661Y02307800D01*
X02500661Y02323146D02*
X02546700Y02323146D01*
X02546700Y02353839D02*
X02546700Y02384532D01*
X02546700Y02369186D02*
X02500661Y02369186D01*
X02516007Y02353839D01*
D16*
X02208100Y02041179D02*
X02208100Y02026166D01*
X02200594Y02018659D01*
X02185581Y02026166D02*
X02185581Y02041179D01*
X02193087Y02048685D01*
X02200594Y02048685D01*
X02208100Y02041179D01*
X02185581Y02026166D02*
X02178074Y02018659D01*
X02170568Y02018659D01*
X02163062Y02026166D01*
X02163062Y02041179D01*
X02170568Y02048685D01*
X02170568Y02002646D02*
X02185581Y02002646D01*
X02193087Y01995139D01*
X02193087Y01972620D01*
X02208100Y01972620D02*
X02163062Y01972620D01*
X02163062Y01995139D01*
X02170568Y02002646D01*
X02193087Y01987633D02*
X02208100Y02002646D01*
X02200594Y01956606D02*
X02170568Y01956606D01*
X02163062Y01949100D01*
X02163062Y01934087D01*
X02170568Y01926581D01*
X02200594Y01926581D01*
X02208100Y01934087D01*
X02208100Y01949100D01*
X02200594Y01956606D01*
X02200594Y01910567D02*
X02208100Y01903061D01*
X02208100Y01888048D01*
X02200594Y01880542D01*
X02185581Y01888048D02*
X02185581Y01903061D01*
X02193087Y01910567D01*
X02200594Y01910567D01*
X02185581Y01888048D02*
X02178074Y01880542D01*
X02170568Y01880542D01*
X02163062Y01888048D01*
X02163062Y01903061D01*
X02170568Y01910567D01*
X02163062Y01864528D02*
X02208100Y01864528D01*
X02163062Y01834502D01*
X02208100Y01834502D01*
X02208100Y01818489D02*
X02208100Y01788463D01*
X02163062Y01788463D01*
X02163062Y01818489D01*
X02185581Y01803476D02*
X02185581Y01788463D01*
X02193087Y01772449D02*
X02200594Y01772449D01*
X02208100Y01764943D01*
X02208100Y01749930D01*
X02200594Y01742424D01*
X02185581Y01749930D02*
X02185581Y01764943D01*
X02193087Y01772449D01*
X02170568Y01772449D02*
X02163062Y01764943D01*
X02163062Y01749930D01*
X02170568Y01742424D01*
X02178074Y01742424D01*
X02185581Y01749930D01*
X02163062Y01726410D02*
X02163062Y01696385D01*
X02163062Y01711397D02*
X02208100Y01711397D01*
X02208100Y01680371D02*
X02163062Y01680371D01*
X02185581Y01680371D02*
X02185581Y01650345D01*
X02185581Y01634332D02*
X02185581Y01619319D01*
X02185581Y01634332D02*
X02200594Y01634332D01*
X02208100Y01626825D01*
X02208100Y01611813D01*
X02200594Y01604306D01*
X02170568Y01604306D01*
X02163062Y01611813D01*
X02163062Y01626825D01*
X02170568Y01634332D01*
X02163062Y01650345D02*
X02208100Y01650345D01*
X02208100Y01588626D02*
X02208100Y01573613D01*
X02208100Y01581120D02*
X02163062Y01581120D01*
X02163062Y01588626D02*
X02163062Y01573613D01*
X02163062Y01527574D02*
X02208100Y01527574D01*
X02208100Y01557600D01*
X02472600Y01790500D02*
X02472600Y01950500D01*
X02552600Y01950500D01*
X02552600Y01790500D01*
X02472600Y01790500D01*
X02430900Y01873300D02*
X02270900Y01873300D01*
X02270900Y01953300D01*
X02430900Y01953300D01*
X02430900Y01873300D01*
X02438146Y02727100D02*
X02423134Y02742113D01*
X02430640Y02742113D02*
X02408121Y02742113D01*
X02408121Y02727100D02*
X02408121Y02772138D01*
X02430640Y02772138D01*
X02438146Y02764632D01*
X02438146Y02749619D01*
X02430640Y02742113D01*
X02454160Y02757126D02*
X02469173Y02772138D01*
X02469173Y02727100D01*
X02454160Y02727100D02*
X02484186Y02727100D01*
X02392107Y02734606D02*
X02392107Y02764632D01*
X02384601Y02772138D01*
X02369588Y02772138D01*
X02362082Y02764632D01*
X02362082Y02734606D01*
X02369588Y02727100D01*
X02384601Y02727100D01*
X02392107Y02734606D01*
X02346068Y02772138D02*
X02316042Y02772138D01*
X02331055Y02772138D02*
X02331055Y02727100D01*
X02300029Y02734606D02*
X02300029Y02764632D01*
X02292522Y02772138D01*
X02277509Y02772138D01*
X02270003Y02764632D01*
X02270003Y02734606D01*
X02277509Y02727100D01*
X02292522Y02727100D01*
X02300029Y02734606D01*
X02253989Y02727100D02*
X02253989Y02772138D01*
X02238977Y02757126D01*
X02223964Y02772138D01*
X02223964Y02727100D01*
X01224500Y02685700D02*
X01224500Y02655675D01*
X01179462Y02655675D01*
X01179462Y02609635D02*
X01224500Y02609635D01*
X01224500Y02639661D01*
X01224500Y02593622D02*
X01224500Y02563596D01*
X01179462Y02563596D01*
X01179462Y02593622D01*
X01201981Y02578609D02*
X01201981Y02563596D01*
X01216994Y02547583D02*
X01224500Y02540076D01*
X01224500Y02525063D01*
X01216994Y02517557D01*
X01186968Y02517557D01*
X01179462Y02525063D01*
X01179462Y02540076D01*
X01186968Y02547583D01*
X01186968Y02501543D02*
X01179462Y02494037D01*
X01179462Y02471518D01*
X01224500Y02471518D01*
X01224500Y02494037D01*
X01216994Y02501543D01*
X01186968Y02501543D01*
X01194474Y02455504D02*
X01179462Y02440491D01*
X01194474Y02425478D01*
X01224500Y02425478D01*
X01216994Y02409465D02*
X01186968Y02409465D01*
X01179462Y02401958D01*
X01179462Y02386946D01*
X01186968Y02379439D01*
X01216994Y02379439D01*
X01224500Y02386946D01*
X01224500Y02401958D01*
X01216994Y02409465D01*
X01201981Y02425478D02*
X01201981Y02455504D01*
X01194474Y02455504D02*
X01224500Y02455504D01*
X01224500Y02363426D02*
X01224500Y02333400D01*
X01179462Y02333400D01*
X00933379Y01962238D02*
X00918366Y01962238D01*
X00910860Y01954732D01*
X00910860Y01947225D01*
X00918366Y01939719D01*
X00933379Y01939719D01*
X00940886Y01932213D01*
X00940886Y01924706D01*
X00933379Y01917200D01*
X00918366Y01917200D01*
X00910860Y01924706D01*
X00894846Y01924706D02*
X00894846Y01954732D01*
X00887340Y01962238D01*
X00864821Y01962238D01*
X00864821Y01917200D01*
X00887340Y01917200D01*
X00894846Y01924706D01*
X00933379Y01962238D02*
X00940886Y01954732D01*
X00848807Y01962238D02*
X00818781Y01962238D01*
X00818781Y01917200D01*
X00848807Y01917200D01*
X00833794Y01939719D02*
X00818781Y01939719D01*
X00802768Y01917200D02*
X00772742Y01917200D01*
X00772742Y01962238D01*
X00756729Y01954732D02*
X00756729Y01939719D01*
X00749222Y01932213D01*
X00726703Y01932213D01*
X00741716Y01932213D02*
X00756729Y01917200D01*
X00726703Y01917200D02*
X00726703Y01962238D01*
X00749222Y01962238D01*
X00756729Y01954732D01*
X00711023Y01962238D02*
X00696010Y01962238D01*
X00703517Y01962238D02*
X00703517Y01917200D01*
X00711023Y01917200D02*
X00696010Y01917200D01*
X01159500Y01552400D02*
X01159500Y01472400D01*
X01319500Y01472400D01*
X01319500Y01552400D01*
X01159500Y01552400D01*
X01357400Y01605500D02*
X01357400Y01445500D01*
X01437400Y01445500D01*
X01437400Y01605500D01*
X01357400Y01605500D01*
X01010815Y00726738D02*
X00995803Y00726738D01*
X00988296Y00719232D01*
X00972283Y00719232D02*
X00972283Y00704219D01*
X00964776Y00696713D01*
X00942257Y00696713D01*
X00957270Y00696713D02*
X00972283Y00681700D01*
X00988296Y00681700D02*
X01018322Y00711726D01*
X01018322Y00719232D01*
X01010815Y00726738D01*
X01018322Y00681700D02*
X00988296Y00681700D01*
X00972283Y00719232D02*
X00964776Y00726738D01*
X00942257Y00726738D01*
X00942257Y00681700D01*
X00926243Y00689206D02*
X00926243Y00719232D01*
X00918737Y00726738D01*
X00903724Y00726738D01*
X00896218Y00719232D01*
X00896218Y00689206D01*
X00903724Y00681700D01*
X00918737Y00681700D01*
X00926243Y00689206D01*
X00880204Y00726738D02*
X00850179Y00726738D01*
X00865191Y00726738D02*
X00865191Y00681700D01*
X00834165Y00689206D02*
X00834165Y00719232D01*
X00826658Y00726738D01*
X00811646Y00726738D01*
X00804139Y00719232D01*
X00804139Y00689206D01*
X00811646Y00681700D01*
X00826658Y00681700D01*
X00834165Y00689206D01*
X00788126Y00681700D02*
X00788126Y00726738D01*
X00773113Y00711726D01*
X00758100Y00726738D01*
X00758100Y00681700D01*
D17*
X00704400Y00936800D02*
X00704384Y01172800D01*
X00962416Y01172800D01*
X00962400Y00936800D01*
X01022900Y00936600D02*
X01022884Y01172600D01*
X01280916Y01172600D01*
X01280900Y00936600D01*
X01342400Y00936300D02*
X01342384Y01172300D01*
X01600416Y01172300D01*
X01600400Y00936300D01*
X00978836Y01627900D02*
X00954148Y01627900D01*
X00941804Y01640244D01*
X00941804Y01664931D01*
X00978836Y01664931D01*
X00991180Y01652588D01*
X00991180Y01640244D01*
X00978836Y01627900D01*
X00941804Y01664931D02*
X00966492Y01689619D01*
X00991180Y01701963D01*
X00915675Y01689619D02*
X00903331Y01701963D01*
X00878644Y01701963D01*
X00866300Y01689619D01*
X00866300Y01640244D01*
X00878644Y01627900D01*
X00903331Y01627900D01*
X00915675Y01640244D01*
X00783080Y01627900D02*
X00733704Y01627900D01*
X00783080Y01677275D01*
X00783080Y01689619D01*
X00770736Y01701963D01*
X00746048Y01701963D01*
X00733704Y01689619D01*
X00707575Y01689619D02*
X00695231Y01701963D01*
X00670544Y01701963D01*
X00658200Y01689619D01*
X00658200Y01640244D01*
X00670544Y01627900D01*
X00695231Y01627900D01*
X00707575Y01640244D01*
X00642516Y01172600D02*
X00384484Y01172600D01*
X00384500Y00936600D01*
X00642500Y00936600D02*
X00642516Y01172600D01*
X01601184Y02320500D02*
X01601200Y02556500D01*
X01601184Y02320500D02*
X01859216Y02320500D01*
X01859200Y02556500D01*
X01923000Y02556600D02*
X01922984Y02320600D01*
X02181016Y02320600D01*
X02181000Y02556600D01*
X02247300Y02556800D02*
X02247284Y02320800D01*
X02505316Y02320800D01*
X02505300Y02556800D01*
X02569700Y02556800D02*
X02569684Y02320800D01*
X02827716Y02320800D01*
X02827700Y02556800D01*
D18*
X02698700Y02301800D03*
X02376300Y02301800D03*
X02052000Y02301600D03*
X01730200Y02301500D03*
X01471400Y01191300D03*
X01151900Y01191600D03*
X00833400Y01191800D03*
X00513500Y01191600D03*
M02*
