G75*
%MOIN*%
%OFA0B0*%
%FSLAX26Y26*%
%IPPOS*%
%LPD*%
%AMOC8*
5,1,8,0,0,1.08239X$1,22.5*
%
%ADD10C,0.012000*%
%ADD11C,0.016000*%
%ADD12R,0.040000X0.016000*%
%ADD13R,0.060000X0.014000*%
%ADD14R,0.016000X0.040000*%
%ADD15R,0.014000X0.060000*%
%ADD16R,0.070866X0.062992*%
%ADD17R,0.062992X0.070866*%
%ADD18R,0.100000X0.050000*%
%ADD19R,0.050000X0.100000*%
%ADD20R,0.075000X0.050000*%
%ADD21R,0.050000X0.075000*%
%ADD22R,0.216535X0.078740*%
%ADD23R,0.044000X0.071000*%
%ADD24C,0.060000*%
%ADD25R,0.212598X0.244094*%
%ADD26R,0.039370X0.062992*%
%ADD27C,0.053150*%
%ADD28C,0.040000*%
%ADD29C,0.024000*%
%ADD30C,0.051181*%
D10*
X00178000Y00354256D02*
X00177900Y01847800D01*
X00492700Y01847800D01*
X00492700Y02198600D01*
X01465556Y02198600D01*
X01465556Y02010200D01*
X01497052Y02010200D02*
X01499000Y02010200D01*
X01499000Y01950800D01*
X01407100Y01950800D01*
X01367900Y01990000D01*
X01166600Y01990100D01*
X01164900Y01989800D01*
X01165000Y02141900D01*
X00696200Y02141900D01*
X00696200Y01972618D01*
X00691200Y01972618D01*
X00585500Y01972118D01*
X00585100Y01929800D01*
X00585300Y01929300D01*
X00585300Y01720100D01*
X00574100Y01708900D01*
X00575800Y01708900D01*
X00516887Y01660000D02*
X00478700Y01660287D01*
X00478700Y01708200D01*
X00359840Y01708200D01*
X00359139Y01708900D01*
X00359139Y01608900D02*
X00472900Y01608900D01*
X00472900Y01559200D01*
X00672300Y01559200D01*
X00672300Y01405300D01*
X00360700Y01405300D01*
X00360700Y00506900D01*
X01735800Y00506900D01*
X01735800Y01511300D01*
X01591540Y01511300D01*
X01591540Y01682200D01*
X01593000Y01682200D01*
X01562400Y01682200D02*
X01562400Y01247400D01*
X01561164Y01247400D01*
X01561164Y01276276D01*
X01528548Y01338300D02*
X01243600Y01338300D01*
X01243600Y01276576D01*
X01241664Y01276576D01*
X01185900Y01335500D02*
X00924700Y01335500D01*
X00924700Y01276776D01*
X00923164Y01276776D01*
X00979900Y01420600D02*
X00983000Y01420200D01*
X00983000Y01443900D01*
X01246400Y01443900D01*
X01246400Y01579200D01*
X01242400Y01579200D01*
X01246400Y01579200D02*
X01402600Y01735400D01*
X01686800Y01735400D01*
X01686800Y01735964D01*
X01676800Y01766200D02*
X01676800Y01767460D01*
X01731300Y01767460D01*
X01731300Y01606500D01*
X01844600Y01606500D01*
X01844600Y01604400D01*
X01822900Y01604400D01*
X01823400Y00423900D01*
X00264039Y00424200D01*
X00263939Y01507700D01*
X00359139Y01508900D01*
X00311900Y01439700D02*
X00480700Y01439700D01*
X00480700Y01508900D01*
X00574100Y01508900D01*
X00574100Y01594000D02*
X00574100Y01608900D01*
X00553600Y01608900D01*
X00551900Y01610600D01*
X00574100Y01594000D02*
X00719500Y01594000D01*
X00719500Y01420801D01*
X00764602Y01420200D01*
X00983000Y01420200D01*
X00981798Y01420900D02*
X00979900Y01420600D01*
X00980600Y01500100D02*
X01174500Y01500100D01*
X01174500Y01512400D01*
X01098300Y01557900D02*
X01098300Y01711900D01*
X01174008Y01711900D01*
X01174008Y01735964D01*
X01338800Y01735964D01*
X01348800Y01767460D02*
X01309240Y01767460D01*
X01290900Y01785800D01*
X00799992Y01785800D01*
X00799992Y01711900D01*
X00890200Y01711900D01*
X00890200Y01557900D01*
X00980300Y01557900D02*
X00980600Y01557900D01*
X00980600Y01500100D01*
X00772200Y01500100D01*
X00772200Y01557900D01*
X00767300Y01557900D01*
X00767300Y01640700D01*
X00652200Y01640700D01*
X00652200Y01664100D01*
X00652300Y01791600D01*
X00621500Y01791600D01*
X00621700Y01915800D01*
X00645976Y01915800D01*
X00646654Y01915878D01*
X00749922Y01915678D01*
X00749900Y01894000D01*
X00801000Y01894000D01*
X00801400Y02036700D01*
X00901400Y02036700D02*
X00901300Y01926500D01*
X00901000Y01924940D01*
X01348800Y01924940D01*
X01348800Y01894000D02*
X01370800Y01894000D01*
X01635899Y01866232D01*
X01637687Y01864444D01*
X01652970Y01864444D01*
X01676800Y01861948D01*
X01676800Y01861500D01*
X01823500Y01861600D01*
X01824300Y02008400D01*
X01942000Y02008400D01*
X01942000Y02008400D01*
X02354000Y02010900D01*
X02354700Y01985900D01*
X02354700Y01860400D01*
X02406318Y01808782D01*
X02406318Y01804700D01*
X02512600Y01804700D01*
X02512600Y01805500D01*
X02406318Y01804700D02*
X02406318Y01708100D01*
X02408018Y01708100D01*
X02409718Y01708100D01*
X02409718Y01609000D01*
X02418200Y01609000D01*
X02418200Y01399861D01*
X02246100Y01290700D02*
X01869200Y01290700D01*
X01868700Y00386600D01*
X00219700Y00386600D01*
X00219600Y01797900D01*
X00530900Y01797900D01*
X00530900Y01793600D01*
X00532300Y01793600D01*
X00532300Y02171200D01*
X01434060Y02171200D01*
X01434060Y02010200D01*
X01402564Y02020200D02*
X01402564Y02092300D01*
X01279400Y02092300D01*
X01338800Y01956436D02*
X01056100Y01956436D01*
X01056100Y02048200D01*
X00888500Y02187829D02*
X00750382Y02187829D01*
X00750382Y02256888D01*
X00773402Y02279908D01*
X00819441Y02279908D01*
X00842461Y02256888D01*
X00842461Y02187829D01*
X00842461Y02233869D02*
X00888500Y02279908D01*
X00888500Y02325947D02*
X00888500Y02371987D01*
X00888500Y02348967D02*
X00796421Y02348967D01*
X00796421Y02325947D01*
X00750382Y02348967D02*
X00727362Y02348967D01*
X00663500Y02348967D02*
X00640480Y02325947D01*
X00594441Y02325947D01*
X00571421Y02348967D01*
X00571421Y02395006D01*
X00594441Y02418026D01*
X00640480Y02418026D01*
X00663500Y02395006D01*
X00663500Y02348967D01*
X00640480Y02279908D02*
X00663500Y02256888D01*
X00663500Y02210849D01*
X00640480Y02187829D01*
X00548402Y02187829D01*
X00525382Y02210849D01*
X00525382Y02256888D01*
X00548402Y02279908D01*
X00571421Y02464065D02*
X00663500Y02464065D01*
X00617461Y02464065D02*
X00571421Y02510105D01*
X00571421Y02533124D01*
X00594441Y02579164D02*
X00571421Y02602183D01*
X00571421Y02648223D01*
X00594441Y02671242D01*
X00617461Y02671242D01*
X00617461Y02579164D01*
X00640480Y02579164D02*
X00663500Y02602183D01*
X00663500Y02648223D01*
X00640480Y02717282D02*
X00571421Y02717282D01*
X00640480Y02717282D02*
X00663500Y02740301D01*
X00663500Y02809360D01*
X00686520Y02809360D02*
X00709539Y02786341D01*
X00709539Y02763321D01*
X00686520Y02809360D02*
X00571421Y02809360D01*
X00381100Y02789147D02*
X00358080Y02789147D01*
X00266002Y02881226D01*
X00242982Y02881226D01*
X00242982Y02789147D01*
X00242982Y02697068D02*
X00381100Y02697068D01*
X00381100Y02651029D02*
X00381100Y02743108D01*
X00289021Y02651029D02*
X00242982Y02697068D01*
X00266002Y02604990D02*
X00358080Y02512911D01*
X00381100Y02535931D01*
X00381100Y02581970D01*
X00358080Y02604990D01*
X00266002Y02604990D01*
X00242982Y02581970D01*
X00242982Y02535931D01*
X00266002Y02512911D01*
X00358080Y02512911D01*
X00381100Y02466872D02*
X00381100Y02374793D01*
X00289021Y02466872D01*
X00266002Y02466872D01*
X00242982Y02443852D01*
X00242982Y02397813D01*
X00266002Y02374793D01*
X00289021Y02190636D02*
X00242982Y02144597D01*
X00289021Y02190636D02*
X00335061Y02190636D01*
X00381100Y02144597D01*
X00381100Y02098557D02*
X00381100Y02029498D01*
X00358080Y02006479D01*
X00312041Y02006479D01*
X00289021Y02029498D01*
X00289021Y02098557D01*
X00242982Y01960439D02*
X00289021Y01914400D01*
X00335061Y01914400D01*
X00381100Y01960439D01*
X00652300Y01791600D02*
X00704100Y01791600D01*
X00750952Y01791500D01*
X00751108Y01828356D01*
X01346304Y01827956D01*
X01348800Y01830452D01*
X01348800Y01861948D02*
X00691200Y01862382D01*
X00691200Y01972618D02*
X00691200Y01973200D01*
X00801000Y01894000D02*
X01348800Y01894000D01*
X01348800Y01893444D01*
X01348800Y01861948D02*
X01370800Y01861800D01*
X01604993Y01837808D01*
X01609854Y01832948D01*
X01635500Y01832948D01*
X01390342Y01803881D01*
X01387913Y01801452D01*
X01375294Y01799956D01*
X01357233Y01799956D01*
X01636038Y01771605D01*
X01637687Y01769956D01*
X01652253Y01769956D01*
X01676800Y01767460D01*
X01676800Y01767200D01*
X01676800Y01798900D02*
X01838400Y01798900D01*
X01949500Y01910000D01*
X02088600Y01910000D01*
X02088600Y01909200D01*
X02088600Y02009200D02*
X01942000Y02008400D01*
X01962236Y02152000D02*
X01962236Y02216623D01*
X01962236Y02152000D02*
X01687500Y02152000D01*
X01687500Y01956436D01*
X01686800Y01956436D01*
X01676800Y01924940D02*
X01732100Y01924940D01*
X01731100Y02115000D01*
X02285536Y02115000D01*
X02286536Y02216824D01*
X02415900Y01935500D02*
X02415900Y01913300D01*
X02415900Y01935500D02*
X02512600Y01935500D01*
X02608936Y02075000D02*
X02608936Y02216824D01*
X02608936Y02075000D02*
X01780200Y02075000D01*
X01780200Y01893444D01*
X01676800Y01893444D01*
X01676800Y01862200D02*
X01676800Y01861948D01*
X01676800Y01830452D02*
X01652435Y01832948D01*
X01635500Y01832948D01*
X01676800Y01798956D02*
X01676800Y01798900D01*
X01624400Y01672200D02*
X01623036Y01672200D01*
X01623036Y01561900D01*
X01780100Y01561700D01*
X01777400Y00462500D01*
X00576500Y00462800D01*
X00576500Y00463200D01*
X00310800Y00463200D01*
X00311900Y01439700D01*
X00480700Y01508900D02*
X00480700Y01509000D01*
X00604400Y01365800D02*
X01149800Y01365800D01*
X01149800Y01400400D01*
X01465556Y01400400D01*
X01465556Y01682200D01*
X01497052Y01682200D02*
X01497052Y01370100D01*
X01185900Y01370100D01*
X01185900Y01335500D01*
X01304500Y01512400D02*
X01397400Y01512400D01*
X01397400Y01460500D01*
X01397400Y01590500D02*
X01434060Y01590500D01*
X01434060Y01682200D01*
X01528548Y01682200D02*
X01528548Y01338300D01*
X01560044Y01682200D02*
X01562400Y01682200D01*
X01357233Y01799956D02*
X01348800Y01798956D01*
X01528548Y02010200D02*
X01528548Y02233200D01*
X01412200Y02233200D01*
X01412200Y02483900D01*
X01299000Y02483900D01*
X01299000Y02383900D02*
X01001500Y02383900D01*
X01000300Y02863400D01*
X01518400Y02863400D01*
X01519600Y02860700D01*
X01521300Y02860700D01*
X01521300Y02331900D01*
X01821300Y02331900D01*
X01821300Y02315800D01*
X01640436Y02216523D02*
X01640436Y02020200D01*
X01623036Y02020200D01*
X01560044Y02010200D02*
X01560044Y02276500D01*
X01460700Y02276500D01*
X01460700Y02583900D01*
X01299000Y02583900D01*
X01299000Y02683900D02*
X01299000Y02783900D01*
X01104600Y02783900D01*
X01104600Y02735200D01*
X00888500Y02625203D02*
X00888500Y02579164D01*
X00865480Y02556144D01*
X00819441Y02556144D01*
X00796421Y02579164D01*
X00796421Y02625203D01*
X00819441Y02648223D01*
X00842461Y02648223D01*
X00842461Y02556144D01*
X00888500Y02510105D02*
X00888500Y02441046D01*
X00865480Y02418026D01*
X00819441Y02418026D01*
X00796421Y02441046D01*
X00796421Y02510105D01*
X00640480Y02579164D02*
X00594441Y02579164D01*
X00652200Y01664100D02*
X00652100Y01660800D01*
X00516887Y01660000D01*
X00604400Y01365800D02*
X00604400Y01276576D01*
X00603264Y01276576D01*
X00178000Y00354256D02*
X01917400Y00353256D01*
X01917600Y01259900D01*
X02076700Y01260400D01*
X02193200Y01259500D01*
X02191600Y01184900D01*
X02091600Y01184900D02*
X02091600Y01100400D01*
X02246100Y01100400D01*
X02246100Y01290700D01*
X02091600Y01399861D02*
X02088611Y01399861D01*
X02088611Y01607552D01*
X02299482Y01609000D01*
X02311000Y01609000D01*
X02299482Y01609000D02*
X02299482Y01708100D01*
X02297781Y01708100D01*
X02297781Y01804700D01*
X02296082Y01804700D01*
X02285900Y01804700D01*
X02285900Y01913300D01*
X02296082Y01809260D02*
X02296082Y01804700D01*
X02088600Y01809200D02*
X01958300Y01808100D01*
X01837400Y01708600D02*
X02088600Y01709200D01*
X02088600Y01609200D02*
X01935400Y01608400D01*
X01935400Y01606500D01*
X01935400Y01537200D01*
X01935100Y01537200D01*
X01935400Y01606500D02*
X01844600Y01606500D01*
X01935400Y01606500D02*
X02088611Y01607552D01*
X02409718Y01609000D02*
X02411000Y01609000D01*
X02411900Y01609000D02*
X02409718Y01609000D01*
X01560044Y02010200D02*
X01560000Y02010200D01*
D11*
X01991600Y01399861D02*
X01993300Y01398160D01*
X01993300Y01320700D01*
X02191600Y01320700D01*
X02191600Y01399861D01*
X02089972Y00921757D02*
X02089972Y00737600D01*
X02151357Y00768293D02*
X02182050Y00737600D01*
X02243436Y00737600D01*
X02274129Y00768293D01*
X02274129Y00829679D01*
X02243436Y00860372D01*
X02182050Y00860372D01*
X02151357Y00829679D01*
X02151357Y00768293D01*
X02089972Y00829679D02*
X01967200Y00829679D01*
X01967200Y00921757D02*
X01967200Y00737600D01*
X01967200Y00621757D02*
X02089972Y00437600D01*
X02089972Y00621757D01*
X02151357Y00529679D02*
X02151357Y00468293D01*
X02182050Y00437600D01*
X02243436Y00437600D01*
X02274129Y00468293D01*
X02274129Y00529679D01*
X02243436Y00560372D01*
X02182050Y00560372D01*
X02151357Y00529679D01*
X02335515Y00529679D02*
X02335515Y00468293D01*
X02366208Y00437600D01*
X02458286Y00437600D01*
X02458286Y00621757D01*
X02458286Y00560372D02*
X02366208Y00560372D01*
X02335515Y00529679D01*
X02335515Y00676214D02*
X02335515Y00860372D01*
X02427593Y00860372D01*
X02458286Y00829679D01*
X02458286Y00768293D01*
X02427593Y00737600D01*
X02335515Y00737600D01*
X02519672Y00737600D02*
X02611751Y00737600D01*
X02642444Y00768293D01*
X02642444Y00829679D01*
X02611751Y00860372D01*
X02519672Y00860372D01*
X02519672Y00676214D01*
X02550365Y00560372D02*
X02611751Y00560372D01*
X02642444Y00529679D01*
X02642444Y00498986D01*
X02519672Y00498986D01*
X02519672Y00468293D02*
X02519672Y00529679D01*
X02550365Y00560372D01*
X02519672Y00468293D02*
X02550365Y00437600D01*
X02611751Y00437600D01*
X02734522Y00737600D02*
X02703829Y00768293D01*
X02703829Y00829679D01*
X02734522Y00860372D01*
X02795908Y00860372D01*
X02826601Y00829679D01*
X02826601Y00798986D01*
X02703829Y00798986D01*
X02734522Y00737600D02*
X02795908Y00737600D01*
X02887987Y00737600D02*
X02887987Y00860372D01*
X02887987Y00798986D02*
X02949373Y00860372D01*
X02980065Y00860372D01*
X01967200Y00621757D02*
X01967200Y00437600D01*
D12*
X01686800Y01735964D03*
X01686800Y01956436D03*
X01338800Y01956436D03*
X01338800Y01735964D03*
D13*
X01348800Y01767460D03*
X01348800Y01798956D03*
X01348800Y01830452D03*
X01348800Y01861948D03*
X01348800Y01893444D03*
X01348800Y01924940D03*
X01676800Y01924940D03*
X01676800Y01893444D03*
X01676800Y01861948D03*
X01676800Y01830452D03*
X01676800Y01798956D03*
X01676800Y01767460D03*
D14*
X01623036Y01672200D03*
X01402564Y01672200D03*
X01402564Y02020200D03*
X01623036Y02020200D03*
D15*
X01591540Y02010200D03*
X01560044Y02010200D03*
X01528548Y02010200D03*
X01497052Y02010200D03*
X01465556Y02010200D03*
X01434060Y02010200D03*
X01434060Y01682200D03*
X01465556Y01682200D03*
X01497052Y01682200D03*
X01528548Y01682200D03*
X01560044Y01682200D03*
X01591540Y01682200D03*
D16*
X00691200Y01862382D03*
X00691200Y01972618D03*
X02584400Y01278118D03*
X02693800Y01278718D03*
X02800100Y01278718D03*
X02800100Y01168482D03*
X02693800Y01168482D03*
X02584400Y01167882D03*
D17*
X02409718Y01609000D03*
X02408018Y01708100D03*
X02406318Y01804700D03*
X02296082Y01804700D03*
X02297781Y01708100D03*
X02299482Y01609000D03*
D18*
X00574100Y01608900D03*
X00574100Y01708900D03*
X00574100Y01508900D03*
X00359139Y01508900D03*
X00359139Y01608900D03*
X00359139Y01708900D03*
D19*
X01991600Y01399861D03*
X02091600Y01399861D03*
X02191600Y01399861D03*
X02191600Y01184900D03*
X02091600Y01184900D03*
X01991600Y01184900D03*
D20*
X01397400Y01460500D03*
X01397400Y01590500D03*
X02512600Y01805500D03*
X02512600Y01935500D03*
D21*
X02415900Y01913300D03*
X02285900Y01913300D03*
X01304500Y01512400D03*
X01174500Y01512400D03*
D22*
X01174008Y01711900D03*
X00799992Y01711900D03*
D23*
X00772200Y01557900D03*
X00890200Y01557900D03*
X00980300Y01557900D03*
X01098300Y01557900D03*
D24*
X00901400Y02006700D02*
X00901400Y02066700D01*
X00801400Y02066700D02*
X00801400Y02006700D01*
X01269000Y02383900D02*
X01329000Y02383900D01*
X01329000Y02483900D02*
X01269000Y02483900D01*
X01269000Y02583900D02*
X01329000Y02583900D01*
X01329000Y02683900D02*
X01269000Y02683900D01*
X01269000Y02783900D02*
X01329000Y02783900D01*
X02044700Y02816600D02*
X02044700Y02876600D01*
X02144700Y02876600D02*
X02144700Y02816600D01*
X02244700Y02816600D02*
X02244700Y02876600D01*
X02344700Y02876600D02*
X02344700Y02816600D01*
X02444700Y02816600D02*
X02444700Y02876600D01*
X02118600Y02009200D02*
X02058600Y02009200D01*
X02058600Y01909200D02*
X02118600Y01909200D01*
X02118600Y01809200D02*
X02058600Y01809200D01*
X02058600Y01709200D02*
X02118600Y01709200D01*
X02118600Y01609200D02*
X02058600Y01609200D01*
X01208600Y00637200D02*
X01208600Y00577200D01*
X01108600Y00577200D02*
X01108600Y00637200D01*
X01008600Y00637200D02*
X01008600Y00577200D01*
X00908600Y00577200D02*
X00908600Y00637200D01*
X00808600Y00637200D02*
X00808600Y00577200D01*
D25*
X00833400Y00989375D03*
X01151900Y00989175D03*
X01471400Y00988875D03*
X00513500Y00989175D03*
X01730200Y02503925D03*
X02052000Y02504025D03*
X02376300Y02504225D03*
X02698700Y02504225D03*
D26*
X02608936Y02216824D03*
X02466064Y02216824D03*
X02286536Y02216824D03*
X02141764Y02216623D03*
X01962236Y02216623D03*
X01819964Y02216523D03*
X01640436Y02216523D03*
X01561164Y01276276D03*
X01381636Y01276276D03*
X01241664Y01276576D03*
X01062136Y01276576D03*
X00923164Y01276776D03*
X00743636Y01276776D03*
X00603264Y01276576D03*
X00423736Y01276576D03*
X02788464Y02216824D03*
D27*
X01935100Y01537200D03*
X02337700Y01288600D03*
X02455000Y01159000D03*
X01439800Y00609400D03*
X00581000Y00609500D03*
X01104600Y02735200D03*
D28*
X01730200Y02846600D02*
X01730200Y02503925D01*
X01821300Y02315800D02*
X02141764Y02315800D01*
X02466064Y02315800D01*
X02788464Y02315800D01*
X02788464Y02216824D01*
X02788464Y01399861D01*
X02695300Y01399861D01*
X02585100Y01399861D01*
X02450600Y01399861D01*
X02337700Y01288600D01*
X02418200Y01399861D02*
X02191600Y01399861D01*
X02418200Y01399861D02*
X02450600Y01399861D01*
X02450600Y01396900D01*
X02450600Y01399861D02*
X02450368Y01399858D01*
X02450136Y01399850D01*
X02449905Y01399836D01*
X02449673Y01399816D01*
X02449443Y01399791D01*
X02449213Y01399760D01*
X02448984Y01399724D01*
X02448756Y01399682D01*
X02448528Y01399635D01*
X02448303Y01399582D01*
X02448078Y01399524D01*
X02447855Y01399460D01*
X02447633Y01399391D01*
X02447414Y01399317D01*
X02447196Y01399237D01*
X02446980Y01399152D01*
X02446766Y01399062D01*
X02446555Y01398967D01*
X02446345Y01398867D01*
X02446139Y01398761D01*
X02445935Y01398651D01*
X02445733Y01398536D01*
X02445535Y01398416D01*
X02445339Y01398291D01*
X02445147Y01398162D01*
X02444957Y01398028D01*
X02444771Y01397889D01*
X02444589Y01397746D01*
X02444410Y01397598D01*
X02444234Y01397447D01*
X02444062Y01397291D01*
X02443894Y01397131D01*
X02443730Y01396967D01*
X02443570Y01396799D01*
X02443414Y01396627D01*
X02443263Y01396451D01*
X02443115Y01396272D01*
X02442972Y01396090D01*
X02442833Y01395904D01*
X02442699Y01395714D01*
X02442570Y01395522D01*
X02442445Y01395326D01*
X02442325Y01395128D01*
X02442210Y01394926D01*
X02442100Y01394722D01*
X02441994Y01394516D01*
X02441894Y01394306D01*
X02441799Y01394095D01*
X02441709Y01393881D01*
X02441624Y01393665D01*
X02441544Y01393447D01*
X02441470Y01393228D01*
X02441401Y01393006D01*
X02441337Y01392783D01*
X02441279Y01392558D01*
X02441226Y01392333D01*
X02441179Y01392105D01*
X02441137Y01391877D01*
X02441101Y01391648D01*
X02441070Y01391418D01*
X02441045Y01391188D01*
X02441025Y01390956D01*
X02441011Y01390725D01*
X02441003Y01390493D01*
X02441000Y01390261D01*
X02455000Y01159000D02*
X02570131Y01043300D01*
X02616800Y00996400D01*
X02596500Y00996400D01*
X02596500Y00992800D01*
X02694300Y00992800D01*
X02798400Y00992800D01*
X02903200Y00992800D01*
X02903200Y02846600D01*
X02444700Y02846600D01*
X02345900Y02846600D02*
X02345900Y02711100D01*
X02698700Y02711100D01*
X02698700Y02504225D01*
X02466064Y02315800D02*
X02466064Y02216824D01*
X02376300Y02504225D02*
X02376300Y02505000D01*
X02245500Y02505000D01*
X02245500Y02846600D01*
X02244700Y02846600D01*
X02344700Y02846600D02*
X02345900Y02846600D01*
X02146800Y02846600D02*
X02146800Y02711100D01*
X02052000Y02711100D01*
X02052000Y02504025D01*
X02141764Y02315800D02*
X02141764Y02216623D01*
X02145200Y02216623D01*
X01821300Y02216523D02*
X01821300Y02315800D01*
X01821300Y02216523D02*
X01819964Y02216523D01*
X01820600Y02216523D01*
X01730200Y02846600D02*
X02044700Y02846600D01*
X02144700Y02846600D02*
X02146800Y02846600D01*
X02788464Y02216824D02*
X02788500Y02216824D01*
X01991600Y01184900D02*
X01991600Y00996400D01*
X02596500Y00996400D01*
X02606400Y01006800D02*
X02606403Y01006549D01*
X02606412Y01006298D01*
X02606427Y01006047D01*
X02606449Y01005796D01*
X02606476Y01005546D01*
X02606509Y01005297D01*
X02606548Y01005049D01*
X02606594Y01004802D01*
X02606645Y01004556D01*
X02606702Y01004311D01*
X02606765Y01004068D01*
X02606834Y01003826D01*
X02606909Y01003586D01*
X02606990Y01003348D01*
X02607076Y01003112D01*
X02607168Y01002878D01*
X02607265Y01002647D01*
X02607369Y01002417D01*
X02607477Y01002191D01*
X02607591Y01001967D01*
X02607711Y01001746D01*
X02607836Y01001528D01*
X02607966Y01001313D01*
X02608101Y01001101D01*
X02608241Y01000892D01*
X02608386Y01000687D01*
X02608536Y01000486D01*
X02608691Y01000288D01*
X02608851Y01000094D01*
X02609015Y00999904D01*
X02609184Y00999717D01*
X02609358Y00999535D01*
X02609535Y00999358D01*
X02609717Y00999184D01*
X02609904Y00999015D01*
X02610094Y00998851D01*
X02610288Y00998691D01*
X02610486Y00998536D01*
X02610687Y00998386D01*
X02610892Y00998241D01*
X02611101Y00998101D01*
X02611313Y00997966D01*
X02611528Y00997836D01*
X02611746Y00997711D01*
X02611967Y00997591D01*
X02612191Y00997477D01*
X02612417Y00997369D01*
X02612647Y00997265D01*
X02612878Y00997168D01*
X02613112Y00997076D01*
X02613348Y00996990D01*
X02613586Y00996909D01*
X02613826Y00996834D01*
X02614068Y00996765D01*
X02614311Y00996702D01*
X02614556Y00996645D01*
X02614802Y00996594D01*
X02615049Y00996548D01*
X02615297Y00996509D01*
X02615546Y00996476D01*
X02615796Y00996449D01*
X02616047Y00996427D01*
X02616298Y00996412D01*
X02616549Y00996403D01*
X02616800Y00996400D01*
X01667800Y01175200D02*
X01667800Y00609400D01*
X01439800Y00609400D01*
X01470800Y00763600D02*
X01470800Y00988875D01*
X01471400Y00988875D01*
X01383500Y01175200D02*
X01667800Y01175200D01*
X01383500Y01175200D02*
X01383500Y01276276D01*
X01381636Y01276276D01*
X01383500Y01175200D02*
X01062136Y01175200D01*
X01062136Y01276576D01*
X01062136Y01175200D02*
X00743636Y01175200D01*
X00743636Y01276776D01*
X00743636Y01175200D02*
X00423736Y01175200D01*
X00423736Y01276576D01*
X00513500Y00989175D02*
X00513500Y00989175D01*
X00513500Y00765400D01*
X00908600Y00765400D01*
X00908600Y00607200D01*
X00808600Y00607200D02*
X00583300Y00607200D01*
X00583205Y00607202D01*
X00583110Y00607208D01*
X00583016Y00607218D01*
X00582921Y00607231D01*
X00582828Y00607249D01*
X00582735Y00607270D01*
X00582644Y00607296D01*
X00582553Y00607325D01*
X00582464Y00607357D01*
X00582376Y00607394D01*
X00582290Y00607434D01*
X00582205Y00607477D01*
X00582123Y00607524D01*
X00582042Y00607575D01*
X00581964Y00607628D01*
X00581887Y00607685D01*
X00581814Y00607745D01*
X00581742Y00607808D01*
X00581674Y00607874D01*
X00581608Y00607942D01*
X00581545Y00608014D01*
X00581485Y00608087D01*
X00581428Y00608164D01*
X00581375Y00608242D01*
X00581324Y00608323D01*
X00581277Y00608405D01*
X00581234Y00608490D01*
X00581194Y00608576D01*
X00581157Y00608664D01*
X00581125Y00608753D01*
X00581096Y00608844D01*
X00581070Y00608935D01*
X00581049Y00609028D01*
X00581031Y00609121D01*
X00581018Y00609216D01*
X00581008Y00609310D01*
X00581002Y00609405D01*
X00581000Y00609500D01*
X00833400Y00989375D02*
X01008600Y00814174D01*
X01008600Y00607200D01*
X01108600Y00607200D02*
X01108600Y00953900D01*
X01108602Y00954022D01*
X01108608Y00954143D01*
X01108618Y00954265D01*
X01108631Y00954386D01*
X01108649Y00954506D01*
X01108670Y00954626D01*
X01108695Y00954746D01*
X01108724Y00954864D01*
X01108757Y00954981D01*
X01108794Y00955097D01*
X01108834Y00955212D01*
X01108878Y00955326D01*
X01108925Y00955438D01*
X01108976Y00955549D01*
X01109031Y00955658D01*
X01109089Y00955765D01*
X01109150Y00955870D01*
X01109215Y00955973D01*
X01109283Y00956074D01*
X01109355Y00956173D01*
X01109429Y00956269D01*
X01109507Y00956363D01*
X01109587Y00956455D01*
X01109670Y00956544D01*
X01109756Y00956630D01*
X01109845Y00956713D01*
X01109937Y00956793D01*
X01110031Y00956871D01*
X01110127Y00956945D01*
X01110226Y00957017D01*
X01110327Y00957085D01*
X01110430Y00957150D01*
X01110535Y00957211D01*
X01110642Y00957269D01*
X01110751Y00957324D01*
X01110862Y00957375D01*
X01110974Y00957422D01*
X01111088Y00957466D01*
X01111203Y00957506D01*
X01111319Y00957543D01*
X01111436Y00957576D01*
X01111554Y00957605D01*
X01111674Y00957630D01*
X01111794Y00957651D01*
X01111914Y00957669D01*
X01112035Y00957682D01*
X01112157Y00957692D01*
X01112278Y00957698D01*
X01112400Y00957700D01*
X01120425Y00957700D01*
X01121186Y00957709D01*
X01121946Y00957737D01*
X01122705Y00957783D01*
X01123463Y00957847D01*
X01124219Y00957929D01*
X01124973Y00958030D01*
X01125724Y00958149D01*
X01126472Y00958286D01*
X01127217Y00958442D01*
X01127957Y00958615D01*
X01128694Y00958806D01*
X01129425Y00959014D01*
X01130151Y00959240D01*
X01130872Y00959484D01*
X01131586Y00959745D01*
X01132294Y00960024D01*
X01132995Y00960319D01*
X01133689Y00960631D01*
X01134374Y00960960D01*
X01135052Y00961305D01*
X01135721Y00961667D01*
X01136382Y00962045D01*
X01137032Y00962438D01*
X01137674Y00962847D01*
X01138305Y00963272D01*
X01138926Y00963711D01*
X01139535Y00964166D01*
X01140134Y00964635D01*
X01140721Y00965118D01*
X01141297Y00965616D01*
X01141860Y00966127D01*
X01142411Y00966652D01*
X01142948Y00967189D01*
X01143473Y00967740D01*
X01143984Y00968303D01*
X01144482Y00968879D01*
X01144965Y00969466D01*
X01145434Y00970065D01*
X01145889Y00970674D01*
X01146328Y00971295D01*
X01146753Y00971926D01*
X01147162Y00972568D01*
X01147555Y00973218D01*
X01147933Y00973879D01*
X01148295Y00974548D01*
X01148640Y00975226D01*
X01148969Y00975911D01*
X01149281Y00976605D01*
X01149576Y00977306D01*
X01149855Y00978014D01*
X01150116Y00978728D01*
X01150360Y00979449D01*
X01150586Y00980175D01*
X01150794Y00980906D01*
X01150985Y00981643D01*
X01151158Y00982383D01*
X01151314Y00983128D01*
X01151451Y00983876D01*
X01151570Y00984627D01*
X01151671Y00985381D01*
X01151753Y00986137D01*
X01151817Y00986895D01*
X01151863Y00987654D01*
X01151891Y00988414D01*
X01151900Y00989175D01*
X01208600Y00763600D02*
X01470800Y00763600D01*
X01208600Y00763600D02*
X01208600Y00607200D01*
D29*
X02570131Y01043300D02*
X02570131Y01167882D01*
X02584400Y01167882D01*
X02693800Y01168482D02*
X02694300Y01168482D01*
X02694300Y00992800D01*
X02798400Y00992800D02*
X02798400Y01168482D01*
X02800100Y01168482D01*
X02800100Y01278718D02*
X02788464Y01278718D01*
X02788464Y01399861D01*
X02695300Y01399861D02*
X02695300Y01278718D01*
X02693800Y01278718D01*
X02585100Y01278118D02*
X02585100Y01399861D01*
X02585100Y01278118D02*
X02584400Y01278118D01*
D30*
X01958300Y01808100D03*
X01837400Y01708600D03*
X01279400Y02092300D03*
X01056100Y02048200D03*
M02*
