G75*
%MOIN*%
%OFA0B0*%
%FSLAX26Y26*%
%IPPOS*%
%LPD*%
%AMOC8*
5,1,8,0,0,1.08239X$1,22.5*
%
%ADD10R,0.048000X0.024000*%
%ADD11R,0.068000X0.022000*%
%ADD12R,0.024000X0.048000*%
%ADD13R,0.022000X0.068000*%
%ADD14R,0.078866X0.070992*%
%ADD15R,0.070992X0.078866*%
%ADD16R,0.108000X0.058000*%
%ADD17R,0.058000X0.108000*%
%ADD18R,0.083000X0.058000*%
%ADD19R,0.058000X0.083000*%
%ADD20R,0.224535X0.086740*%
%ADD21R,0.052000X0.079000*%
%ADD22C,0.068000*%
%ADD23R,0.220598X0.252094*%
%ADD24R,0.047370X0.070992*%
%ADD25C,0.061150*%
%ADD26C,0.059181*%
D10*
X01338800Y01735964D03*
X01338800Y01956436D03*
X01686800Y01956436D03*
X01686800Y01735964D03*
D11*
X01676800Y01767460D03*
X01676800Y01798956D03*
X01676800Y01830452D03*
X01676800Y01861948D03*
X01676800Y01893444D03*
X01676800Y01924940D03*
X01348800Y01924940D03*
X01348800Y01893444D03*
X01348800Y01861948D03*
X01348800Y01830452D03*
X01348800Y01798956D03*
X01348800Y01767460D03*
D12*
X01402564Y01672200D03*
X01623036Y01672200D03*
X01623036Y02020200D03*
X01402564Y02020200D03*
D13*
X01434060Y02010200D03*
X01465556Y02010200D03*
X01497052Y02010200D03*
X01528548Y02010200D03*
X01560044Y02010200D03*
X01591540Y02010200D03*
X01591540Y01682200D03*
X01560044Y01682200D03*
X01528548Y01682200D03*
X01497052Y01682200D03*
X01465556Y01682200D03*
X01434060Y01682200D03*
D14*
X00691200Y01862382D03*
X00691200Y01972618D03*
X02584400Y01278118D03*
X02693800Y01278718D03*
X02800100Y01278718D03*
X02800100Y01168482D03*
X02693800Y01168482D03*
X02584400Y01167882D03*
D15*
X02409718Y01609000D03*
X02408018Y01708100D03*
X02406318Y01804700D03*
X02296082Y01804700D03*
X02297781Y01708100D03*
X02299482Y01609000D03*
D16*
X00574100Y01608900D03*
X00574100Y01708900D03*
X00574100Y01508900D03*
X00359139Y01508900D03*
X00359139Y01608900D03*
X00359139Y01708900D03*
D17*
X01991600Y01399861D03*
X02091600Y01399861D03*
X02191600Y01399861D03*
X02191600Y01184900D03*
X02091600Y01184900D03*
X01991600Y01184900D03*
D18*
X01397400Y01460500D03*
X01397400Y01590500D03*
X02512600Y01805500D03*
X02512600Y01935500D03*
D19*
X02415900Y01913300D03*
X02285900Y01913300D03*
X01304500Y01512400D03*
X01174500Y01512400D03*
D20*
X01174008Y01711900D03*
X00799992Y01711900D03*
D21*
X00772200Y01557900D03*
X00890200Y01557900D03*
X00980300Y01557900D03*
X01098300Y01557900D03*
D22*
X00901400Y02006700D02*
X00901400Y02066700D01*
X00801400Y02066700D02*
X00801400Y02006700D01*
X01269000Y02383900D02*
X01329000Y02383900D01*
X01329000Y02483900D02*
X01269000Y02483900D01*
X01269000Y02583900D02*
X01329000Y02583900D01*
X01329000Y02683900D02*
X01269000Y02683900D01*
X01269000Y02783900D02*
X01329000Y02783900D01*
X02044700Y02816600D02*
X02044700Y02876600D01*
X02144700Y02876600D02*
X02144700Y02816600D01*
X02244700Y02816600D02*
X02244700Y02876600D01*
X02344700Y02876600D02*
X02344700Y02816600D01*
X02444700Y02816600D02*
X02444700Y02876600D01*
X02118600Y02009200D02*
X02058600Y02009200D01*
X02058600Y01909200D02*
X02118600Y01909200D01*
X02118600Y01809200D02*
X02058600Y01809200D01*
X02058600Y01709200D02*
X02118600Y01709200D01*
X02118600Y01609200D02*
X02058600Y01609200D01*
X01208600Y00637200D02*
X01208600Y00577200D01*
X01108600Y00577200D02*
X01108600Y00637200D01*
X01008600Y00637200D02*
X01008600Y00577200D01*
X00908600Y00577200D02*
X00908600Y00637200D01*
X00808600Y00637200D02*
X00808600Y00577200D01*
D23*
X00833400Y00989375D03*
X01151900Y00989175D03*
X01471400Y00988875D03*
X00513500Y00989175D03*
X01730200Y02503925D03*
X02052000Y02504025D03*
X02376300Y02504225D03*
X02698700Y02504225D03*
D24*
X02608936Y02216824D03*
X02466064Y02216824D03*
X02286536Y02216824D03*
X02141764Y02216623D03*
X01962236Y02216623D03*
X01819964Y02216523D03*
X01640436Y02216523D03*
X01561164Y01276276D03*
X01381636Y01276276D03*
X01241664Y01276576D03*
X01062136Y01276576D03*
X00923164Y01276776D03*
X00743636Y01276776D03*
X00603264Y01276576D03*
X00423736Y01276576D03*
X02788464Y02216824D03*
D25*
X00581000Y00609500D03*
X01439800Y00609400D03*
X01935100Y01537200D03*
X02337700Y01288600D03*
X02455000Y01159000D03*
X01104600Y02735200D03*
D26*
X01279400Y02092300D03*
X01056100Y02048200D03*
X01837400Y01708600D03*
X01958300Y01808100D03*
M02*
