G75*
%MOIN*%
%OFA0B0*%
%FSLAX26Y26*%
%IPPOS*%
%LPD*%
%AMOC8*
5,1,8,0,0,1.08239X$1,22.5*
%
%ADD10R,0.048000X0.024000*%
%ADD11R,0.068000X0.022000*%
%ADD12R,0.024000X0.048000*%
%ADD13R,0.022000X0.068000*%
%ADD14R,0.078866X0.070992*%
%ADD15R,0.070992X0.078866*%
%ADD16R,0.108000X0.058000*%
%ADD17R,0.058000X0.108000*%
%ADD18C,0.068000*%
%ADD19OC8,0.068000*%
%ADD20R,0.083000X0.058000*%
%ADD21R,0.058000X0.083000*%
%ADD22R,0.078984X0.070992*%
%ADD23R,0.126110X0.055244*%
%ADD24R,0.039000X0.043000*%
%ADD25R,0.043000X0.039000*%
%ADD26R,0.056000X0.096000*%
%ADD27R,0.149732X0.094614*%
%ADD28R,0.224535X0.086740*%
%ADD29R,0.052000X0.079000*%
%ADD30C,0.058197*%
D10*
X01474400Y00845964D03*
X01474400Y01066436D03*
X01822400Y01066436D03*
X01822400Y00845964D03*
D11*
X01812400Y00877460D03*
X01812400Y00908956D03*
X01812400Y00940452D03*
X01812400Y00971948D03*
X01812400Y01003444D03*
X01812400Y01034940D03*
X01484400Y01034940D03*
X01484400Y01003444D03*
X01484400Y00971948D03*
X01484400Y00940452D03*
X01484400Y00908956D03*
X01484400Y00877460D03*
D12*
X01538164Y00782200D03*
X01758636Y00782200D03*
X01758636Y01130200D03*
X01538164Y01130200D03*
D13*
X01569660Y01120200D03*
X01601156Y01120200D03*
X01632652Y01120200D03*
X01664148Y01120200D03*
X01695644Y01120200D03*
X01727140Y01120200D03*
X01727140Y00792200D03*
X01695644Y00792200D03*
X01664148Y00792200D03*
X01632652Y00792200D03*
X01601156Y00792200D03*
X01569660Y00792200D03*
D14*
X00826800Y00972382D03*
X00826800Y01082618D03*
D15*
X02206182Y00872500D03*
X02316418Y00872500D03*
X02318118Y00775900D03*
X02207882Y00775900D03*
X02209582Y00676800D03*
X02319818Y00676800D03*
D16*
X00494740Y00618900D03*
X00494740Y00718900D03*
X00494740Y00818900D03*
X00709700Y00818900D03*
X00709700Y00718900D03*
X00709700Y00618900D03*
D17*
X02108100Y00537161D03*
X02208100Y00537161D03*
X02308100Y00537161D03*
X02308100Y00322200D03*
X02208100Y00322200D03*
X02108100Y00322200D03*
D18*
X01627200Y00368100D02*
X01627200Y00428100D01*
X01527200Y00428100D02*
X01527200Y00368100D01*
X01427200Y00368100D02*
X01427200Y00428100D01*
X01327200Y00428100D02*
X01327200Y00368100D01*
X01227200Y00368100D02*
X01227200Y00428100D01*
X01127200Y00428100D02*
X01127200Y00368100D01*
X01027200Y00368100D02*
X01027200Y00428100D01*
X00927200Y00428100D02*
X00927200Y00368100D01*
X01495600Y01417100D02*
X01495600Y01477100D01*
X01595600Y01477100D02*
X01595600Y01417100D01*
X01695600Y01417100D02*
X01695600Y01477100D01*
X01795600Y01477100D02*
X01795600Y01417100D01*
X01895600Y01417100D02*
X01895600Y01477100D01*
X01995600Y01477100D02*
X01995600Y01417100D01*
X02095600Y01417100D02*
X02095600Y01477100D01*
X02195600Y01477100D02*
X02195600Y01417100D01*
X02295600Y01417100D02*
X02295600Y01477100D01*
X02395600Y01477100D02*
X02395600Y01417100D01*
X02495600Y01417100D02*
X02495600Y01477100D01*
X02595600Y01477100D02*
X02595600Y01417100D01*
X02695600Y01417100D02*
X02695600Y01477100D01*
X02795600Y01477100D02*
X02795600Y01417100D01*
X02895600Y01417100D02*
X02895600Y01477100D01*
X02995600Y01477100D02*
X02995600Y01417100D01*
X02901500Y01676700D02*
X02901500Y01736700D01*
X02801500Y01736700D02*
X02801500Y01676700D01*
X02701500Y01676700D02*
X02701500Y01736700D01*
D19*
X02489500Y00971700D03*
X01973500Y00717300D03*
X01970400Y00542500D03*
X01965400Y00318300D03*
X02497100Y00517800D03*
D20*
X01316100Y01314900D03*
X01316100Y01444900D03*
X01479100Y01609200D03*
X01479100Y01739200D03*
X01952500Y01736900D03*
X01952500Y01606900D03*
D21*
X01935000Y01848200D03*
X01861000Y01850800D03*
X01731000Y01850800D03*
X02065000Y01848200D03*
X02455200Y01763200D03*
X02585200Y01763200D03*
X02922900Y01570800D03*
X03052900Y01570800D03*
X01382300Y01844200D03*
X01252300Y01844200D03*
X01294500Y01543600D03*
X01164500Y01543600D03*
X00540700Y01099100D03*
X00410700Y01099100D03*
X00413900Y00986500D03*
X00543900Y00986500D03*
X00316700Y01215400D03*
X00186700Y01215400D03*
X00258900Y00664600D03*
X00388900Y00664600D03*
D22*
X02861600Y00975415D03*
X02960100Y00975616D03*
X02960100Y01087584D03*
X02861600Y01087384D03*
D23*
X01005898Y01379465D03*
X01005898Y01458205D03*
X01005898Y01536945D03*
X01005898Y01615686D03*
X01005898Y01694426D03*
X01005898Y01773166D03*
X01005898Y01851906D03*
X01005898Y01930646D03*
X00360228Y01930646D03*
X00360228Y01851906D03*
X00360228Y01773166D03*
X00360228Y01694426D03*
X00360228Y01615686D03*
X00360228Y01536945D03*
X00360228Y01458205D03*
X00360228Y01379465D03*
D24*
X01315100Y01771100D03*
X01391100Y01771100D03*
X01353100Y01691100D03*
X01784300Y01764600D03*
X01860300Y01764600D03*
X01822300Y01684600D03*
D25*
X00289700Y01059900D03*
X00209700Y01021900D03*
X00209700Y01097900D03*
D26*
X02172400Y01669700D03*
X02263400Y01669700D03*
X02354400Y01669700D03*
D27*
X02263400Y01913708D03*
D28*
X01309608Y00821900D03*
X00935592Y00821900D03*
D29*
X00907800Y00667900D03*
X01025800Y00667900D03*
X01115900Y00667900D03*
X01233900Y00667900D03*
D30*
X00978900Y01074900D03*
X01258200Y01126200D03*
X01592800Y01688000D03*
X02067100Y01670700D03*
M02*
