G75*
%MOIN*%
%OFA0B0*%
%FSLAX26Y26*%
%IPPOS*%
%LPD*%
%AMOC8*
5,1,8,0,0,1.08239X$1,22.5*
%
%ADD10C,0.060000*%
%ADD11OC8,0.060000*%
%ADD12C,0.050197*%
%ADD13C,0.012000*%
D10*
X00927200Y00368100D02*
X00927200Y00428100D01*
X01027200Y00428100D02*
X01027200Y00368100D01*
X01127200Y00368100D02*
X01127200Y00428100D01*
X01227200Y00428100D02*
X01227200Y00368100D01*
X01327200Y00368100D02*
X01327200Y00428100D01*
X01427200Y00428100D02*
X01427200Y00368100D01*
X01527200Y00368100D02*
X01527200Y00428100D01*
X01627200Y00428100D02*
X01627200Y00368100D01*
X01595600Y01417100D02*
X01595600Y01477100D01*
X01495600Y01477100D02*
X01495600Y01417100D01*
X01695600Y01417100D02*
X01695600Y01477100D01*
X01795600Y01477100D02*
X01795600Y01417100D01*
X01895600Y01417100D02*
X01895600Y01477100D01*
X01995600Y01477100D02*
X01995600Y01417100D01*
X02095600Y01417100D02*
X02095600Y01477100D01*
X02195600Y01477100D02*
X02195600Y01417100D01*
X02295600Y01417100D02*
X02295600Y01477100D01*
X02395600Y01477100D02*
X02395600Y01417100D01*
X02495600Y01417100D02*
X02495600Y01477100D01*
X02595600Y01477100D02*
X02595600Y01417100D01*
X02695600Y01417100D02*
X02695600Y01477100D01*
X02795600Y01477100D02*
X02795600Y01417100D01*
X02895600Y01417100D02*
X02895600Y01477100D01*
X02995600Y01477100D02*
X02995600Y01417100D01*
X02901500Y01676700D02*
X02901500Y01736700D01*
X02801500Y01736700D02*
X02801500Y01676700D01*
X02701500Y01676700D02*
X02701500Y01736700D01*
D11*
X02489500Y00971700D03*
X01973500Y00717300D03*
X01970400Y00542500D03*
X01965400Y00318300D03*
X02497100Y00517800D03*
D12*
X01258200Y01126200D03*
X00978900Y01074900D03*
X01592800Y01688000D03*
X02067100Y01670700D03*
D13*
X02067170Y01670698D01*
X02067241Y01670692D01*
X02067310Y01670683D01*
X02067379Y01670670D01*
X02067448Y01670653D01*
X02067515Y01670632D01*
X02067581Y01670608D01*
X02067646Y01670580D01*
X02067709Y01670549D01*
X02067770Y01670514D01*
X02067830Y01670476D01*
X02067887Y01670435D01*
X02067942Y01670391D01*
X02067994Y01670344D01*
X02068044Y01670294D01*
X02068091Y01670242D01*
X02068135Y01670187D01*
X02068176Y01670130D01*
X02068214Y01670070D01*
X02068249Y01670009D01*
X02068280Y01669946D01*
X02068308Y01669881D01*
X02068332Y01669815D01*
X02068353Y01669748D01*
X02068370Y01669679D01*
X02068383Y01669610D01*
X02068392Y01669541D01*
X02068398Y01669470D01*
X02068400Y01669400D01*
X02068400Y01667400D01*
X02068374Y01665213D01*
X02068294Y01663028D01*
X02068162Y01660845D01*
X02067978Y01658665D01*
X02067740Y01656491D01*
X02067450Y01654324D01*
X02067108Y01652164D01*
X02066714Y01650013D01*
X02066268Y01647872D01*
X02065770Y01645742D01*
X02065221Y01643625D01*
X02064621Y01641522D01*
X02063971Y01639434D01*
X02063270Y01637362D01*
X02062519Y01635308D01*
X02061719Y01633273D01*
X02060870Y01631258D01*
X02059972Y01629263D01*
X02059027Y01627291D01*
X02058034Y01625343D01*
X02056994Y01623419D01*
X02055908Y01621520D01*
X02054777Y01619649D01*
X02053601Y01617805D01*
X02052380Y01615990D01*
X02051116Y01614205D01*
X02049809Y01612452D01*
X02048461Y01610730D01*
X02047071Y01609042D01*
X02045640Y01607387D01*
X02044170Y01605768D01*
X02042662Y01604185D01*
X02041115Y01602638D01*
X02039532Y01601130D01*
X02037913Y01599660D01*
X02036258Y01598229D01*
X02034570Y01596839D01*
X02032848Y01595491D01*
X02031095Y01594184D01*
X02029310Y01592920D01*
X02027495Y01591699D01*
X02025651Y01590523D01*
X02023780Y01589392D01*
X02021881Y01588306D01*
X02019957Y01587266D01*
X02018009Y01586273D01*
X02016037Y01585328D01*
X02014042Y01584430D01*
X02012027Y01583581D01*
X02009992Y01582781D01*
X02007938Y01582030D01*
X02005866Y01581329D01*
X02003778Y01580679D01*
X02001675Y01580079D01*
X01999558Y01579530D01*
X01997428Y01579032D01*
X01995287Y01578586D01*
X01993136Y01578192D01*
X01990976Y01577850D01*
X01988809Y01577560D01*
X01986635Y01577322D01*
X01984455Y01577138D01*
X01982272Y01577006D01*
X01980087Y01576926D01*
X01977900Y01576900D01*
X01520600Y01576900D01*
X01592800Y01688000D02*
X01592797Y01688273D01*
X01592787Y01688546D01*
X01592770Y01688819D01*
X01592747Y01689091D01*
X01592718Y01689362D01*
X01592681Y01689633D01*
X01592639Y01689902D01*
X01592589Y01690171D01*
X01592534Y01690438D01*
X01592472Y01690704D01*
X01592403Y01690969D01*
X01592328Y01691231D01*
X01592247Y01691492D01*
X01592159Y01691751D01*
X01592066Y01692007D01*
X01591966Y01692261D01*
X01591860Y01692513D01*
X01591748Y01692762D01*
X01591630Y01693008D01*
X01591506Y01693251D01*
X01591376Y01693492D01*
X01591240Y01693729D01*
X01591099Y01693962D01*
X01590952Y01694193D01*
X01590800Y01694419D01*
X01590642Y01694642D01*
X01590479Y01694861D01*
X01590310Y01695076D01*
X01590137Y01695287D01*
X01589958Y01695493D01*
X01589775Y01695695D01*
X01589586Y01695893D01*
X01589393Y01696086D01*
X01589195Y01696275D01*
X01588993Y01696458D01*
X01588787Y01696637D01*
X01588576Y01696810D01*
X01588361Y01696979D01*
X01588142Y01697142D01*
X01587919Y01697300D01*
X01587693Y01697452D01*
X01587462Y01697599D01*
X01587229Y01697740D01*
X01586992Y01697876D01*
X01586751Y01698006D01*
X01586508Y01698130D01*
X01586262Y01698248D01*
X01586013Y01698360D01*
X01585761Y01698466D01*
X01585507Y01698566D01*
X01585251Y01698659D01*
X01584992Y01698747D01*
X01584731Y01698828D01*
X01584469Y01698903D01*
X01584204Y01698972D01*
X01583938Y01699034D01*
X01583671Y01699089D01*
X01583402Y01699139D01*
X01583133Y01699181D01*
X01582862Y01699218D01*
X01582591Y01699247D01*
X01582319Y01699270D01*
X01582046Y01699287D01*
X01581773Y01699297D01*
X01581500Y01699300D01*
X01308700Y01699300D01*
X01305718Y01699264D01*
X01302738Y01699156D01*
X01299762Y01698976D01*
X01296790Y01698724D01*
X01293826Y01698400D01*
X01290870Y01698005D01*
X01287925Y01697539D01*
X01284992Y01697001D01*
X01282072Y01696393D01*
X01279168Y01695714D01*
X01276282Y01694966D01*
X01273414Y01694148D01*
X01270567Y01693260D01*
X01267743Y01692305D01*
X01264942Y01691281D01*
X01262166Y01690190D01*
X01259418Y01689032D01*
X01256699Y01687808D01*
X01254010Y01686519D01*
X01251353Y01685165D01*
X01248730Y01683748D01*
X01246141Y01682267D01*
X01243589Y01680724D01*
X01241075Y01679120D01*
X01238601Y01677456D01*
X01236167Y01675733D01*
X01233776Y01673951D01*
X01231429Y01672112D01*
X01229126Y01670217D01*
X01226871Y01668266D01*
X01224663Y01666262D01*
X01222504Y01664205D01*
X01220395Y01662096D01*
X01218338Y01659937D01*
X01216334Y01657729D01*
X01214383Y01655474D01*
X01212488Y01653171D01*
X01210649Y01650824D01*
X01208867Y01648433D01*
X01207144Y01645999D01*
X01205480Y01643525D01*
X01203876Y01641011D01*
X01202333Y01638459D01*
X01200852Y01635870D01*
X01199435Y01633247D01*
X01198081Y01630590D01*
X01196792Y01627901D01*
X01195568Y01625182D01*
X01194410Y01622434D01*
X01193319Y01619658D01*
X01192295Y01616857D01*
X01191340Y01614033D01*
X01190452Y01611186D01*
X01189634Y01608318D01*
X01188886Y01605432D01*
X01188207Y01602528D01*
X01187599Y01599608D01*
X01187061Y01596675D01*
X01186595Y01593730D01*
X01186200Y01590774D01*
X01185876Y01587810D01*
X01185624Y01584838D01*
X01185444Y01581862D01*
X01185336Y01578882D01*
X01185300Y01575900D01*
X01185300Y01556500D01*
X01185476Y01556498D01*
X01185653Y01556491D01*
X01185829Y01556481D01*
X01186005Y01556466D01*
X01186180Y01556447D01*
X01186355Y01556423D01*
X01186529Y01556396D01*
X01186703Y01556364D01*
X01186875Y01556328D01*
X01187047Y01556288D01*
X01187218Y01556244D01*
X01187387Y01556195D01*
X01187556Y01556143D01*
X01187723Y01556086D01*
X01187889Y01556026D01*
X01188053Y01555961D01*
X01188215Y01555893D01*
X01188376Y01555820D01*
X01188535Y01555744D01*
X01188692Y01555664D01*
X01188848Y01555580D01*
X01189001Y01555492D01*
X01189152Y01555401D01*
X01189300Y01555306D01*
X01189447Y01555208D01*
X01189591Y01555106D01*
X01189732Y01555000D01*
X01189871Y01554892D01*
X01190007Y01554780D01*
X01190141Y01554664D01*
X01190271Y01554546D01*
X01190399Y01554424D01*
X01190524Y01554299D01*
X01190646Y01554171D01*
X01190764Y01554041D01*
X01190880Y01553907D01*
X01190992Y01553771D01*
X01191100Y01553632D01*
X01191206Y01553491D01*
X01191308Y01553347D01*
X01191406Y01553200D01*
X01191501Y01553052D01*
X01191592Y01552901D01*
X01191680Y01552748D01*
X01191764Y01552592D01*
X01191844Y01552435D01*
X01191920Y01552276D01*
X01191993Y01552115D01*
X01192061Y01551953D01*
X01192126Y01551789D01*
X01192186Y01551623D01*
X01192243Y01551456D01*
X01192295Y01551287D01*
X01192344Y01551118D01*
X01192388Y01550947D01*
X01192428Y01550775D01*
X01192464Y01550603D01*
X01192496Y01550429D01*
X01192523Y01550255D01*
X01192547Y01550080D01*
X01192566Y01549905D01*
X01192581Y01549729D01*
X01192591Y01549553D01*
X01192598Y01549376D01*
X01192600Y01549200D01*
X01192600Y01266000D01*
X01258900Y01126200D02*
X01261459Y01126231D01*
X01264016Y01126324D01*
X01266571Y01126478D01*
X01269121Y01126694D01*
X01271665Y01126972D01*
X01274201Y01127311D01*
X01276729Y01127712D01*
X01279246Y01128173D01*
X01281752Y01128695D01*
X01284244Y01129277D01*
X01286721Y01129920D01*
X01289182Y01130622D01*
X01291625Y01131383D01*
X01294049Y01132203D01*
X01296453Y01133082D01*
X01298834Y01134018D01*
X01301193Y01135012D01*
X01303526Y01136062D01*
X01305834Y01137168D01*
X01308114Y01138330D01*
X01310366Y01139547D01*
X01312587Y01140817D01*
X01314777Y01142141D01*
X01316935Y01143518D01*
X01319058Y01144946D01*
X01321146Y01146425D01*
X01323199Y01147954D01*
X01325213Y01149532D01*
X01327189Y01151159D01*
X01329125Y01152833D01*
X01331020Y01154553D01*
X01332872Y01156318D01*
X01334682Y01158128D01*
X01336447Y01159980D01*
X01338167Y01161875D01*
X01339841Y01163811D01*
X01341468Y01165787D01*
X01343046Y01167801D01*
X01344575Y01169854D01*
X01346054Y01171942D01*
X01347482Y01174065D01*
X01348859Y01176223D01*
X01350183Y01178413D01*
X01351453Y01180634D01*
X01352670Y01182886D01*
X01353832Y01185166D01*
X01354938Y01187474D01*
X01355988Y01189807D01*
X01356982Y01192166D01*
X01357918Y01194547D01*
X01358797Y01196951D01*
X01359617Y01199375D01*
X01360378Y01201818D01*
X01361080Y01204279D01*
X01361723Y01206756D01*
X01362305Y01209248D01*
X01362827Y01211754D01*
X01363288Y01214271D01*
X01363689Y01216799D01*
X01364028Y01219335D01*
X01364306Y01221879D01*
X01364522Y01224429D01*
X01364676Y01226984D01*
X01364769Y01229541D01*
X01364800Y01232100D01*
X01364800Y01421100D01*
X01364845Y01424865D01*
X01364982Y01428627D01*
X01365209Y01432385D01*
X01365527Y01436137D01*
X01365936Y01439880D01*
X01366435Y01443611D01*
X01367024Y01447330D01*
X01367703Y01451033D01*
X01368470Y01454719D01*
X01369327Y01458385D01*
X01370272Y01462030D01*
X01371305Y01465650D01*
X01372425Y01469245D01*
X01373632Y01472811D01*
X01374924Y01476347D01*
X01376302Y01479851D01*
X01377764Y01483321D01*
X01379309Y01486754D01*
X01380937Y01490149D01*
X01382646Y01493504D01*
X01384436Y01496816D01*
X01386305Y01500084D01*
X01388253Y01503306D01*
X01390278Y01506480D01*
X01392379Y01509604D01*
X01394555Y01512677D01*
X01396805Y01515696D01*
X01399127Y01518660D01*
X01401520Y01521566D01*
X01403982Y01524415D01*
X01406513Y01527202D01*
X01409110Y01529928D01*
X01411772Y01532590D01*
X01414498Y01535187D01*
X01417285Y01537718D01*
X01420134Y01540180D01*
X01423040Y01542573D01*
X01426004Y01544895D01*
X01429023Y01547145D01*
X01432096Y01549321D01*
X01435220Y01551422D01*
X01438394Y01553447D01*
X01441616Y01555395D01*
X01444884Y01557264D01*
X01448196Y01559054D01*
X01451551Y01560763D01*
X01454946Y01562391D01*
X01458379Y01563936D01*
X01461849Y01565398D01*
X01465353Y01566776D01*
X01468889Y01568068D01*
X01472455Y01569275D01*
X01476050Y01570395D01*
X01479670Y01571428D01*
X01483315Y01572373D01*
X01486981Y01573230D01*
X01490667Y01573997D01*
X01494370Y01574676D01*
X01498089Y01575265D01*
X01501820Y01575764D01*
X01505563Y01576173D01*
X01509315Y01576491D01*
X01513073Y01576718D01*
X01516835Y01576855D01*
X01520600Y01576900D01*
X01192600Y01266000D02*
X01192544Y01261382D01*
X01192377Y01256767D01*
X01192098Y01252158D01*
X01191708Y01247556D01*
X01191207Y01242965D01*
X01190595Y01238388D01*
X01189872Y01233827D01*
X01189040Y01229285D01*
X01188098Y01224764D01*
X01187047Y01220267D01*
X01185888Y01215797D01*
X01184621Y01211356D01*
X01183247Y01206947D01*
X01181767Y01202572D01*
X01180182Y01198235D01*
X01178492Y01193937D01*
X01176699Y01189681D01*
X01174804Y01185470D01*
X01172807Y01181306D01*
X01170711Y01177191D01*
X01168515Y01173129D01*
X01166222Y01169120D01*
X01163833Y01165168D01*
X01161349Y01161275D01*
X01158772Y01157443D01*
X01156103Y01153674D01*
X01153344Y01149971D01*
X01150496Y01146336D01*
X01147561Y01142771D01*
X01144540Y01139277D01*
X01141437Y01135858D01*
X01138251Y01132514D01*
X01134986Y01129249D01*
X01131642Y01126063D01*
X01128223Y01122960D01*
X01124729Y01119939D01*
X01121164Y01117004D01*
X01117529Y01114156D01*
X01113826Y01111397D01*
X01110057Y01108728D01*
X01106225Y01106151D01*
X01102332Y01103667D01*
X01098380Y01101278D01*
X01094371Y01098985D01*
X01090309Y01096789D01*
X01086194Y01094693D01*
X01082030Y01092696D01*
X01077819Y01090801D01*
X01073563Y01089008D01*
X01069265Y01087318D01*
X01064928Y01085733D01*
X01060553Y01084253D01*
X01056144Y01082879D01*
X01051703Y01081612D01*
X01047233Y01080453D01*
X01042736Y01079402D01*
X01038215Y01078460D01*
X01033673Y01077628D01*
X01029112Y01076905D01*
X01024535Y01076293D01*
X01019944Y01075792D01*
X01015342Y01075402D01*
X01010733Y01075123D01*
X01006118Y01074956D01*
X01001500Y01074900D01*
X00978900Y01074900D01*
X01258200Y01126200D02*
X01258900Y01126200D01*
M02*
