G75*
%MOIN*%
%OFA0B0*%
%FSLAX26Y26*%
%IPPOS*%
%LPD*%
%AMOC8*
5,1,8,0,0,1.08239X$1,22.5*
%
%ADD10C,0.068000*%
%ADD11OC8,0.068000*%
%ADD12C,0.058197*%
D10*
X00927200Y00368100D02*
X00927200Y00428100D01*
X01027200Y00428100D02*
X01027200Y00368100D01*
X01127200Y00368100D02*
X01127200Y00428100D01*
X01227200Y00428100D02*
X01227200Y00368100D01*
X01327200Y00368100D02*
X01327200Y00428100D01*
X01427200Y00428100D02*
X01427200Y00368100D01*
X01527200Y00368100D02*
X01527200Y00428100D01*
X01627200Y00428100D02*
X01627200Y00368100D01*
X01595600Y01417100D02*
X01595600Y01477100D01*
X01495600Y01477100D02*
X01495600Y01417100D01*
X01695600Y01417100D02*
X01695600Y01477100D01*
X01795600Y01477100D02*
X01795600Y01417100D01*
X01895600Y01417100D02*
X01895600Y01477100D01*
X01995600Y01477100D02*
X01995600Y01417100D01*
X02095600Y01417100D02*
X02095600Y01477100D01*
X02195600Y01477100D02*
X02195600Y01417100D01*
X02295600Y01417100D02*
X02295600Y01477100D01*
X02395600Y01477100D02*
X02395600Y01417100D01*
X02495600Y01417100D02*
X02495600Y01477100D01*
X02595600Y01477100D02*
X02595600Y01417100D01*
X02695600Y01417100D02*
X02695600Y01477100D01*
X02795600Y01477100D02*
X02795600Y01417100D01*
X02895600Y01417100D02*
X02895600Y01477100D01*
X02995600Y01477100D02*
X02995600Y01417100D01*
X02901500Y01676700D02*
X02901500Y01736700D01*
X02801500Y01736700D02*
X02801500Y01676700D01*
X02701500Y01676700D02*
X02701500Y01736700D01*
D11*
X02489500Y00971700D03*
X01973500Y00717300D03*
X01970400Y00542500D03*
X01965400Y00318300D03*
X02497100Y00517800D03*
D12*
X01258200Y01126200D03*
X00978900Y01074900D03*
X01592800Y01688000D03*
X02067100Y01670700D03*
M02*
