G75*
%MOIN*%
%OFA0B0*%
%FSLAX26Y26*%
%IPPOS*%
%LPD*%
%AMOC8*
5,1,8,0,0,1.08239X$1,22.5*
%
%ADD10C,0.003000*%
%ADD11C,0.006000*%
%ADD12C,0.012000*%
%ADD13R,0.062992X0.070866*%
%ADD14R,0.050000X0.075000*%
%ADD15C,0.060000*%
D10*
X00000200Y-00000700D02*
X03124900Y-00000700D01*
X01959079Y00568900D02*
X01959105Y00571014D01*
X01959183Y00573126D01*
X01959312Y00575235D01*
X01959494Y00577341D01*
X01959727Y00579442D01*
X01960011Y00581537D01*
X01960347Y00583623D01*
X01960734Y00585701D01*
X01961172Y00587769D01*
X01961660Y00589826D01*
X01962199Y00591870D01*
X01962787Y00593900D01*
X01963426Y00595915D01*
X01964113Y00597913D01*
X01964850Y00599895D01*
X01965635Y00601857D01*
X01966467Y00603800D01*
X01967348Y00605721D01*
X01968275Y00607621D01*
X01969248Y00609497D01*
X01970267Y00611349D01*
X01971332Y00613175D01*
X01972440Y00614975D01*
X01973593Y00616746D01*
X01974789Y00618489D01*
X01976027Y00620202D01*
X01977307Y00621884D01*
X01978628Y00623535D01*
X01979988Y00625152D01*
X01981389Y00626735D01*
X01982827Y00628284D01*
X01984303Y00629797D01*
X01985816Y00631273D01*
X01987365Y00632711D01*
X01988948Y00634112D01*
X01990565Y00635472D01*
X01992216Y00636793D01*
X01993898Y00638073D01*
X01995611Y00639311D01*
X01997354Y00640507D01*
X01999125Y00641660D01*
X02000925Y00642768D01*
X02002751Y00643833D01*
X02004603Y00644852D01*
X02006479Y00645825D01*
X02008379Y00646752D01*
X02010300Y00647633D01*
X02012243Y00648465D01*
X02014205Y00649250D01*
X02016187Y00649987D01*
X02018185Y00650674D01*
X02020200Y00651313D01*
X02022230Y00651901D01*
X02024274Y00652440D01*
X02026331Y00652928D01*
X02028399Y00653366D01*
X02030477Y00653753D01*
X02032563Y00654089D01*
X02034658Y00654373D01*
X02036759Y00654606D01*
X02038865Y00654788D01*
X02040974Y00654917D01*
X02043086Y00654995D01*
X02045200Y00655021D01*
X02047314Y00654995D01*
X02049426Y00654917D01*
X02051535Y00654788D01*
X02053641Y00654606D01*
X02055742Y00654373D01*
X02057837Y00654089D01*
X02059923Y00653753D01*
X02062001Y00653366D01*
X02064069Y00652928D01*
X02066126Y00652440D01*
X02068170Y00651901D01*
X02070200Y00651313D01*
X02072215Y00650674D01*
X02074213Y00649987D01*
X02076195Y00649250D01*
X02078157Y00648465D01*
X02080100Y00647633D01*
X02082021Y00646752D01*
X02083921Y00645825D01*
X02085797Y00644852D01*
X02087649Y00643833D01*
X02089475Y00642768D01*
X02091275Y00641660D01*
X02093046Y00640507D01*
X02094789Y00639311D01*
X02096502Y00638073D01*
X02098184Y00636793D01*
X02099835Y00635472D01*
X02101452Y00634112D01*
X02103035Y00632711D01*
X02104584Y00631273D01*
X02106097Y00629797D01*
X02107573Y00628284D01*
X02109011Y00626735D01*
X02110412Y00625152D01*
X02111772Y00623535D01*
X02113093Y00621884D01*
X02114373Y00620202D01*
X02115611Y00618489D01*
X02116807Y00616746D01*
X02117960Y00614975D01*
X02119068Y00613175D01*
X02120133Y00611349D01*
X02121152Y00609497D01*
X02122125Y00607621D01*
X02123052Y00605721D01*
X02123933Y00603800D01*
X02124765Y00601857D01*
X02125550Y00599895D01*
X02126287Y00597913D01*
X02126974Y00595915D01*
X02127613Y00593900D01*
X02128201Y00591870D01*
X02128740Y00589826D01*
X02129228Y00587769D01*
X02129666Y00585701D01*
X02130053Y00583623D01*
X02130389Y00581537D01*
X02130673Y00579442D01*
X02130906Y00577341D01*
X02131088Y00575235D01*
X02131217Y00573126D01*
X02131295Y00571014D01*
X02131321Y00568900D01*
X02131295Y00566786D01*
X02131217Y00564674D01*
X02131088Y00562565D01*
X02130906Y00560459D01*
X02130673Y00558358D01*
X02130389Y00556263D01*
X02130053Y00554177D01*
X02129666Y00552099D01*
X02129228Y00550031D01*
X02128740Y00547974D01*
X02128201Y00545930D01*
X02127613Y00543900D01*
X02126974Y00541885D01*
X02126287Y00539887D01*
X02125550Y00537905D01*
X02124765Y00535943D01*
X02123933Y00534000D01*
X02123052Y00532079D01*
X02122125Y00530179D01*
X02121152Y00528303D01*
X02120133Y00526451D01*
X02119068Y00524625D01*
X02117960Y00522825D01*
X02116807Y00521054D01*
X02115611Y00519311D01*
X02114373Y00517598D01*
X02113093Y00515916D01*
X02111772Y00514265D01*
X02110412Y00512648D01*
X02109011Y00511065D01*
X02107573Y00509516D01*
X02106097Y00508003D01*
X02104584Y00506527D01*
X02103035Y00505089D01*
X02101452Y00503688D01*
X02099835Y00502328D01*
X02098184Y00501007D01*
X02096502Y00499727D01*
X02094789Y00498489D01*
X02093046Y00497293D01*
X02091275Y00496140D01*
X02089475Y00495032D01*
X02087649Y00493967D01*
X02085797Y00492948D01*
X02083921Y00491975D01*
X02082021Y00491048D01*
X02080100Y00490167D01*
X02078157Y00489335D01*
X02076195Y00488550D01*
X02074213Y00487813D01*
X02072215Y00487126D01*
X02070200Y00486487D01*
X02068170Y00485899D01*
X02066126Y00485360D01*
X02064069Y00484872D01*
X02062001Y00484434D01*
X02059923Y00484047D01*
X02057837Y00483711D01*
X02055742Y00483427D01*
X02053641Y00483194D01*
X02051535Y00483012D01*
X02049426Y00482883D01*
X02047314Y00482805D01*
X02045200Y00482779D01*
X02043086Y00482805D01*
X02040974Y00482883D01*
X02038865Y00483012D01*
X02036759Y00483194D01*
X02034658Y00483427D01*
X02032563Y00483711D01*
X02030477Y00484047D01*
X02028399Y00484434D01*
X02026331Y00484872D01*
X02024274Y00485360D01*
X02022230Y00485899D01*
X02020200Y00486487D01*
X02018185Y00487126D01*
X02016187Y00487813D01*
X02014205Y00488550D01*
X02012243Y00489335D01*
X02010300Y00490167D01*
X02008379Y00491048D01*
X02006479Y00491975D01*
X02004603Y00492948D01*
X02002751Y00493967D01*
X02000925Y00495032D01*
X01999125Y00496140D01*
X01997354Y00497293D01*
X01995611Y00498489D01*
X01993898Y00499727D01*
X01992216Y00501007D01*
X01990565Y00502328D01*
X01988948Y00503688D01*
X01987365Y00505089D01*
X01985816Y00506527D01*
X01984303Y00508003D01*
X01982827Y00509516D01*
X01981389Y00511065D01*
X01979988Y00512648D01*
X01978628Y00514265D01*
X01977307Y00515916D01*
X01976027Y00517598D01*
X01974789Y00519311D01*
X01973593Y00521054D01*
X01972440Y00522825D01*
X01971332Y00524625D01*
X01970267Y00526451D01*
X01969248Y00528303D01*
X01968275Y00530179D01*
X01967348Y00532079D01*
X01966467Y00534000D01*
X01965635Y00535943D01*
X01964850Y00537905D01*
X01964113Y00539887D01*
X01963426Y00541885D01*
X01962787Y00543900D01*
X01962199Y00545930D01*
X01961660Y00547974D01*
X01961172Y00550031D01*
X01960734Y00552099D01*
X01960347Y00554177D01*
X01960011Y00556263D01*
X01959727Y00558358D01*
X01959494Y00560459D01*
X01959312Y00562565D01*
X01959183Y00564674D01*
X01959105Y00566786D01*
X01959079Y00568900D01*
X02119200Y00000000D02*
X02119035Y00013512D01*
X02118542Y00027017D01*
X02117720Y00040505D01*
X02116569Y00053969D01*
X02115091Y00067402D01*
X02113287Y00080794D01*
X02111156Y00094139D01*
X02108702Y00107427D01*
X02105925Y00120652D01*
X02102826Y00133805D01*
X02099408Y00146879D01*
X02095673Y00159866D01*
X02091622Y00172758D01*
X02087259Y00185548D01*
X02082586Y00198227D01*
X02077605Y00210789D01*
X02072320Y00223226D01*
X02066733Y00235531D01*
X02060849Y00247696D01*
X02054670Y00259714D01*
X02048200Y00271578D01*
X02041444Y00283281D01*
X02034404Y00294816D01*
X02027085Y00306176D01*
X02019492Y00317354D01*
X02011630Y00328345D01*
X02003501Y00339140D01*
X01995113Y00349735D01*
X01986469Y00360122D01*
X01977574Y00370295D01*
X01968434Y00380249D01*
X01959055Y00389977D01*
X01949442Y00399474D01*
X01939600Y00408735D01*
X01929536Y00417752D01*
X01919255Y00426522D01*
X01908763Y00435039D01*
X01898067Y00443298D01*
X01887174Y00451294D01*
X01876088Y00459023D01*
X01864818Y00466479D01*
X01853370Y00473659D01*
X01841750Y00480557D01*
X01829966Y00487171D01*
X01818024Y00493496D01*
X01805931Y00499528D01*
X01793696Y00505264D01*
X01781324Y00510700D01*
X01768824Y00515833D01*
X01756202Y00520661D01*
X01743466Y00525179D01*
X01730625Y00529387D01*
X01717684Y00533280D01*
X01704653Y00536857D01*
X01691538Y00540115D01*
X01678348Y00543053D01*
X01665090Y00545670D01*
X01651773Y00547962D01*
X01638403Y00549930D01*
X01624990Y00551571D01*
X01611541Y00552885D01*
X01598063Y00553872D01*
X01584566Y00554530D01*
X01571057Y00554859D01*
X01557543Y00554859D01*
X01544034Y00554530D01*
X01530537Y00553872D01*
X01517059Y00552885D01*
X01503610Y00551571D01*
X01490197Y00549930D01*
X01476827Y00547962D01*
X01463510Y00545670D01*
X01450252Y00543053D01*
X01437062Y00540115D01*
X01423947Y00536857D01*
X01410916Y00533280D01*
X01397975Y00529387D01*
X01385134Y00525179D01*
X01372398Y00520661D01*
X01359776Y00515833D01*
X01347276Y00510700D01*
X01334904Y00505264D01*
X01322669Y00499528D01*
X01310576Y00493496D01*
X01298634Y00487171D01*
X01286850Y00480557D01*
X01275230Y00473659D01*
X01263782Y00466479D01*
X01252512Y00459023D01*
X01241426Y00451294D01*
X01230533Y00443298D01*
X01219837Y00435039D01*
X01209345Y00426522D01*
X01199064Y00417752D01*
X01189000Y00408735D01*
X01179158Y00399474D01*
X01169545Y00389977D01*
X01160166Y00380249D01*
X01151026Y00370295D01*
X01142131Y00360122D01*
X01133487Y00349735D01*
X01125099Y00339140D01*
X01116970Y00328345D01*
X01109108Y00317354D01*
X01101515Y00306176D01*
X01094196Y00294816D01*
X01087156Y00283281D01*
X01080400Y00271578D01*
X01073930Y00259714D01*
X01067751Y00247696D01*
X01061867Y00235531D01*
X01056280Y00223226D01*
X01050995Y00210789D01*
X01046014Y00198227D01*
X01041341Y00185548D01*
X01036978Y00172758D01*
X01032927Y00159866D01*
X01029192Y00146879D01*
X01025774Y00133805D01*
X01022675Y00120652D01*
X01019898Y00107427D01*
X01017444Y00094139D01*
X01015313Y00080794D01*
X01013509Y00067402D01*
X01012031Y00053969D01*
X01010880Y00040505D01*
X01010058Y00027017D01*
X01009565Y00013512D01*
X01009400Y00000000D01*
X01010200Y-00001100D02*
X01010200Y00014000D01*
X01011000Y-00000300D02*
X01010200Y-00001100D01*
X01011000Y-00000300D02*
X01562700Y-00000300D01*
X03124800Y00000000D02*
X03124337Y00038044D01*
X03122947Y00076065D01*
X03120632Y00114041D01*
X03117393Y00151949D01*
X03113232Y00189767D01*
X03108151Y00227473D01*
X03102154Y00265043D01*
X03095243Y00302457D01*
X03087423Y00339691D01*
X03078699Y00376724D01*
X03069076Y00413533D01*
X03058559Y00450097D01*
X03047155Y00486394D01*
X03034871Y00522403D01*
X03021713Y00558102D01*
X03007690Y00593470D01*
X02992810Y00628486D01*
X02977082Y00663129D01*
X02960514Y00697379D01*
X02943118Y00731215D01*
X02924903Y00764618D01*
X02905880Y00797567D01*
X02886060Y00830043D01*
X02865455Y00862027D01*
X02844077Y00893499D01*
X02821940Y00924442D01*
X02799055Y00954837D01*
X02775437Y00984665D01*
X02751100Y01013909D01*
X02726058Y01042552D01*
X02700325Y01070577D01*
X02673918Y01097967D01*
X02646852Y01124705D01*
X02619143Y01150777D01*
X02590807Y01176166D01*
X02561861Y01200857D01*
X02532323Y01224837D01*
X02502209Y01248090D01*
X02471538Y01270603D01*
X02440328Y01292362D01*
X02408598Y01313355D01*
X02376365Y01333568D01*
X02343650Y01352991D01*
X02310472Y01371612D01*
X02276850Y01389419D01*
X02242804Y01406402D01*
X02208355Y01422551D01*
X02173523Y01437857D01*
X02138328Y01452310D01*
X02102792Y01465901D01*
X02066936Y01478623D01*
X02030780Y01490468D01*
X01994347Y01501429D01*
X01957658Y01511500D01*
X01920734Y01520674D01*
X01883598Y01528947D01*
X01846271Y01536312D01*
X01808776Y01542767D01*
X01771135Y01548306D01*
X01733371Y01552928D01*
X01695505Y01556628D01*
X01657560Y01559405D01*
X01619558Y01561258D01*
X01581523Y01562184D01*
X01543477Y01562184D01*
X01505442Y01561258D01*
X01467440Y01559405D01*
X01429495Y01556628D01*
X01391629Y01552928D01*
X01353865Y01548306D01*
X01316224Y01542767D01*
X01278729Y01536312D01*
X01241402Y01528947D01*
X01204266Y01520674D01*
X01167342Y01511500D01*
X01130653Y01501429D01*
X01094220Y01490468D01*
X01058064Y01478623D01*
X01022208Y01465901D01*
X00986672Y01452310D01*
X00951477Y01437857D01*
X00916645Y01422551D01*
X00882196Y01406402D01*
X00848150Y01389419D01*
X00814528Y01371612D01*
X00781350Y01352991D01*
X00748635Y01333568D01*
X00716402Y01313355D01*
X00684672Y01292362D01*
X00653462Y01270603D01*
X00622791Y01248090D01*
X00592677Y01224837D01*
X00563139Y01200857D01*
X00534193Y01176166D01*
X00505857Y01150777D01*
X00478148Y01124705D01*
X00451082Y01097967D01*
X00424675Y01070577D01*
X00398942Y01042552D01*
X00373900Y01013909D01*
X00349563Y00984665D01*
X00325945Y00954837D01*
X00303060Y00924442D01*
X00280923Y00893499D01*
X00259545Y00862027D01*
X00238940Y00830043D01*
X00219120Y00797567D01*
X00200097Y00764618D01*
X00181882Y00731215D01*
X00164486Y00697379D01*
X00147918Y00663129D01*
X00132190Y00628486D01*
X00117310Y00593470D01*
X00103287Y00558102D01*
X00090129Y00522403D01*
X00077845Y00486394D01*
X00066441Y00450097D01*
X00055924Y00413533D01*
X00046301Y00376724D01*
X00037577Y00339691D01*
X00029757Y00302457D01*
X00022846Y00265043D01*
X00016849Y00227473D01*
X00011768Y00189767D01*
X00007607Y00151949D01*
X00004368Y00114041D01*
X00002053Y00076065D01*
X00000663Y00038044D01*
X00000200Y00000000D01*
X00511679Y01010600D02*
X00511705Y01012714D01*
X00511783Y01014826D01*
X00511912Y01016935D01*
X00512094Y01019041D01*
X00512327Y01021142D01*
X00512611Y01023237D01*
X00512947Y01025323D01*
X00513334Y01027401D01*
X00513772Y01029469D01*
X00514260Y01031526D01*
X00514799Y01033570D01*
X00515387Y01035600D01*
X00516026Y01037615D01*
X00516713Y01039613D01*
X00517450Y01041595D01*
X00518235Y01043557D01*
X00519067Y01045500D01*
X00519948Y01047421D01*
X00520875Y01049321D01*
X00521848Y01051197D01*
X00522867Y01053049D01*
X00523932Y01054875D01*
X00525040Y01056675D01*
X00526193Y01058446D01*
X00527389Y01060189D01*
X00528627Y01061902D01*
X00529907Y01063584D01*
X00531228Y01065235D01*
X00532588Y01066852D01*
X00533989Y01068435D01*
X00535427Y01069984D01*
X00536903Y01071497D01*
X00538416Y01072973D01*
X00539965Y01074411D01*
X00541548Y01075812D01*
X00543165Y01077172D01*
X00544816Y01078493D01*
X00546498Y01079773D01*
X00548211Y01081011D01*
X00549954Y01082207D01*
X00551725Y01083360D01*
X00553525Y01084468D01*
X00555351Y01085533D01*
X00557203Y01086552D01*
X00559079Y01087525D01*
X00560979Y01088452D01*
X00562900Y01089333D01*
X00564843Y01090165D01*
X00566805Y01090950D01*
X00568787Y01091687D01*
X00570785Y01092374D01*
X00572800Y01093013D01*
X00574830Y01093601D01*
X00576874Y01094140D01*
X00578931Y01094628D01*
X00580999Y01095066D01*
X00583077Y01095453D01*
X00585163Y01095789D01*
X00587258Y01096073D01*
X00589359Y01096306D01*
X00591465Y01096488D01*
X00593574Y01096617D01*
X00595686Y01096695D01*
X00597800Y01096721D01*
X00599914Y01096695D01*
X00602026Y01096617D01*
X00604135Y01096488D01*
X00606241Y01096306D01*
X00608342Y01096073D01*
X00610437Y01095789D01*
X00612523Y01095453D01*
X00614601Y01095066D01*
X00616669Y01094628D01*
X00618726Y01094140D01*
X00620770Y01093601D01*
X00622800Y01093013D01*
X00624815Y01092374D01*
X00626813Y01091687D01*
X00628795Y01090950D01*
X00630757Y01090165D01*
X00632700Y01089333D01*
X00634621Y01088452D01*
X00636521Y01087525D01*
X00638397Y01086552D01*
X00640249Y01085533D01*
X00642075Y01084468D01*
X00643875Y01083360D01*
X00645646Y01082207D01*
X00647389Y01081011D01*
X00649102Y01079773D01*
X00650784Y01078493D01*
X00652435Y01077172D01*
X00654052Y01075812D01*
X00655635Y01074411D01*
X00657184Y01072973D01*
X00658697Y01071497D01*
X00660173Y01069984D01*
X00661611Y01068435D01*
X00663012Y01066852D01*
X00664372Y01065235D01*
X00665693Y01063584D01*
X00666973Y01061902D01*
X00668211Y01060189D01*
X00669407Y01058446D01*
X00670560Y01056675D01*
X00671668Y01054875D01*
X00672733Y01053049D01*
X00673752Y01051197D01*
X00674725Y01049321D01*
X00675652Y01047421D01*
X00676533Y01045500D01*
X00677365Y01043557D01*
X00678150Y01041595D01*
X00678887Y01039613D01*
X00679574Y01037615D01*
X00680213Y01035600D01*
X00680801Y01033570D01*
X00681340Y01031526D01*
X00681828Y01029469D01*
X00682266Y01027401D01*
X00682653Y01025323D01*
X00682989Y01023237D01*
X00683273Y01021142D01*
X00683506Y01019041D01*
X00683688Y01016935D01*
X00683817Y01014826D01*
X00683895Y01012714D01*
X00683921Y01010600D01*
X00683895Y01008486D01*
X00683817Y01006374D01*
X00683688Y01004265D01*
X00683506Y01002159D01*
X00683273Y01000058D01*
X00682989Y00997963D01*
X00682653Y00995877D01*
X00682266Y00993799D01*
X00681828Y00991731D01*
X00681340Y00989674D01*
X00680801Y00987630D01*
X00680213Y00985600D01*
X00679574Y00983585D01*
X00678887Y00981587D01*
X00678150Y00979605D01*
X00677365Y00977643D01*
X00676533Y00975700D01*
X00675652Y00973779D01*
X00674725Y00971879D01*
X00673752Y00970003D01*
X00672733Y00968151D01*
X00671668Y00966325D01*
X00670560Y00964525D01*
X00669407Y00962754D01*
X00668211Y00961011D01*
X00666973Y00959298D01*
X00665693Y00957616D01*
X00664372Y00955965D01*
X00663012Y00954348D01*
X00661611Y00952765D01*
X00660173Y00951216D01*
X00658697Y00949703D01*
X00657184Y00948227D01*
X00655635Y00946789D01*
X00654052Y00945388D01*
X00652435Y00944028D01*
X00650784Y00942707D01*
X00649102Y00941427D01*
X00647389Y00940189D01*
X00645646Y00938993D01*
X00643875Y00937840D01*
X00642075Y00936732D01*
X00640249Y00935667D01*
X00638397Y00934648D01*
X00636521Y00933675D01*
X00634621Y00932748D01*
X00632700Y00931867D01*
X00630757Y00931035D01*
X00628795Y00930250D01*
X00626813Y00929513D01*
X00624815Y00928826D01*
X00622800Y00928187D01*
X00620770Y00927599D01*
X00618726Y00927060D01*
X00616669Y00926572D01*
X00614601Y00926134D01*
X00612523Y00925747D01*
X00610437Y00925411D01*
X00608342Y00925127D01*
X00606241Y00924894D01*
X00604135Y00924712D01*
X00602026Y00924583D01*
X00599914Y00924505D01*
X00597800Y00924479D01*
X00595686Y00924505D01*
X00593574Y00924583D01*
X00591465Y00924712D01*
X00589359Y00924894D01*
X00587258Y00925127D01*
X00585163Y00925411D01*
X00583077Y00925747D01*
X00580999Y00926134D01*
X00578931Y00926572D01*
X00576874Y00927060D01*
X00574830Y00927599D01*
X00572800Y00928187D01*
X00570785Y00928826D01*
X00568787Y00929513D01*
X00566805Y00930250D01*
X00564843Y00931035D01*
X00562900Y00931867D01*
X00560979Y00932748D01*
X00559079Y00933675D01*
X00557203Y00934648D01*
X00555351Y00935667D01*
X00553525Y00936732D01*
X00551725Y00937840D01*
X00549954Y00938993D01*
X00548211Y00940189D01*
X00546498Y00941427D01*
X00544816Y00942707D01*
X00543165Y00944028D01*
X00541548Y00945388D01*
X00539965Y00946789D01*
X00538416Y00948227D01*
X00536903Y00949703D01*
X00535427Y00951216D01*
X00533989Y00952765D01*
X00532588Y00954348D01*
X00531228Y00955965D01*
X00529907Y00957616D01*
X00528627Y00959298D01*
X00527389Y00961011D01*
X00526193Y00962754D01*
X00525040Y00964525D01*
X00523932Y00966325D01*
X00522867Y00968151D01*
X00521848Y00970003D01*
X00520875Y00971879D01*
X00519948Y00973779D01*
X00519067Y00975700D01*
X00518235Y00977643D01*
X00517450Y00979605D01*
X00516713Y00981587D01*
X00516026Y00983585D01*
X00515387Y00985600D01*
X00514799Y00987630D01*
X00514260Y00989674D01*
X00513772Y00991731D01*
X00513334Y00993799D01*
X00512947Y00995877D01*
X00512611Y00997963D01*
X00512327Y01000058D01*
X00512094Y01002159D01*
X00511912Y01004265D01*
X00511783Y01006374D01*
X00511705Y01008486D01*
X00511679Y01010600D01*
D11*
X-00108600Y-00004000D02*
X-00108234Y00037947D01*
X-00106838Y00079871D01*
X-00104414Y00121749D01*
X-00100963Y00163555D01*
X-00096487Y00205264D01*
X-00090989Y00246850D01*
X-00084472Y00288289D01*
X-00076940Y00329555D01*
X-00068397Y00370624D01*
X-00058849Y00411471D01*
X-00048302Y00452071D01*
X-00036761Y00492401D01*
X-00024234Y00532435D01*
X-00010728Y00572149D01*
X00003748Y00611520D01*
X00019186Y00650524D01*
X00035576Y00689137D01*
X00052910Y00727337D01*
X00071175Y00765099D01*
X00090362Y00802402D01*
X00110459Y00839223D01*
X00131453Y00875540D01*
X00153332Y00911330D01*
X00176082Y00946573D01*
X00199691Y00981246D01*
X00224144Y01015330D01*
X00249425Y01048804D01*
X00275521Y01081647D01*
X00302415Y01113839D01*
X00330090Y01145362D01*
X00358531Y01176197D01*
X00387720Y01206324D01*
X00417640Y01235725D01*
X00448272Y01264384D01*
X00479598Y01292282D01*
X00511600Y01319403D01*
X00544257Y01345730D01*
X00577551Y01371248D01*
X00611461Y01395942D01*
X00645967Y01419795D01*
X00681047Y01442795D01*
X00716682Y01464927D01*
X00752849Y01486177D01*
X00789527Y01506534D01*
X00826693Y01525984D01*
X00864325Y01544517D01*
X00902401Y01562120D01*
X00940897Y01578784D01*
X00979791Y01594498D01*
X01019058Y01609252D01*
X01058676Y01623039D01*
X01098620Y01635849D01*
X01138867Y01647675D01*
X01179392Y01658509D01*
X01220170Y01668346D01*
X01261178Y01677179D01*
X01302390Y01685003D01*
X01343781Y01691814D01*
X01385327Y01697606D01*
X01427003Y01702377D01*
X01468783Y01706124D01*
X01510643Y01708845D01*
X01552557Y01710537D01*
X01594500Y01711200D01*
X01636446Y01710834D01*
X01678371Y01709438D01*
X01720249Y01707014D01*
X01762055Y01703563D01*
X01803764Y01699087D01*
X01845350Y01693589D01*
X01886789Y01687072D01*
X01928055Y01679540D01*
X01969124Y01670997D01*
X02009971Y01661449D01*
X02050571Y01650902D01*
X02090901Y01639361D01*
X02130935Y01626834D01*
X02170649Y01613329D01*
X02210020Y01598852D01*
X02249024Y01583414D01*
X02287637Y01567024D01*
X02325837Y01549690D01*
X02363599Y01531425D01*
X02400902Y01512238D01*
X02437723Y01492141D01*
X02474040Y01471147D01*
X02509830Y01449268D01*
X02545073Y01426518D01*
X02579746Y01402909D01*
X02613830Y01378456D01*
X02647304Y01353175D01*
X02680147Y01327079D01*
X02712339Y01300185D01*
X02743862Y01272510D01*
X02774697Y01244069D01*
X02804824Y01214880D01*
X02834225Y01184960D01*
X02862884Y01154328D01*
X02890782Y01123002D01*
X02917903Y01091000D01*
X02944230Y01058343D01*
X02969748Y01025049D01*
X02994442Y00991139D01*
X03018295Y00956633D01*
X03041295Y00921553D01*
X03063427Y00885918D01*
X03084677Y00849751D01*
X03105034Y00813074D01*
X03124484Y00775907D01*
X03143017Y00738275D01*
X03160620Y00700199D01*
X03177284Y00661703D01*
X03192998Y00622809D01*
X03207752Y00583542D01*
X03221539Y00543924D01*
X03234349Y00503980D01*
X03246175Y00463733D01*
X03257009Y00423208D01*
X03266846Y00382430D01*
X03275679Y00341422D01*
X03283503Y00300211D01*
X03290314Y00258819D01*
X03296106Y00217273D01*
X03300877Y00175597D01*
X03304624Y00133817D01*
X03307345Y00091957D01*
X03309037Y00050043D01*
X03309700Y00008100D01*
X02253500Y-00072800D02*
X02245500Y-00080800D01*
X00891100Y-00080800D01*
D12*
X00928560Y00268201D02*
X00625300Y00265465D01*
X00625600Y00574400D01*
X01292900Y01241700D01*
X01686500Y01241700D01*
X01686500Y01016800D01*
X01556500Y01016800D02*
X01472100Y01016800D01*
X01472100Y01022800D01*
X01348000Y00997600D02*
X01342100Y01003500D01*
X01342100Y01022800D01*
X01334800Y01022800D01*
X01185493Y00879310D01*
X02332400Y00879310D01*
X02332400Y00308800D01*
X02827582Y00308800D01*
X02834900Y00301481D01*
X02834900Y00149800D01*
X02934900Y00149800D02*
X02934900Y00305882D01*
X02937818Y00308800D01*
X02551794Y00978805D01*
X02398200Y00978805D01*
X02398200Y01241700D01*
X01686500Y01241700D01*
X02332400Y01151500D02*
X02332400Y00879310D01*
X02462400Y01151500D02*
X02550206Y01108795D01*
X01185493Y00879310D02*
X00698200Y00411000D01*
X00828200Y00411000D02*
X00898500Y00401300D01*
X00929240Y00398199D01*
X02354800Y00196998D02*
X02354800Y00104920D01*
X02377820Y00081900D01*
X02423859Y00081900D01*
X02446879Y00104920D01*
X02446879Y00150959D01*
X02400839Y00150959D01*
X02354800Y00196998D02*
X02377820Y00220018D01*
X02423859Y00220018D01*
X02446879Y00196998D01*
X02492918Y00220018D02*
X02584997Y00081900D01*
X02584997Y00220018D01*
X02631036Y00220018D02*
X02700095Y00220018D01*
X02723115Y00196998D01*
X02723115Y00104920D01*
X02700095Y00081900D01*
X02631036Y00081900D01*
X02631036Y00220018D01*
X02492918Y00220018D02*
X02492918Y00081900D01*
D13*
X02827582Y00308800D03*
X02937818Y00308800D03*
D14*
G36*
X02588985Y01004261D02*
X02589596Y00954266D01*
X02514603Y00953349D01*
X02513992Y01003344D01*
X02588985Y01004261D01*
G37*
G36*
X02587397Y01134251D02*
X02588008Y01084256D01*
X02513015Y01083339D01*
X02512404Y01133334D01*
X02587397Y01134251D01*
G37*
X02462400Y01151500D03*
X02332400Y01151500D03*
X01686500Y01016800D03*
X01556500Y01016800D03*
X01472100Y01022800D03*
X01342100Y01022800D03*
G36*
X00966870Y00423002D02*
X00966608Y00373003D01*
X00891610Y00373396D01*
X00891872Y00423395D01*
X00966870Y00423002D01*
G37*
X00828200Y00411000D03*
X00698200Y00411000D03*
G36*
X00966190Y00293004D02*
X00965928Y00243005D01*
X00890930Y00243398D01*
X00891192Y00293397D01*
X00966190Y00293004D01*
G37*
D15*
X02834900Y00179800D02*
X02834900Y00119800D01*
X02934900Y00119800D02*
X02934900Y00179800D01*
M02*
