G75*
%MOIN*%
%OFA0B0*%
%FSLAX26Y26*%
%IPPOS*%
%LPD*%
%AMOC8*
5,1,8,0,0,1.08239X$1,22.5*
%
%ADD10C,0.003000*%
%ADD11C,0.006000*%
%ADD12R,0.075000X0.050000*%
%ADD13R,0.050000X0.075000*%
%ADD14C,0.060000*%
%ADD15R,0.059055X0.062992*%
%ADD16R,0.062992X0.059055*%
%ADD17C,0.012000*%
D10*
X00000000Y-00000700D02*
X03124700Y-00000700D01*
X01958879Y00568900D02*
X01958905Y00571014D01*
X01958983Y00573126D01*
X01959112Y00575235D01*
X01959294Y00577341D01*
X01959527Y00579442D01*
X01959811Y00581537D01*
X01960147Y00583623D01*
X01960534Y00585701D01*
X01960972Y00587769D01*
X01961460Y00589826D01*
X01961999Y00591870D01*
X01962587Y00593900D01*
X01963226Y00595915D01*
X01963913Y00597913D01*
X01964650Y00599895D01*
X01965435Y00601857D01*
X01966267Y00603800D01*
X01967148Y00605721D01*
X01968075Y00607621D01*
X01969048Y00609497D01*
X01970067Y00611349D01*
X01971132Y00613175D01*
X01972240Y00614975D01*
X01973393Y00616746D01*
X01974589Y00618489D01*
X01975827Y00620202D01*
X01977107Y00621884D01*
X01978428Y00623535D01*
X01979788Y00625152D01*
X01981189Y00626735D01*
X01982627Y00628284D01*
X01984103Y00629797D01*
X01985616Y00631273D01*
X01987165Y00632711D01*
X01988748Y00634112D01*
X01990365Y00635472D01*
X01992016Y00636793D01*
X01993698Y00638073D01*
X01995411Y00639311D01*
X01997154Y00640507D01*
X01998925Y00641660D01*
X02000725Y00642768D01*
X02002551Y00643833D01*
X02004403Y00644852D01*
X02006279Y00645825D01*
X02008179Y00646752D01*
X02010100Y00647633D01*
X02012043Y00648465D01*
X02014005Y00649250D01*
X02015987Y00649987D01*
X02017985Y00650674D01*
X02020000Y00651313D01*
X02022030Y00651901D01*
X02024074Y00652440D01*
X02026131Y00652928D01*
X02028199Y00653366D01*
X02030277Y00653753D01*
X02032363Y00654089D01*
X02034458Y00654373D01*
X02036559Y00654606D01*
X02038665Y00654788D01*
X02040774Y00654917D01*
X02042886Y00654995D01*
X02045000Y00655021D01*
X02047114Y00654995D01*
X02049226Y00654917D01*
X02051335Y00654788D01*
X02053441Y00654606D01*
X02055542Y00654373D01*
X02057637Y00654089D01*
X02059723Y00653753D01*
X02061801Y00653366D01*
X02063869Y00652928D01*
X02065926Y00652440D01*
X02067970Y00651901D01*
X02070000Y00651313D01*
X02072015Y00650674D01*
X02074013Y00649987D01*
X02075995Y00649250D01*
X02077957Y00648465D01*
X02079900Y00647633D01*
X02081821Y00646752D01*
X02083721Y00645825D01*
X02085597Y00644852D01*
X02087449Y00643833D01*
X02089275Y00642768D01*
X02091075Y00641660D01*
X02092846Y00640507D01*
X02094589Y00639311D01*
X02096302Y00638073D01*
X02097984Y00636793D01*
X02099635Y00635472D01*
X02101252Y00634112D01*
X02102835Y00632711D01*
X02104384Y00631273D01*
X02105897Y00629797D01*
X02107373Y00628284D01*
X02108811Y00626735D01*
X02110212Y00625152D01*
X02111572Y00623535D01*
X02112893Y00621884D01*
X02114173Y00620202D01*
X02115411Y00618489D01*
X02116607Y00616746D01*
X02117760Y00614975D01*
X02118868Y00613175D01*
X02119933Y00611349D01*
X02120952Y00609497D01*
X02121925Y00607621D01*
X02122852Y00605721D01*
X02123733Y00603800D01*
X02124565Y00601857D01*
X02125350Y00599895D01*
X02126087Y00597913D01*
X02126774Y00595915D01*
X02127413Y00593900D01*
X02128001Y00591870D01*
X02128540Y00589826D01*
X02129028Y00587769D01*
X02129466Y00585701D01*
X02129853Y00583623D01*
X02130189Y00581537D01*
X02130473Y00579442D01*
X02130706Y00577341D01*
X02130888Y00575235D01*
X02131017Y00573126D01*
X02131095Y00571014D01*
X02131121Y00568900D01*
X02131095Y00566786D01*
X02131017Y00564674D01*
X02130888Y00562565D01*
X02130706Y00560459D01*
X02130473Y00558358D01*
X02130189Y00556263D01*
X02129853Y00554177D01*
X02129466Y00552099D01*
X02129028Y00550031D01*
X02128540Y00547974D01*
X02128001Y00545930D01*
X02127413Y00543900D01*
X02126774Y00541885D01*
X02126087Y00539887D01*
X02125350Y00537905D01*
X02124565Y00535943D01*
X02123733Y00534000D01*
X02122852Y00532079D01*
X02121925Y00530179D01*
X02120952Y00528303D01*
X02119933Y00526451D01*
X02118868Y00524625D01*
X02117760Y00522825D01*
X02116607Y00521054D01*
X02115411Y00519311D01*
X02114173Y00517598D01*
X02112893Y00515916D01*
X02111572Y00514265D01*
X02110212Y00512648D01*
X02108811Y00511065D01*
X02107373Y00509516D01*
X02105897Y00508003D01*
X02104384Y00506527D01*
X02102835Y00505089D01*
X02101252Y00503688D01*
X02099635Y00502328D01*
X02097984Y00501007D01*
X02096302Y00499727D01*
X02094589Y00498489D01*
X02092846Y00497293D01*
X02091075Y00496140D01*
X02089275Y00495032D01*
X02087449Y00493967D01*
X02085597Y00492948D01*
X02083721Y00491975D01*
X02081821Y00491048D01*
X02079900Y00490167D01*
X02077957Y00489335D01*
X02075995Y00488550D01*
X02074013Y00487813D01*
X02072015Y00487126D01*
X02070000Y00486487D01*
X02067970Y00485899D01*
X02065926Y00485360D01*
X02063869Y00484872D01*
X02061801Y00484434D01*
X02059723Y00484047D01*
X02057637Y00483711D01*
X02055542Y00483427D01*
X02053441Y00483194D01*
X02051335Y00483012D01*
X02049226Y00482883D01*
X02047114Y00482805D01*
X02045000Y00482779D01*
X02042886Y00482805D01*
X02040774Y00482883D01*
X02038665Y00483012D01*
X02036559Y00483194D01*
X02034458Y00483427D01*
X02032363Y00483711D01*
X02030277Y00484047D01*
X02028199Y00484434D01*
X02026131Y00484872D01*
X02024074Y00485360D01*
X02022030Y00485899D01*
X02020000Y00486487D01*
X02017985Y00487126D01*
X02015987Y00487813D01*
X02014005Y00488550D01*
X02012043Y00489335D01*
X02010100Y00490167D01*
X02008179Y00491048D01*
X02006279Y00491975D01*
X02004403Y00492948D01*
X02002551Y00493967D01*
X02000725Y00495032D01*
X01998925Y00496140D01*
X01997154Y00497293D01*
X01995411Y00498489D01*
X01993698Y00499727D01*
X01992016Y00501007D01*
X01990365Y00502328D01*
X01988748Y00503688D01*
X01987165Y00505089D01*
X01985616Y00506527D01*
X01984103Y00508003D01*
X01982627Y00509516D01*
X01981189Y00511065D01*
X01979788Y00512648D01*
X01978428Y00514265D01*
X01977107Y00515916D01*
X01975827Y00517598D01*
X01974589Y00519311D01*
X01973393Y00521054D01*
X01972240Y00522825D01*
X01971132Y00524625D01*
X01970067Y00526451D01*
X01969048Y00528303D01*
X01968075Y00530179D01*
X01967148Y00532079D01*
X01966267Y00534000D01*
X01965435Y00535943D01*
X01964650Y00537905D01*
X01963913Y00539887D01*
X01963226Y00541885D01*
X01962587Y00543900D01*
X01961999Y00545930D01*
X01961460Y00547974D01*
X01960972Y00550031D01*
X01960534Y00552099D01*
X01960147Y00554177D01*
X01959811Y00556263D01*
X01959527Y00558358D01*
X01959294Y00560459D01*
X01959112Y00562565D01*
X01958983Y00564674D01*
X01958905Y00566786D01*
X01958879Y00568900D01*
X00121900Y00599001D02*
X00108423Y00565445D01*
X00095726Y00531587D01*
X00083816Y00497444D01*
X00072700Y00463035D01*
X00062383Y00428377D01*
X00052870Y00393491D01*
X00044168Y00358393D01*
X00036280Y00323103D01*
X00029211Y00287640D01*
X00022965Y00252023D01*
X00017545Y00216271D01*
X00012953Y00180404D01*
X00009193Y00144439D01*
X00006267Y00108397D01*
X00004175Y00072297D01*
X00002919Y00036159D01*
X00002500Y00000000D01*
X01010800Y-00000300D02*
X01562500Y-00000300D01*
X01137600Y01501799D02*
X01174225Y01511709D01*
X01211079Y01520726D01*
X01248141Y01528845D01*
X01285390Y01536061D01*
X01322803Y01542369D01*
X01360359Y01547766D01*
X01398035Y01552249D01*
X01435808Y01555815D01*
X01473657Y01558461D01*
X01511559Y01560187D01*
X01549492Y01560992D01*
X01587433Y01560874D01*
X01625360Y01559835D01*
X01663250Y01557874D01*
X01701082Y01554992D01*
X01738833Y01551193D01*
X01776480Y01546476D01*
X01814001Y01540847D01*
X01851374Y01534307D01*
X01888578Y01526860D01*
X01925589Y01518512D01*
X01962387Y01509267D01*
X01998949Y01499130D01*
X02035254Y01488108D01*
X02071280Y01476206D01*
X02107007Y01463433D01*
X02142412Y01449795D01*
X02177476Y01435300D01*
X02212177Y01419958D01*
X02246495Y01403777D01*
X02280409Y01386767D01*
X02313901Y01368937D01*
X02346948Y01350299D01*
X02379534Y01330864D01*
X02411637Y01310642D01*
X02443239Y01289645D01*
X02474322Y01267887D01*
X02504866Y01245380D01*
X02534855Y01222138D01*
X02564270Y01198173D01*
X02593094Y01173501D01*
X02621310Y01148135D01*
X02648901Y01122091D01*
X02675851Y01095385D01*
X02702144Y01068031D01*
X02727764Y01040046D01*
X02752697Y01011447D01*
X02776927Y00982251D01*
X02800440Y00952474D01*
X02823223Y00922135D01*
X02845262Y00891250D01*
X02866544Y00859840D01*
X02887056Y00827921D01*
X02906787Y00795514D01*
X02925724Y00762636D01*
X02943856Y00729308D01*
X02961173Y00695549D01*
X02977664Y00661379D01*
X02993321Y00626819D01*
X03008132Y00591888D01*
X03022091Y00556608D01*
X03035187Y00520998D01*
X03047415Y00485081D01*
X03058766Y00448878D01*
X03069234Y00412409D01*
X03078812Y00375697D01*
X03087496Y00338763D01*
X03095279Y00301628D01*
X03102158Y00264316D01*
X03108127Y00226847D01*
X03113184Y00189244D01*
X03117326Y00151530D01*
X03120551Y00113726D01*
X03122855Y00075854D01*
X03124238Y00037938D01*
X03124700Y00000000D01*
D11*
X01137300Y00598500D02*
X01137300Y01501800D01*
X01137400Y01501900D01*
X01136600Y00598400D02*
X00120500Y00598400D01*
X00120200Y00598100D01*
D12*
X02328100Y00183200D03*
X02328100Y00053200D03*
D13*
X00828000Y00411000D03*
X00698000Y00411000D03*
X01341900Y01022800D03*
X01471900Y01022800D03*
X02332200Y01151500D03*
X02462200Y01151500D03*
D14*
X02604200Y00270700D02*
X02604200Y00210700D01*
X02704200Y00210700D02*
X02704200Y00270700D01*
X02804200Y00270700D02*
X02804200Y00210700D01*
X02904200Y00210700D02*
X02904200Y00270700D01*
X03004200Y00270700D02*
X03004200Y00210700D01*
D15*
X01668624Y01020700D03*
X01546576Y01020700D03*
D16*
X00941300Y00405924D03*
X00941300Y00283876D03*
X02553100Y00973276D03*
X02553100Y01095324D03*
D17*
X02506482Y01124134D01*
X02462200Y01151500D01*
X02462200Y00495900D01*
X02703900Y00495900D01*
X02703900Y00240700D01*
X02704200Y00240700D01*
X02804200Y00240700D02*
X02804200Y00133800D01*
X01837900Y00133800D01*
X01837900Y01099100D01*
X01507600Y01099100D01*
X01507600Y01022800D01*
X01501300Y01022800D01*
X01546576Y01022800D01*
X01546576Y01020700D01*
X01501300Y01022800D02*
X01471900Y01022800D01*
X01471900Y01016800D01*
X01342100Y01022800D02*
X01342100Y00559100D01*
X00698000Y00559100D01*
X00698000Y00411000D01*
X00827999Y00411000D02*
X00828001Y00410860D01*
X00828007Y00410720D01*
X00828016Y00410581D01*
X00828030Y00410441D01*
X00828047Y00410303D01*
X00828068Y00410164D01*
X00828093Y00410027D01*
X00828122Y00409890D01*
X00828154Y00409754D01*
X00828191Y00409619D01*
X00828230Y00409484D01*
X00828274Y00409352D01*
X00828321Y00409220D01*
X00828372Y00409089D01*
X00828427Y00408961D01*
X00828485Y00408833D01*
X00828546Y00408708D01*
X00828611Y00408584D01*
X00828679Y00408462D01*
X00828751Y00408341D01*
X00828826Y00408223D01*
X00828904Y00408107D01*
X00828985Y00407993D01*
X00829070Y00407882D01*
X00829157Y00407772D01*
X00829247Y00407666D01*
X00829341Y00407561D01*
X00829437Y00407460D01*
X00829536Y00407361D01*
X00829637Y00407265D01*
X00829742Y00407171D01*
X00829848Y00407081D01*
X00829958Y00406994D01*
X00830069Y00406909D01*
X00830183Y00406828D01*
X00830299Y00406750D01*
X00830417Y00406675D01*
X00830538Y00406603D01*
X00830660Y00406535D01*
X00830784Y00406470D01*
X00830909Y00406409D01*
X00831037Y00406351D01*
X00831165Y00406296D01*
X00831296Y00406245D01*
X00831428Y00406198D01*
X00831560Y00406154D01*
X00831695Y00406115D01*
X00831830Y00406078D01*
X00831966Y00406046D01*
X00832103Y00406017D01*
X00832240Y00405992D01*
X00832379Y00405971D01*
X00832517Y00405954D01*
X00832657Y00405940D01*
X00832796Y00405931D01*
X00832936Y00405925D01*
X00833076Y00405923D01*
X00833076Y00405924D02*
X00941300Y00405924D01*
X01648800Y00405924D01*
X01648800Y00102200D01*
X02904200Y00102200D01*
X02904200Y00240700D01*
X03004200Y00240700D02*
X03004200Y00053200D01*
X02328100Y00053200D01*
X01171976Y00053200D01*
X01166402Y00053267D01*
X01160831Y00053469D01*
X01155267Y00053806D01*
X01149713Y00054277D01*
X01144171Y00054882D01*
X01138646Y00055621D01*
X01133140Y00056493D01*
X01127657Y00057497D01*
X01122200Y00058634D01*
X01116772Y00059903D01*
X01111376Y00061302D01*
X01106015Y00062832D01*
X01100693Y00064490D01*
X01095413Y00066277D01*
X01090177Y00068190D01*
X01084989Y00070230D01*
X01079852Y00072394D01*
X01074769Y00074682D01*
X01069742Y00077092D01*
X01064776Y00079623D01*
X01059871Y00082273D01*
X01055033Y00085040D01*
X01050262Y00087924D01*
X01045563Y00090922D01*
X01040937Y00094033D01*
X01036388Y00097255D01*
X01031918Y00100586D01*
X01027530Y00104024D01*
X01023226Y00107567D01*
X01019010Y00111213D01*
X01014882Y00114959D01*
X01010846Y00118804D01*
X01006904Y00122746D01*
X01003059Y00126782D01*
X00999313Y00130910D01*
X00995667Y00135126D01*
X00992124Y00139430D01*
X00988686Y00143818D01*
X00985355Y00148288D01*
X00982133Y00152837D01*
X00979022Y00157463D01*
X00976024Y00162162D01*
X00973140Y00166933D01*
X00970373Y00171771D01*
X00967723Y00176676D01*
X00965192Y00181642D01*
X00962782Y00186669D01*
X00960494Y00191752D01*
X00958330Y00196889D01*
X00956290Y00202077D01*
X00954377Y00207313D01*
X00952590Y00212593D01*
X00950932Y00217915D01*
X00949402Y00223276D01*
X00948003Y00228672D01*
X00946734Y00234100D01*
X00945597Y00239557D01*
X00944593Y00245040D01*
X00943721Y00250546D01*
X00942982Y00256071D01*
X00942377Y00261613D01*
X00941906Y00267167D01*
X00941569Y00272731D01*
X00941367Y00278302D01*
X00941300Y00283876D01*
X00765900Y00283876D01*
X00765900Y00504700D01*
X01668624Y00504700D01*
X01668624Y01020700D01*
X01342100Y01022800D02*
X01341900Y01022800D01*
X01341900Y01151500D01*
X02332200Y01151500D01*
X02328100Y01147399D01*
X02328100Y00232400D01*
X02328100Y00240700D01*
X02604200Y00240700D01*
X02328100Y00232400D02*
X02328100Y00183200D01*
X02328100Y00185700D01*
X03004200Y00240700D02*
X03003282Y00261618D01*
X03001857Y00282508D01*
X02999928Y00303358D01*
X02997495Y00324155D01*
X02994560Y00344887D01*
X02991124Y00365541D01*
X02987190Y00386107D01*
X02982759Y00406571D01*
X02977834Y00426923D01*
X02972418Y00447149D01*
X02966515Y00467238D01*
X02960127Y00487178D01*
X02953259Y00506959D01*
X02945915Y00526567D01*
X02938098Y00545992D01*
X02929814Y00565222D01*
X02921067Y00584246D01*
X02911862Y00603052D01*
X02902205Y00621631D01*
X02892101Y00639971D01*
X02881557Y00658060D01*
X02870578Y00675890D01*
X02859171Y00693449D01*
X02847343Y00710726D01*
X02835100Y00727712D01*
X02822450Y00744398D01*
X02809399Y00760772D01*
X02795957Y00776826D01*
X02782130Y00792550D01*
X02767927Y00807935D01*
X02753356Y00822971D01*
X02738425Y00837651D01*
X02723144Y00851966D01*
X02707520Y00865906D01*
X02691564Y00879465D01*
X02675285Y00892633D01*
X02658692Y00905404D01*
X02641795Y00917770D01*
X02624604Y00929723D01*
X02607128Y00941257D01*
X02589379Y00952365D01*
X02571366Y00963040D01*
X02553100Y00973277D01*
M02*
